<svg xmlns="http://www.w3.org/2000/svg" xmlns:xlink="http://www.w3.org/1999/xlink" viewBox="0 0 4110.62 2179.73" overflow="visible"><defs><linearGradient id="linear-gradient" x1="-120.59" y1="1755.1" x2="4231.2" y2="424.63" gradientUnits="userSpaceOnUse"><stop offset="0.34" stop-color="#232463"/><stop offset="0.93" stop-color="#1a1751"/></linearGradient></defs><g id="Layer_2" data-name="Layer 2"><g id="Background"><rect x="7.31" y="6.3" width="4096" height="2167.14" style="fill:url(#linear-gradient)"/><path d="M4103.31,2167.43H69.05c-17.72,0-37.17-2.27-54.78,0a55.73,55.73,0,0,1-7,0l6,6V39.3c0-8.15,2.64-21.53,0-29.34-.33-1,0-2.59,0-3.66l-6,6H4041.57c17.71,0,37.17,2.27,54.77,0a55.89,55.89,0,0,1,7,0l-6-6V2085.18c0,27.62-3,57.08,0,84.59a34.37,34.37,0,0,1,0,3.66c0,7.73,12,7.74,12,0V94.55c0-27.62,2.94-57.08,0-84.59a34.37,34.37,0,0,1,0-3.66,6.08,6.08,0,0,0-6-6H173.58C120.49.3,67.36-.37,14.27.3c-2.32,0-4.64,0-7,0a6.08,6.08,0,0,0-6,6V2085.18c0,27.62-2.95,57.08,0,84.59a34.37,34.37,0,0,1,0,3.66,6.08,6.08,0,0,0,6,6H3937c53.09,0,106.22.67,159.3,0,2.32,0,4.65,0,7,0C4111,2179.43,4111,2167.43,4103.31,2167.43Z"/></g></g></svg>