<svg xmlns="http://www.w3.org/2000/svg" xmlns:xlink="http://www.w3.org/1999/xlink" viewBox="0 0 4055.2 843.16"><defs><radialGradient id="radial-gradient" cx="1429.64" cy="-87.55" r="64.55" gradientTransform="translate(320.38 174.77) scale(0.82 0.8)" gradientUnits="userSpaceOnUse"><stop offset="0" stop-color="#fff"/><stop offset="0.82" stop-color="#231f20"/></radialGradient><radialGradient id="radial-gradient-2" cx="1387.44" cy="-115.49" r="64.5" xlink:href="#radial-gradient"/><radialGradient id="radial-gradient-3" cx="1352.36" cy="-97.35" r="84.49" xlink:href="#radial-gradient"/><radialGradient id="radial-gradient-4" cx="1316.42" cy="-123.17" r="51.29" xlink:href="#radial-gradient"/><radialGradient id="radial-gradient-5" cx="1299.72" cy="-75.98" r="51.83" xlink:href="#radial-gradient"/><radialGradient id="radial-gradient-6" cx="1277.07" cy="-102.44" r="47.84" xlink:href="#radial-gradient"/><radialGradient id="radial-gradient-7" cx="1265.35" cy="-118.48" r="101.02" xlink:href="#radial-gradient"/><radialGradient id="radial-gradient-8" cx="1232.33" cy="-63.52" r="90.55" xlink:href="#radial-gradient"/><radialGradient id="radial-gradient-9" cx="1237.75" cy="-127.03" r="50.46" xlink:href="#radial-gradient"/><radialGradient id="radial-gradient-10" cx="1193.48" cy="-118.14" r="60.16" xlink:href="#radial-gradient"/><radialGradient id="radial-gradient-11" cx="1185.32" cy="-99.92" r="109.13" xlink:href="#radial-gradient"/><radialGradient id="radial-gradient-12" cx="1177.21" cy="-73.88" r="108.33" xlink:href="#radial-gradient"/><radialGradient id="radial-gradient-13" cx="1158.42" cy="-65.89" r="95.6" xlink:href="#radial-gradient"/><radialGradient id="radial-gradient-14" cx="1107.35" cy="-85.87" r="44.28" xlink:href="#radial-gradient"/><radialGradient id="radial-gradient-15" cx="1082.48" cy="-85.87" r="75.84" xlink:href="#radial-gradient"/><radialGradient id="radial-gradient-16" cx="1029" cy="-90.71" r="65.89" xlink:href="#radial-gradient"/><radialGradient id="radial-gradient-17" cx="1059.09" cy="454.76" r="55.41" gradientTransform="translate(-944.74 -374.94) scale(1.86 1.59)" xlink:href="#radial-gradient"/><radialGradient id="radial-gradient-18" cx="1026.39" cy="414.27" r="51.85" gradientTransform="translate(-944.74 -374.94) scale(1.86 1.59)" xlink:href="#radial-gradient"/><radialGradient id="radial-gradient-19" cx="998.06" cy="437.66" r="73.38" gradientTransform="translate(-944.74 -374.94) scale(1.86 1.59)" xlink:href="#radial-gradient"/><radialGradient id="radial-gradient-20" cx="918.22" cy="412.21" r="98.37" gradientTransform="translate(-944.74 -374.94) scale(1.86 1.59)" xlink:href="#radial-gradient"/><radialGradient id="radial-gradient-21" cx="965.44" cy="465.85" r="61.5" gradientTransform="translate(-944.74 -374.94) scale(1.86 1.59)" xlink:href="#radial-gradient"/><radialGradient id="radial-gradient-22" cx="937.04" cy="456.75" r="64.63" gradientTransform="translate(-944.74 -374.94) scale(1.86 1.59)" xlink:href="#radial-gradient"/><radialGradient id="radial-gradient-23" cx="919.95" cy="453.63" r="88.01" gradientTransform="translate(-944.74 -374.94) scale(1.86 1.59)" xlink:href="#radial-gradient"/><radialGradient id="radial-gradient-24" cx="900.4" cy="431.29" r="92.83" gradientTransform="translate(-944.74 -374.94) scale(1.86 1.59)" xlink:href="#radial-gradient"/><radialGradient id="radial-gradient-25" cx="863.96" cy="453.21" r="105.16" gradientTransform="translate(-944.74 -374.94) scale(1.86 1.59)" xlink:href="#radial-gradient"/><radialGradient id="radial-gradient-26" cx="833.04" cy="460.23" r="47.54" gradientTransform="translate(-944.74 -374.94) scale(1.86 1.59)" xlink:href="#radial-gradient"/><radialGradient id="radial-gradient-27" cx="849.23" cy="406.07" r="68.3" gradientTransform="translate(-944.74 -374.94) scale(1.86 1.59)" xlink:href="#radial-gradient"/><radialGradient id="radial-gradient-28" cx="821.1" cy="399.21" r="63" gradientTransform="translate(-944.74 -374.94) scale(1.86 1.59)" xlink:href="#radial-gradient"/><radialGradient id="radial-gradient-29" cx="789.17" cy="431.57" r="76.89" gradientTransform="translate(-944.74 -374.94) scale(1.86 1.59)" xlink:href="#radial-gradient"/><radialGradient id="radial-gradient-30" cx="782.94" cy="367.34" r="74.48" gradientTransform="translate(-944.74 -374.94) scale(1.86 1.59)" xlink:href="#radial-gradient"/><radialGradient id="radial-gradient-31" cx="744.72" cy="429.5" r="105.69" gradientTransform="translate(-944.74 -374.94) scale(1.86 1.59)" xlink:href="#radial-gradient"/><radialGradient id="radial-gradient-32" cx="709.78" cy="413.2" r="49.88" gradientTransform="translate(-944.74 -374.94) scale(1.86 1.59)" xlink:href="#radial-gradient"/><radialGradient id="radial-gradient-33" cx="688.72" cy="391.72" r="57.41" gradientTransform="translate(-944.74 -374.94) scale(1.86 1.59)" xlink:href="#radial-gradient"/><radialGradient id="radial-gradient-34" cx="661.66" cy="434.38" r="57.74" gradientTransform="translate(-944.74 -374.94) scale(1.86 1.59)" xlink:href="#radial-gradient"/><radialGradient id="radial-gradient-35" cx="625.21" cy="395.87" r="56.97" gradientTransform="translate(-944.74 -374.94) scale(1.86 1.59)" xlink:href="#radial-gradient"/><radialGradient id="radial-gradient-36" cx="631.31" cy="459.49" r="57.37" gradientTransform="translate(-944.74 -374.94) scale(1.86 1.59)" xlink:href="#radial-gradient"/><radialGradient id="radial-gradient-37" cx="597.36" cy="438.59" r="70.09" gradientTransform="translate(-944.74 -374.94) scale(1.86 1.59)" xlink:href="#radial-gradient"/><radialGradient id="radial-gradient-38" cx="675.84" cy="480.24" r="62.98" gradientTransform="translate(-944.74 -374.94) scale(1.86 1.59)" xlink:href="#radial-gradient"/><radialGradient id="radial-gradient-39" cx="692.51" cy="452.18" r="47.5" gradientTransform="translate(-944.74 -374.94) scale(1.86 1.59)" xlink:href="#radial-gradient"/><radialGradient id="radial-gradient-40" cx="705.47" cy="438.18" r="87.52" gradientTransform="translate(-944.74 -374.94) scale(1.86 1.59)" xlink:href="#radial-gradient"/><radialGradient id="radial-gradient-41" cx="706.23" cy="426.16" r="41.43" gradientTransform="translate(-944.74 -374.94) scale(1.86 1.59)" xlink:href="#radial-gradient"/><radialGradient id="radial-gradient-42" cx="685.3" cy="365.74" r="63.29" gradientTransform="translate(-944.74 -374.94) scale(1.86 1.59)" xlink:href="#radial-gradient"/><radialGradient id="radial-gradient-43" cx="675.78" cy="401.43" r="51.38" gradientTransform="translate(-944.74 -374.94) scale(1.86 1.59)" xlink:href="#radial-gradient"/><radialGradient id="radial-gradient-44" cx="644.72" cy="418.49" r="74.07" gradientTransform="translate(-944.74 -374.94) scale(1.86 1.59)" xlink:href="#radial-gradient"/><radialGradient id="radial-gradient-45" cx="611.75" cy="374.63" r="43.66" gradientTransform="translate(-944.74 -374.94) scale(1.86 1.59)" xlink:href="#radial-gradient"/><radialGradient id="radial-gradient-46" cx="593.46" cy="416.48" r="83.68" gradientTransform="translate(-944.74 -374.94) scale(1.86 1.59)" xlink:href="#radial-gradient"/><radialGradient id="radial-gradient-47" cx="2967.15" cy="473.45" r="67.3" gradientTransform="matrix(0.99, -0.17, 0.17, 0.99, -34.37, 466.07)" xlink:href="#radial-gradient"/><radialGradient id="radial-gradient-48" cx="2951.47" cy="483.89" r="83.88" gradientTransform="matrix(0.99, -0.17, 0.17, 0.99, -34.37, 466.07)" xlink:href="#radial-gradient"/><radialGradient id="radial-gradient-49" cx="2920.08" cy="436.61" r="52.18" gradientTransform="matrix(0.99, -0.17, 0.17, 0.99, -34.37, 466.07)" xlink:href="#radial-gradient"/><radialGradient id="radial-gradient-50" cx="2906.29" cy="455.6" r="58.83" gradientTransform="matrix(0.99, -0.17, 0.17, 0.99, -34.37, 466.07)" xlink:href="#radial-gradient"/><radialGradient id="radial-gradient-51" cx="2887.43" cy="476.52" r="85.31" gradientTransform="matrix(0.99, -0.17, 0.17, 0.99, -34.37, 466.07)" xlink:href="#radial-gradient"/><radialGradient id="radial-gradient-52" cx="2866.44" cy="440.34" r="77.05" gradientTransform="matrix(0.99, -0.17, 0.17, 0.99, -34.37, 466.07)" xlink:href="#radial-gradient"/><radialGradient id="radial-gradient-53" cx="2837.78" cy="490.87" r="109.79" gradientTransform="matrix(0.99, -0.17, 0.17, 0.99, -34.37, 466.07)" xlink:href="#radial-gradient"/><radialGradient id="radial-gradient-54" cx="2818.11" cy="489.46" r="47.79" gradientTransform="matrix(0.99, -0.17, 0.17, 0.99, -34.37, 466.07)" xlink:href="#radial-gradient"/><radialGradient id="radial-gradient-55" cx="2805.21" cy="450.2" r="99" gradientTransform="matrix(0.99, -0.17, 0.17, 0.99, -34.37, 466.07)" xlink:href="#radial-gradient"/><radialGradient id="radial-gradient-56" cx="2784.56" cy="440.54" r="83.25" gradientTransform="matrix(0.99, -0.17, 0.17, 0.99, -34.37, 466.07)" xlink:href="#radial-gradient"/><radialGradient id="radial-gradient-57" cx="2780.45" cy="407.05" r="90.25" gradientTransform="matrix(0.99, -0.17, 0.17, 0.99, -34.37, 466.07)" xlink:href="#radial-gradient"/><radialGradient id="radial-gradient-58" cx="2780.78" cy="414.07" r="98.32" gradientTransform="matrix(0.99, -0.17, 0.17, 0.99, -34.37, 466.07)" xlink:href="#radial-gradient"/><radialGradient id="radial-gradient-59" cx="2797.78" cy="437.68" r="75.22" gradientTransform="matrix(0.99, -0.17, 0.17, 0.99, -34.37, 466.07)" xlink:href="#radial-gradient"/><radialGradient id="radial-gradient-60" cx="2768.81" cy="453.1" r="70.06" gradientTransform="matrix(0.99, -0.17, 0.17, 0.99, -34.37, 466.07)" xlink:href="#radial-gradient"/><radialGradient id="radial-gradient-61" cx="2797.02" cy="501.19" r="93.58" gradientTransform="matrix(0.99, -0.17, 0.17, 0.99, -34.37, 466.07)" xlink:href="#radial-gradient"/><radialGradient id="radial-gradient-62" cx="2762.93" cy="486.06" r="69.74" gradientTransform="matrix(0.99, -0.17, 0.17, 0.99, -34.37, 466.07)" xlink:href="#radial-gradient"/><radialGradient id="radial-gradient-63" cx="2741.47" cy="465.54" r="54.26" gradientTransform="matrix(0.99, -0.17, 0.17, 0.99, -34.37, 466.07)" xlink:href="#radial-gradient"/><radialGradient id="radial-gradient-64" cx="2727.67" cy="452.44" r="97.44" gradientTransform="matrix(0.99, -0.17, 0.17, 0.99, -34.37, 466.07)" xlink:href="#radial-gradient"/><radialGradient id="radial-gradient-65" cx="2715.5" cy="443.11" r="50.69" gradientTransform="matrix(0.99, -0.17, 0.17, 0.99, -34.37, 466.07)" xlink:href="#radial-gradient"/><radialGradient id="radial-gradient-66" cx="2703.93" cy="439.77" r="94.17" gradientTransform="matrix(0.99, -0.17, 0.17, 0.99, -34.37, 466.07)" xlink:href="#radial-gradient"/><radialGradient id="radial-gradient-67" cx="2663.53" cy="497.04" r="95.96" gradientTransform="matrix(0.99, -0.17, 0.17, 0.99, -34.37, 466.07)" xlink:href="#radial-gradient"/><radialGradient id="radial-gradient-68" cx="2682.2" cy="434.25" r="50.1" gradientTransform="matrix(0.99, -0.17, 0.17, 0.99, -34.37, 466.07)" xlink:href="#radial-gradient"/><radialGradient id="radial-gradient-69" cx="2652.41" cy="435.25" r="40.59" gradientTransform="matrix(0.99, -0.17, 0.17, 0.99, -34.37, 466.07)" xlink:href="#radial-gradient"/><radialGradient id="radial-gradient-70" cx="2650.59" cy="412.01" r="99.9" gradientTransform="matrix(0.99, -0.17, 0.17, 0.99, -34.37, 466.07)" xlink:href="#radial-gradient"/><radialGradient id="radial-gradient-71" cx="2628.98" cy="379.72" r="63.77" gradientTransform="matrix(0.99, -0.17, 0.17, 0.99, -34.37, 466.07)" xlink:href="#radial-gradient"/><radialGradient id="radial-gradient-72" cx="2638.91" cy="365.55" r="88.33" gradientTransform="matrix(0.99, -0.17, 0.17, 0.99, -34.37, 466.07)" xlink:href="#radial-gradient"/><radialGradient id="radial-gradient-73" cx="2623.69" cy="389.85" r="75.1" gradientTransform="matrix(0.99, -0.17, 0.17, 0.99, -34.37, 466.07)" xlink:href="#radial-gradient"/><radialGradient id="radial-gradient-74" cx="2591.26" cy="366.05" r="110.28" gradientTransform="matrix(0.99, -0.17, 0.17, 0.99, -34.37, 466.07)" xlink:href="#radial-gradient"/><radialGradient id="radial-gradient-75" cx="2580.92" cy="385.25" r="50.36" gradientTransform="matrix(0.99, -0.17, 0.17, 0.99, -34.37, 466.07)" xlink:href="#radial-gradient"/><radialGradient id="radial-gradient-76" cx="2580.87" cy="432.62" r="103.58" gradientTransform="matrix(0.99, -0.17, 0.17, 0.99, -34.37, 466.07)" xlink:href="#radial-gradient"/><radialGradient id="radial-gradient-77" cx="2557.87" cy="422.39" r="108.69" gradientTransform="matrix(0.99, -0.17, 0.17, 0.99, -34.37, 466.07)" xlink:href="#radial-gradient"/><radialGradient id="radial-gradient-78" cx="2527.23" cy="439.3" r="87.34" gradientTransform="matrix(0.99, -0.17, 0.17, 0.99, -34.37, 466.07)" xlink:href="#radial-gradient"/><radialGradient id="radial-gradient-79" cx="2575.17" cy="431.91" r="65.63" gradientTransform="matrix(0.99, -0.17, 0.17, 0.99, -34.37, 466.07)" xlink:href="#radial-gradient"/><radialGradient id="radial-gradient-80" cx="2612.76" cy="445.7" r="103.89" gradientTransform="matrix(0.99, -0.17, 0.17, 0.99, -34.37, 466.07)" xlink:href="#radial-gradient"/><radialGradient id="radial-gradient-81" cx="2549.39" cy="460.81" r="82.38" gradientTransform="matrix(0.99, -0.17, 0.17, 0.99, -34.37, 466.07)" xlink:href="#radial-gradient"/><radialGradient id="radial-gradient-82" cx="2543.73" cy="406.8" r="88.13" gradientTransform="matrix(0.99, -0.17, 0.17, 0.99, -34.37, 466.07)" xlink:href="#radial-gradient"/><radialGradient id="radial-gradient-83" cx="2516.67" cy="452.27" r="46.96" gradientTransform="matrix(0.99, -0.17, 0.17, 0.99, -34.37, 466.07)" xlink:href="#radial-gradient"/><radialGradient id="radial-gradient-84" cx="2498.3" cy="409.55" r="89.68" gradientTransform="matrix(0.99, -0.17, 0.17, 0.99, -34.37, 466.07)" xlink:href="#radial-gradient"/><radialGradient id="radial-gradient-85" cx="2477.25" cy="445" r="81.32" gradientTransform="matrix(0.99, -0.17, 0.17, 0.99, -34.37, 466.07)" xlink:href="#radial-gradient"/><radialGradient id="radial-gradient-86" cx="2453.68" cy="437.27" r="70.98" gradientTransform="matrix(0.99, -0.17, 0.17, 0.99, -34.37, 466.07)" xlink:href="#radial-gradient"/><radialGradient id="radial-gradient-87" cx="2431.78" cy="446.58" r="82.12" gradientTransform="matrix(0.99, -0.17, 0.17, 0.99, -34.37, 466.07)" xlink:href="#radial-gradient"/><radialGradient id="radial-gradient-88" cx="2402.7" cy="414.04" r="101.09" gradientTransform="matrix(0.99, -0.17, 0.17, 0.99, -34.37, 466.07)" xlink:href="#radial-gradient"/><radialGradient id="radial-gradient-89" cx="2374.98" cy="403.33" r="48.02" gradientTransform="matrix(0.99, -0.17, 0.17, 0.99, -34.37, 466.07)" xlink:href="#radial-gradient"/><radialGradient id="radial-gradient-90" cx="2351" cy="417.2" r="78.07" gradientTransform="matrix(0.99, -0.17, 0.17, 0.99, -34.37, 466.07)" xlink:href="#radial-gradient"/><radialGradient id="radial-gradient-91" cx="2335.39" cy="445.01" r="50.85" gradientTransform="matrix(0.99, -0.17, 0.17, 0.99, -34.37, 466.07)" xlink:href="#radial-gradient"/><radialGradient id="radial-gradient-92" cx="4446.23" cy="633.32" r="64.38" gradientTransform="translate(-3750.02 -390.11) scale(1.73 1.64)" xlink:href="#radial-gradient"/><radialGradient id="radial-gradient-93" cx="4404.03" cy="605.37" r="64.33" gradientTransform="translate(-3750.02 -390.11) scale(1.73 1.64)" xlink:href="#radial-gradient"/><radialGradient id="radial-gradient-94" cx="4368.94" cy="623.52" r="84.27" gradientTransform="translate(-3750.02 -390.11) scale(1.73 1.64)" xlink:href="#radial-gradient"/><radialGradient id="radial-gradient-95" cx="4333" cy="597.7" r="51.15" gradientTransform="translate(-3750.02 -390.11) scale(1.73 1.64)" xlink:href="#radial-gradient"/><radialGradient id="radial-gradient-96" cx="4316.31" cy="644.88" r="51.69" gradientTransform="translate(-3750.02 -390.11) scale(1.73 1.64)" xlink:href="#radial-gradient"/><radialGradient id="radial-gradient-97" cx="4293.66" cy="618.43" r="47.71" gradientTransform="translate(-3750.02 -390.11) scale(1.73 1.64)" xlink:href="#radial-gradient"/><radialGradient id="radial-gradient-98" cx="4281.94" cy="602.39" r="100.76" gradientTransform="translate(-3750.02 -390.11) scale(1.73 1.64)" xlink:href="#radial-gradient"/><radialGradient id="radial-gradient-99" cx="4248.92" cy="657.34" r="90.32" gradientTransform="translate(-3750.02 -390.11) scale(1.73 1.64)" xlink:href="#radial-gradient"/><radialGradient id="radial-gradient-100" cx="4254.33" cy="593.83" r="50.33" gradientTransform="translate(-3750.02 -390.11) scale(1.73 1.64)" xlink:href="#radial-gradient"/><radialGradient id="radial-gradient-101" cx="4210.07" cy="602.73" r="60.01" gradientTransform="translate(-3750.02 -390.11) scale(1.73 1.64)" xlink:href="#radial-gradient"/><radialGradient id="radial-gradient-102" cx="4201.91" cy="620.95" r="108.85" gradientTransform="translate(-3750.02 -390.11) scale(1.73 1.64)" xlink:href="#radial-gradient"/><radialGradient id="radial-gradient-103" cx="4193.79" cy="646.99" r="108.05" gradientTransform="translate(-3750.02 -390.11) scale(1.73 1.64)" xlink:href="#radial-gradient"/><radialGradient id="radial-gradient-104" cx="4175.01" cy="654.97" r="95.36" gradientTransform="translate(-3750.02 -390.11) scale(1.73 1.64)" xlink:href="#radial-gradient"/><radialGradient id="radial-gradient-105" cx="4123.94" cy="635" r="44.17" gradientTransform="translate(-3750.02 -390.11) scale(1.73 1.64)" xlink:href="#radial-gradient"/><radialGradient id="radial-gradient-106" cx="4099.07" cy="635" r="75.64" gradientTransform="translate(-3750.02 -390.11) scale(1.73 1.64)" xlink:href="#radial-gradient"/><radialGradient id="radial-gradient-107" cx="4045.59" cy="630.16" r="65.72" gradientTransform="translate(-3750.02 -390.11) scale(1.73 1.64)" xlink:href="#radial-gradient"/></defs><g style="isolation:isolate"><g id="Layer_2" data-name="Layer 2"><g id="CloudsNear"><g style="opacity:0.8300000000000001"><path d="M1539.61,104.83c-1.17,68.26-104.9,68.25-106.06,0C1434.72,36.56,1538.45,36.57,1539.61,104.83Z" style="mix-blend-mode:screen;fill:url(#radial-gradient)"/><path d="M1505.14,82.5c-1.17,68.22-104.82,68.21-106,0C1400.33,14.29,1504,14.3,1505.14,82.5Z" style="mix-blend-mode:screen;fill:url(#radial-gradient-2)"/><path d="M1493,97c-1.54,89.36-137.31,89.34-138.84,0C1355.65,7.64,1491.43,7.65,1493,97Z" style="mix-blend-mode:screen;fill:url(#radial-gradient-3)"/><path d="M1436.35,76.37c-.93,54.24-83.35,54.23-84.27,0C1353,22.13,1435.43,22.14,1436.35,76.37Z" style="mix-blend-mode:screen;fill:url(#radial-gradient-4)"/><path d="M1423.18,114.07c-1,54.81-84.23,54.8-85.17,0C1339,59.26,1422.24,59.26,1423.18,114.07Z" style="mix-blend-mode:screen;fill:url(#radial-gradient-5)"/><path d="M1401.42,92.93c-.87,50.6-77.74,50.59-78.6,0C1323.69,42.34,1400.56,42.35,1401.42,92.93Z" style="mix-blend-mode:screen;fill:url(#radial-gradient-6)"/><path d="M1435.55,80.12c-1.83,106.84-164.16,106.82-166,0C1271.4-26.71,1433.73-26.7,1435.55,80.12Z" style="mix-blend-mode:screen;fill:url(#radial-gradient-7)"/><path d="M1400,124c-1.65,95.77-147.16,95.76-148.79,0C1252.87,28.25,1398.39,28.27,1400,124Z" style="mix-blend-mode:screen;fill:url(#radial-gradient-8)"/><path d="M1371.49,73.28c-.91,53.37-82,53.36-82.9,0C1289.5,19.92,1370.59,19.93,1371.49,73.28Z" style="mix-blend-mode:screen;fill:url(#radial-gradient-9)"/><path d="M1343.36,80.39c-1.09,63.63-97.77,63.62-98.85,0C1245.6,16.76,1342.28,16.77,1343.36,80.39Z" style="mix-blend-mode:screen;fill:url(#radial-gradient-10)"/><path d="M1376.94,95c-2,115.41-177.35,115.39-179.32,0C1199.61-20.46,1375-20.44,1376.94,95Z" style="mix-blend-mode:screen;fill:url(#radial-gradient-11)"/><path d="M1369.66,115.75c-2,114.56-176.05,114.55-178,0C1193.63,1.18,1367.7,1.2,1369.66,115.75Z" style="mix-blend-mode:screen;fill:url(#radial-gradient-12)"/><path d="M1343.88,122.13c-1.74,101.11-155.37,101.09-157.09,0C1188.52,21,1342.16,21,1343.88,122.13Z" style="mix-blend-mode:screen;fill:url(#radial-gradient-13)"/><path d="M1260.06,106.17c-.81,46.83-72,46.83-72.77,0C1188.1,59.33,1259.26,59.34,1260.06,106.17Z" style="mix-blend-mode:screen;fill:url(#radial-gradient-14)"/><path d="M1265.69,106.17c-1.38,80.2-123.24,80.19-124.61,0C1142.46,26,1264.32,26,1265.69,106.17Z" style="mix-blend-mode:screen;fill:url(#radial-gradient-15)"/><path d="M1213.9,102.31c-1.2,69.68-107.08,69.67-108.27,0C1106.83,32.62,1212.71,32.63,1213.9,102.31Z" style="mix-blend-mode:screen;fill:url(#radial-gradient-16)"/></g><g style="opacity:0.92"><path d="M1125.11,346.78c-.36,116.06-207.43,116.05-207.77,0C917.7,230.72,1124.77,230.74,1125.11,346.78Z" style="mix-blend-mode:screen;fill:url(#radial-gradient-17)"/><path d="M1057.74,282.53c-.34,108.6-194.11,108.59-194.43,0C863.65,173.93,1057.41,173.94,1057.74,282.53Z" style="mix-blend-mode:screen;fill:url(#radial-gradient-18)"/><path d="M1045.53,319.65c-.48,153.71-274.73,153.7-275.18,0C770.83,165.94,1045.08,166,1045.53,319.65Z" style="mix-blend-mode:screen;fill:url(#radial-gradient-19)"/><path d="M944.18,279.25c-.65,206.05-368.29,206-368.9,0C575.93,73.2,943.57,73.22,944.18,279.25Z" style="mix-blend-mode:screen;fill:url(#radial-gradient-20)"/><path d="M962.7,364.39c-.4,128.82-230.25,128.81-230.63,0C732.47,235.56,962.32,235.58,962.7,364.39Z" style="mix-blend-mode:screen;fill:url(#radial-gradient-21)"/><path d="M915.83,350c-.42,135.37-241.94,135.35-242.35,0C673.91,214.58,915.43,214.59,915.83,350Z" style="mix-blend-mode:screen;fill:url(#radial-gradient-22)"/><path d="M928,345c-.58,184.35-329.5,184.33-330.05,0C598.5,160.64,927.43,160.66,928,345Z" style="mix-blend-mode:screen;fill:url(#radial-gradient-23)"/><path d="M900.7,309.55c-.61,194.43-347.53,194.41-348.1,0C553.2,115.11,900.12,115.13,900.7,309.55Z" style="mix-blend-mode:screen;fill:url(#radial-gradient-24)"/><path d="M856.18,344.33c-.69,220.27-393.69,220.25-394.35,0C462.52,124.06,855.53,124.09,856.18,344.33Z" style="mix-blend-mode:screen;fill:url(#radial-gradient-25)"/><path d="M690.76,355.47c-.31,99.58-178,99.57-178.29,0C512.79,255.88,690.47,255.89,690.76,355.47Z" style="mix-blend-mode:screen;fill:url(#radial-gradient-26)"/><path d="M759.73,269.51c-.45,143.07-255.71,143.05-256.13,0C504.05,126.45,759.31,126.46,759.73,269.51Z" style="mix-blend-mode:screen;fill:url(#radial-gradient-27)"/><path d="M697.58,258.63c-.41,132-235.87,132-236.26,0C461.73,126.66,697.19,126.67,697.58,258.63Z" style="mix-blend-mode:screen;fill:url(#radial-gradient-28)"/><path d="M664.35,310c-.5,161.06-287.86,161-288.34,0C376.52,148.94,663.87,149,664.35,310Z" style="mix-blend-mode:screen;fill:url(#radial-gradient-29)"/><path d="M648.28,208.05c-.49,156-278.86,156-279.32,0C369.45,52,647.82,52.05,648.28,208.05Z" style="mix-blend-mode:screen;fill:url(#radial-gradient-30)"/><path d="M635.84,306.7c-.69,221.39-395.69,221.36-396.35,0C240.18,85.31,635.19,85.33,635.84,306.7Z" style="mix-blend-mode:screen;fill:url(#radial-gradient-31)"/><path d="M466.34,280.83c-.33,104.48-186.74,104.47-187,0C279.62,176.36,466,176.37,466.34,280.83Z" style="mix-blend-mode:screen;fill:url(#radial-gradient-32)"/><path d="M441.36,246.74C441,367,226.43,367,226.07,246.73,226.45,126.49,441,126.5,441.36,246.74Z" style="mix-blend-mode:screen;fill:url(#radial-gradient-33)"/><path d="M391.76,314.44c-.38,121-216.18,120.94-216.53,0C175.6,193.5,391.4,193.51,391.76,314.44Z" style="mix-blend-mode:screen;fill:url(#radial-gradient-34)"/><path d="M322.64,253.33c-.37,119.32-213.28,119.31-213.63,0C109.39,134,322.29,134,322.64,253.33Z" style="mix-blend-mode:screen;fill:url(#radial-gradient-35)"/><path d="M334.72,354.29c-.38,120.17-214.78,120.15-215.14,0C120,234.12,334.37,234.13,334.72,354.29Z" style="mix-blend-mode:screen;fill:url(#radial-gradient-36)"/><path d="M295.54,321.13c-.46,146.82-262.41,146.8-262.84,0C33.16,174.31,295.11,174.33,295.54,321.13Z" style="mix-blend-mode:screen;fill:url(#radial-gradient-37)"/><path d="M427.9,387.23c-.41,131.92-235.79,131.91-236.18,0C192.14,255.31,427.51,255.32,427.9,387.23Z" style="mix-blend-mode:screen;fill:url(#radial-gradient-38)"/><path d="M429.8,342.69c-.31,99.49-177.82,99.48-178.11,0C252,243.21,429.5,243.22,429.8,342.69Z" style="mix-blend-mode:screen;fill:url(#radial-gradient-39)"/><path d="M528.91,320.48c-.58,183.32-327.66,183.3-328.2,0C201.29,137.16,528.36,137.18,528.91,320.48Z" style="mix-blend-mode:screen;fill:url(#radial-gradient-40)"/><path d="M443.91,301.4c-.28,86.77-155.11,86.77-155.36,0C288.82,214.62,443.65,214.63,443.91,301.4Z" style="mix-blend-mode:screen;fill:url(#radial-gradient-41)"/><path d="M446,205.51c-.41,132.57-237,132.56-237.35,0C209.1,72.93,445.64,72.94,446,205.51Z" style="mix-blend-mode:screen;fill:url(#radial-gradient-42)"/><path d="M406,262.15c-.33,107.62-192.35,107.61-192.67,0C213.7,154.53,405.72,154.54,406,262.15Z" style="mix-blend-mode:screen;fill:url(#radial-gradient-43)"/><path d="M390.93,289.22c-.49,155.15-277.31,155.13-277.77,0C113.65,134.07,390.47,134.09,390.93,289.22Z" style="mix-blend-mode:screen;fill:url(#radial-gradient-44)"/><path d="M272.7,219.62c-.29,91.45-163.45,91.44-163.72,0C109.26,128.17,272.43,128.18,272.7,219.62Z" style="mix-blend-mode:screen;fill:url(#radial-gradient-45)"/><path d="M313.79,286C313.24,461.3.52,461.29,0,286,.55,110.76,313.27,110.78,313.79,286Z" style="mix-blend-mode:screen;fill:url(#radial-gradient-46)"/></g><g style="mix-blend-mode:screen;opacity:0.9500000000000001"><g style="mix-blend-mode:screen"><path d="M3036.84,415c13.7,88.05-116.89,110.64-133.57,23.12C2889.57,350.06,3020.16,327.47,3036.84,415Z" style="fill:url(#radial-gradient-47)"/></g><g style="mix-blend-mode:screen"><path d="M3039.63,425.1c17.07,109.74-145.69,137.89-166.48,28.81C2856.08,344.17,3018.84,316,3039.63,425.1Z" style="fill:url(#radial-gradient-48)"/></g><g style="mix-blend-mode:screen"><path d="M2969.17,389.31c10.62,68.27-90.62,85.78-103.56,17.92C2855,339,2956.24,321.46,2969.17,389.31Z" style="fill:url(#radial-gradient-49)"/></g><g style="mix-blend-mode:screen"><path d="M2965.42,409.23c12,77-102.18,96.72-116.77,20.21C2836.68,352.47,2950.84,332.72,2965.42,409.23Z" style="fill:url(#radial-gradient-50)"/></g><g style="mix-blend-mode:screen"><path d="M2976.68,428.51c17.36,111.61-148.17,140.24-169.31,29.31C2790,346.21,2955.54,317.58,2976.68,428.51Z" style="fill:url(#radial-gradient-51)"/></g><g style="mix-blend-mode:screen"><path d="M2941.63,397.86c15.68,100.81-133.83,126.67-152.93,26.47C2773,323.52,2922.54,297.66,2941.63,397.86Z" style="fill:url(#radial-gradient-52)"/></g><g style="mix-blend-mode:screen"><path d="M2954.5,446.92c22.35,143.64-190.69,180.49-217.9,37.71C2714.26,341,2927.3,304.15,2954.5,446.92Z" style="fill:url(#radial-gradient-53)"/></g><g style="mix-blend-mode:screen"><path d="M2873.36,459.54c9.72,62.52-83,78.56-94.86,16.41C2768.78,413.43,2861.51,397.39,2873.36,459.54Z" style="fill:url(#radial-gradient-54)"/></g><g style="mix-blend-mode:screen"><path d="M2904.77,414.25c20.15,129.53-172,162.76-196.49,34C2688.13,318.73,2880.24,285.5,2904.77,414.25Z" style="fill:url(#radial-gradient-55)"/></g><g style="mix-blend-mode:screen"><path d="M2867.15,411c16.94,108.93-144.6,136.87-165.23,28.6C2685,330.64,2846.52,302.7,2867.15,411Z" style="fill:url(#radial-gradient-56)"/></g><g style="mix-blend-mode:screen"><path d="M2864.33,377.46c18.36,118.08-156.76,148.37-179.13,31C2666.84,290.39,2842,260.09,2864.33,377.46Z" style="fill:url(#radial-gradient-57)"/></g><g style="mix-blend-mode:screen"><path d="M2873.86,382.93c20,128.64-170.78,161.64-195.15,33.78C2658.7,288.07,2849.49,255.07,2873.86,382.93Z" style="fill:url(#radial-gradient-58)"/></g><g style="mix-blend-mode:screen"><path d="M2871.72,407.27c15.31,98.41-130.65,123.66-149.3,25.84C2707.12,334.7,2853.08,309.45,2871.72,407.27Z" style="fill:url(#radial-gradient-59)"/></g><g style="mix-blend-mode:screen"><path d="M2840.67,428.29c14.26,91.66-121.68,115.17-139,24.06C2687.37,360.69,2823.31,337.18,2840.67,428.29Z" style="fill:url(#radial-gradient-60)"/></g><g style="mix-blend-mode:screen"><path d="M2900,466.82c19,122.44-162.55,153.85-185.74,32.14C2695.24,376.53,2876.83,345.12,2900,466.82Z" style="fill:url(#radial-gradient-61)"/></g><g style="mix-blend-mode:screen"><path d="M2840.19,461.82c14.2,91.25-121.14,114.66-138.42,24C2687.58,394.53,2822.91,371.13,2840.19,461.82Z" style="fill:url(#radial-gradient-62)"/></g><g style="mix-blend-mode:screen"><path d="M2800.18,447.92c11,71-94.25,89.2-107.7,18.64C2681.44,395.57,2786.73,377.35,2800.18,447.92Z" style="fill:url(#radial-gradient-63)"/></g><g style="mix-blend-mode:screen"><path d="M2827.19,430C2847,557.43,2658,590.14,2633.81,463.42,2614,336,2803.05,303.25,2827.19,430Z" style="fill:url(#radial-gradient-64)"/></g><g style="mix-blend-mode:screen"><path d="M2767.23,430.86c10.31,66.32-88.05,83.34-100.61,17.41C2656.3,382,2754.66,364.94,2767.23,430.86Z" style="fill:url(#radial-gradient-65)"/></g><g style="mix-blend-mode:screen"><path d="M2798.4,422.08c19.16,123.21-163.57,154.81-186.91,32.35C2592.33,331.22,2775.06,299.62,2798.4,422.08Z" style="fill:url(#radial-gradient-66)"/></g><g style="mix-blend-mode:screen"><path d="M2770.13,485.1c19.53,125.54-166.67,157.75-190.46,33C2560.15,392.51,2746.35,360.3,2770.13,485.1Z" style="fill:url(#radial-gradient-67)"/></g><g style="mix-blend-mode:screen"><path d="M2732.31,427.91c10.2,65.56-87,82.37-99.44,17.21C2622.67,379.57,2719.9,362.76,2732.31,427.91Z" style="fill:url(#radial-gradient-68)"/></g><g style="mix-blend-mode:screen"><path d="M2693.69,435.62c8.26,53.1-70.5,66.73-80.56,13.94C2604.87,396.46,2683.63,382.83,2693.69,435.62Z" style="fill:url(#radial-gradient-69)"/></g><g style="mix-blend-mode:screen"><path d="M2746.8,402.84c20.33,130.71-173.52,164.24-198.28,34.32C2528.19,306.45,2722,272.92,2746.8,402.84Z" style="fill:url(#radial-gradient-70)"/></g><g style="mix-blend-mode:screen"><path d="M2684.13,380.91c13,83.42-110.76,104.83-126.56,21.9C2544.59,319.39,2668.32,298,2684.13,380.91Z" style="fill:url(#radial-gradient-71)"/></g><g style="mix-blend-mode:screen"><path d="M2715.88,361c18,115.57-153.42,145.21-175.31,30.34C2522.59,275.81,2694,246.16,2715.88,361Z" style="fill:url(#radial-gradient-72)"/></g><g style="mix-blend-mode:screen"><path d="M2691.9,389.85c15.28,98.26-130.45,123.47-149.06,25.79C2527.55,317.39,2673.29,292.18,2691.9,389.85Z" style="fill:url(#radial-gradient-73)"/></g><g style="mix-blend-mode:screen"><path d="M2690.79,365.89c22.44,144.28-191.54,181.29-218.88,37.88C2449.47,259.49,2663.46,222.48,2690.79,365.89Z" style="fill:url(#radial-gradient-74)"/></g><g style="mix-blend-mode:screen"><path d="M2624.42,396.85c10.25,65.89-87.47,82.8-100,17.3C2514.22,348.26,2611.94,331.36,2624.42,396.85Z" style="fill:url(#radial-gradient-75)"/></g><g style="mix-blend-mode:screen"><path d="M2685.25,434.4c21.08,135.52-179.9,170.28-205.57,35.58C2458.6,334.47,2659.58,299.71,2685.25,434.4Z" style="fill:url(#radial-gradient-76)"/></g><g style="mix-blend-mode:screen"><path d="M2665.93,427.37c22.12,142.21-188.79,178.69-215.73,37.33C2428.08,322.5,2639,286,2665.93,427.37Z" style="fill:url(#radial-gradient-77)"/></g><g style="mix-blend-mode:screen"><path d="M2617.42,452.93c17.78,114.26-151.7,143.58-173.34,30C2426.31,368.66,2595.78,339.35,2617.42,452.93Z" style="fill:url(#radial-gradient-78)"/></g><g style="mix-blend-mode:screen"><path d="M2641.87,441.19c13.35,85.87-114,107.9-130.26,22.55C2498.25,377.87,2625.6,355.85,2641.87,441.19Z" style="fill:url(#radial-gradient-79)"/></g><g style="mix-blend-mode:screen"><path d="M2719.22,441.8c21.15,135.92-180.44,170.79-206.19,35.68C2491.89,341.57,2693.48,306.7,2719.22,441.8Z" style="fill:url(#radial-gradient-80)"/></g><g style="mix-blend-mode:screen"><path d="M2638,471.19c16.76,107.79-143.09,135.44-163.51,28.3C2457.75,391.71,2617.6,364.06,2638,471.19Z" style="fill:url(#radial-gradient-81)"/></g><g style="mix-blend-mode:screen"><path d="M2628.93,418c17.93,115.3-153.07,144.88-174.91,30.27C2436.08,332.92,2607.09,303.34,2628.93,418Z" style="fill:url(#radial-gradient-82)"/></g><g style="mix-blend-mode:screen"><path d="M2569.16,474.44c9.55,61.43-81.56,77.2-93.2,16.13C2466.4,429.14,2557.52,413.38,2569.16,474.44Z" style="fill:url(#radial-gradient-83)"/></g><g style="mix-blend-mode:screen"><path d="M2586.17,428.14c18.25,117.33-155.77,147.43-178,30.8C2389.93,341.61,2564,311.51,2586.17,428.14Z" style="fill:url(#radial-gradient-84)"/></g><g style="mix-blend-mode:screen"><path d="M2563.18,468.09c16.55,106.4-141.24,133.69-161.4,27.93C2385.23,389.63,2543,362.34,2563.18,468.09Z" style="fill:url(#radial-gradient-85)"/></g><g style="mix-blend-mode:screen"><path d="M2528.37,466.28c14.44,92.86-123.28,116.69-140.87,24.38C2373.05,397.8,2510.78,374,2528.37,466.28Z" style="fill:url(#radial-gradient-86)"/></g><g style="mix-blend-mode:screen"><path d="M2519.44,477.27c16.71,107.44-142.63,135-163,28.2C2339.74,398,2499.09,370.47,2519.44,477.27Z" style="fill:url(#radial-gradient-87)"/></g><g style="mix-blend-mode:screen"><path d="M2504.06,446.91c20.57,132.26-175.58,166.18-200.64,34.72C2282.85,349.38,2479,315.45,2504.06,446.91Z" style="fill:url(#radial-gradient-88)"/></g><g style="mix-blend-mode:screen"><path d="M2422.26,450.2c9.77,62.83-83.41,78.94-95.31,16.49C2317.18,403.87,2410.36,387.75,2422.26,450.2Z" style="fill:url(#radial-gradient-89)"/></g><g style="mix-blend-mode:screen"><path d="M2430.81,462.79c15.89,102.14-135.6,128.34-154.94,26.82C2260,387.47,2411.46,361.27,2430.81,462.79Z" style="fill:url(#radial-gradient-90)"/></g><g style="mix-blend-mode:screen"><path d="M2393.17,497.54c10.35,66.53-88.33,83.6-100.93,17.46C2281.89,448.47,2380.57,431.4,2393.17,497.54Z" style="fill:url(#radial-gradient-91)"/></g></g><g style="opacity:0.96"><path d="M4055.2,645.81c-.58,139-224.41,139-225,0C3830.82,506.79,4054.64,506.8,4055.2,645.81Z" style="mix-blend-mode:screen;fill:url(#radial-gradient-92)"/><path d="M3982.09,600.11c-.58,138.92-224.24,138.91-224.79,0C3757.87,461.19,3981.53,461.2,3982.09,600.11Z" style="mix-blend-mode:screen;fill:url(#radial-gradient-93)"/><path d="M3956.23,629.78c-.75,182-293.74,182-294.47,0C3662.51,447.79,3955.51,447.81,3956.23,629.78Z" style="mix-blend-mode:screen;fill:url(#radial-gradient-94)"/><path d="M3836.18,587.56c-.45,110.46-178.29,110.45-178.73,0C3657.9,477.09,3835.74,477.1,3836.18,587.56Z" style="mix-blend-mode:screen;fill:url(#radial-gradient-95)"/><path d="M3808.24,664.73c-.46,111.63-180.18,111.62-180.63,0C3628.08,553.1,3807.8,553.11,3808.24,664.73Z" style="mix-blend-mode:screen;fill:url(#radial-gradient-96)"/><path d="M3762.11,621.46c-.43,103-166.32,103-166.73,0C3595.81,518.42,3761.7,518.43,3762.11,621.46Z" style="mix-blend-mode:screen;fill:url(#radial-gradient-97)"/><path d="M3834.5,595.23c-.9,217.58-351.2,217.56-352.07,0C3483.33,377.65,3833.63,377.67,3834.5,595.23Z" style="mix-blend-mode:screen;fill:url(#radial-gradient-98)"/><path d="M3759.13,685.11c-.81,195-314.82,195-315.6,0C3444.34,490.07,3758.35,490.09,3759.13,685.11Z" style="mix-blend-mode:screen;fill:url(#radial-gradient-99)"/><path d="M3698.63,581.23c-.45,108.68-175.42,108.67-175.85,0C3523.23,472.55,3698.19,472.56,3698.63,581.23Z" style="mix-blend-mode:screen;fill:url(#radial-gradient-100)"/><path d="M3639,595.78c-.53,129.58-209.16,129.57-209.67,0C3429.81,466.2,3638.44,466.21,3639,595.78Z" style="mix-blend-mode:screen;fill:url(#radial-gradient-101)"/><path d="M3710.17,625.59c-1,235-379.39,235-380.33,0C3330.81,390.54,3709.23,390.56,3710.17,625.59Z" style="mix-blend-mode:screen;fill:url(#radial-gradient-102)"/><path d="M3694.73,668.17c-1,233.33-376.61,233.31-377.54,0C3318.15,434.85,3693.8,434.87,3694.73,668.17Z" style="mix-blend-mode:screen;fill:url(#radial-gradient-103)"/><path d="M3640.06,681.24c-.85,205.92-332.38,205.9-333.2,0C3307.71,475.31,3639.24,475.33,3640.06,681.24Z" style="mix-blend-mode:screen;fill:url(#radial-gradient-104)"/><path d="M3462.27,648.56c-.39,95.39-154,95.38-154.34,0C3308.32,553.17,3461.89,553.18,3462.27,648.56Z" style="mix-blend-mode:screen;fill:url(#radial-gradient-105)"/><path d="M3474.21,648.56c-.67,163.34-263.65,163.33-264.3,0C3210.59,485.22,3473.56,485.23,3474.21,648.56Z" style="mix-blend-mode:screen;fill:url(#radial-gradient-106)"/><path d="M3364.36,640.65c-.58,141.93-229.08,141.91-229.64,0C3135.31,498.73,3363.8,498.74,3364.36,640.65Z" style="mix-blend-mode:screen;fill:url(#radial-gradient-107)"/></g></g></g></g></svg>