<svg xmlns="http://www.w3.org/2000/svg" xmlns:xlink="http://www.w3.org/1999/xlink" viewBox="0 0 3159.85 803.83"><defs><radialGradient id="radial-gradient" cx="535.16" cy="602.77" r="30.64" gradientTransform="translate(631.4 251.95) scale(0.88 0.72)" gradientUnits="userSpaceOnUse"><stop offset="0" stop-color="#fff"/><stop offset="0.82" stop-color="#231f20"/></radialGradient><radialGradient id="radial-gradient-2" cx="518.42" cy="616.6" r="43.37" xlink:href="#radial-gradient"/><radialGradient id="radial-gradient-3" cx="471.23" cy="601.55" r="58.14" xlink:href="#radial-gradient"/><radialGradient id="radial-gradient-4" cx="499.14" cy="633.26" r="36.35" xlink:href="#radial-gradient"/><radialGradient id="radial-gradient-5" cx="482.35" cy="627.88" r="38.19" xlink:href="#radial-gradient"/><radialGradient id="radial-gradient-6" cx="472.25" cy="626.04" r="52.01" xlink:href="#radial-gradient"/><radialGradient id="radial-gradient-7" cx="460.7" cy="612.83" r="54.86" xlink:href="#radial-gradient"/><radialGradient id="radial-gradient-8" cx="439.16" cy="625.79" r="62.15" xlink:href="#radial-gradient"/><radialGradient id="radial-gradient-9" cx="420.89" cy="629.94" r="28.1" xlink:href="#radial-gradient"/><radialGradient id="radial-gradient-10" cx="430.45" cy="597.92" r="40.36" xlink:href="#radial-gradient"/><radialGradient id="radial-gradient-11" cx="413.83" cy="593.87" r="37.23" xlink:href="#radial-gradient"/><radialGradient id="radial-gradient-12" cx="394.96" cy="613" r="45.44" xlink:href="#radial-gradient"/><radialGradient id="radial-gradient-13" cx="391.27" cy="575.04" r="44.02" xlink:href="#radial-gradient"/><radialGradient id="radial-gradient-14" cx="368.68" cy="611.77" r="62.46" xlink:href="#radial-gradient"/><radialGradient id="radial-gradient-15" cx="348.03" cy="602.14" r="29.48" xlink:href="#radial-gradient"/><radialGradient id="radial-gradient-16" cx="335.58" cy="589.44" r="33.93" xlink:href="#radial-gradient"/><radialGradient id="radial-gradient-17" cx="319.59" cy="614.66" r="34.12" xlink:href="#radial-gradient"/><radialGradient id="radial-gradient-18" cx="298.05" cy="591.9" r="33.67" xlink:href="#radial-gradient"/><radialGradient id="radial-gradient-19" cx="301.65" cy="629.5" r="33.9" xlink:href="#radial-gradient"/><radialGradient id="radial-gradient-20" cx="281.58" cy="617.15" r="41.42" xlink:href="#radial-gradient"/><radialGradient id="radial-gradient-21" cx="327.97" cy="641.77" r="37.22" xlink:href="#radial-gradient"/><radialGradient id="radial-gradient-22" cx="337.82" cy="625.18" r="28.07" xlink:href="#radial-gradient"/><radialGradient id="radial-gradient-23" cx="345.48" cy="616.91" r="51.72" xlink:href="#radial-gradient"/><radialGradient id="radial-gradient-24" cx="345.93" cy="609.8" r="24.48" xlink:href="#radial-gradient"/><radialGradient id="radial-gradient-25" cx="333.56" cy="574.09" r="37.41" xlink:href="#radial-gradient"/><radialGradient id="radial-gradient-26" cx="327.93" cy="595.18" r="30.36" xlink:href="#radial-gradient"/><radialGradient id="radial-gradient-27" cx="309.58" cy="605.26" r="43.77" xlink:href="#radial-gradient"/><radialGradient id="radial-gradient-28" cx="290.09" cy="579.34" r="25.8" xlink:href="#radial-gradient"/><radialGradient id="radial-gradient-29" cx="279.28" cy="604.08" r="49.45" xlink:href="#radial-gradient"/><radialGradient id="radial-gradient-30" cx="400.04" cy="626.88" r="55.41" gradientTransform="matrix(-0.81, 0.06, -0.06, -0.72, 406.19, 1131.89)" xlink:href="#radial-gradient"/><radialGradient id="radial-gradient-31" cx="367.34" cy="586.39" r="51.85" gradientTransform="matrix(-0.81, 0.06, -0.06, -0.72, 406.19, 1131.89)" xlink:href="#radial-gradient"/><radialGradient id="radial-gradient-32" cx="339.01" cy="609.78" r="73.39" gradientTransform="matrix(-0.81, 0.06, -0.06, -0.72, 406.19, 1131.89)" xlink:href="#radial-gradient"/><radialGradient id="radial-gradient-33" cx="259.17" cy="584.32" r="98.38" gradientTransform="matrix(-0.81, 0.06, -0.06, -0.72, 406.19, 1131.89)" xlink:href="#radial-gradient"/><radialGradient id="radial-gradient-34" cx="306.39" cy="637.97" r="61.51" gradientTransform="matrix(-0.81, 0.06, -0.06, -0.72, 406.19, 1131.89)" xlink:href="#radial-gradient"/><radialGradient id="radial-gradient-35" cx="277.99" cy="628.87" r="64.63" gradientTransform="matrix(-0.81, 0.06, -0.06, -0.72, 406.19, 1131.89)" xlink:href="#radial-gradient"/><radialGradient id="radial-gradient-36" cx="260.9" cy="625.75" r="88.02" gradientTransform="matrix(-0.81, 0.06, -0.06, -0.72, 406.19, 1131.89)" xlink:href="#radial-gradient"/><radialGradient id="radial-gradient-37" cx="241.35" cy="603.41" r="92.84" gradientTransform="matrix(-0.81, 0.06, -0.06, -0.72, 406.19, 1131.89)" xlink:href="#radial-gradient"/><radialGradient id="radial-gradient-38" cx="204.91" cy="625.33" r="105.17" gradientTransform="matrix(-0.81, 0.06, -0.06, -0.72, 406.19, 1131.89)" xlink:href="#radial-gradient"/><radialGradient id="radial-gradient-39" cx="173.99" cy="632.35" r="47.55" gradientTransform="matrix(-0.81, 0.06, -0.06, -0.72, 406.19, 1131.89)" xlink:href="#radial-gradient"/><radialGradient id="radial-gradient-40" cx="190.18" cy="578.19" r="68.31" gradientTransform="matrix(-0.81, 0.06, -0.06, -0.72, 406.19, 1131.89)" xlink:href="#radial-gradient"/><radialGradient id="radial-gradient-41" cx="162.05" cy="571.33" r="63.01" gradientTransform="matrix(-0.81, 0.06, -0.06, -0.72, 406.19, 1131.89)" xlink:href="#radial-gradient"/><radialGradient id="radial-gradient-42" cx="130.12" cy="603.69" r="76.9" gradientTransform="matrix(-0.81, 0.06, -0.06, -0.72, 406.19, 1131.89)" xlink:href="#radial-gradient"/><radialGradient id="radial-gradient-43" cx="123.89" cy="539.46" r="74.49" gradientTransform="matrix(-0.81, 0.06, -0.06, -0.72, 406.19, 1131.89)" xlink:href="#radial-gradient"/><radialGradient id="radial-gradient-44" cx="85.67" cy="601.62" r="105.71" gradientTransform="matrix(-0.81, 0.06, -0.06, -0.72, 406.19, 1131.89)" xlink:href="#radial-gradient"/><radialGradient id="radial-gradient-45" cx="50.73" cy="585.32" r="49.88" gradientTransform="matrix(-0.81, 0.06, -0.06, -0.72, 406.19, 1131.89)" xlink:href="#radial-gradient"/><radialGradient id="radial-gradient-46" cx="29.67" cy="563.84" r="57.42" gradientTransform="matrix(-0.81, 0.06, -0.06, -0.72, 406.19, 1131.89)" xlink:href="#radial-gradient"/><radialGradient id="radial-gradient-47" cx="2.61" cy="606.5" r="57.75" gradientTransform="matrix(-0.81, 0.06, -0.06, -0.72, 406.19, 1131.89)" xlink:href="#radial-gradient"/><radialGradient id="radial-gradient-48" cx="-33.84" cy="567.99" r="56.98" gradientTransform="matrix(-0.81, 0.06, -0.06, -0.72, 406.19, 1131.89)" xlink:href="#radial-gradient"/><radialGradient id="radial-gradient-49" cx="-27.74" cy="631.61" r="57.38" gradientTransform="matrix(-0.81, 0.06, -0.06, -0.72, 406.19, 1131.89)" xlink:href="#radial-gradient"/><radialGradient id="radial-gradient-50" cx="-61.69" cy="610.71" r="70.1" gradientTransform="matrix(-0.81, 0.06, -0.06, -0.72, 406.19, 1131.89)" xlink:href="#radial-gradient"/><radialGradient id="radial-gradient-51" cx="16.79" cy="652.36" r="62.99" gradientTransform="matrix(-0.81, 0.06, -0.06, -0.72, 406.19, 1131.89)" xlink:href="#radial-gradient"/><radialGradient id="radial-gradient-52" cx="33.46" cy="624.3" r="47.5" gradientTransform="matrix(-0.81, 0.06, -0.06, -0.72, 406.19, 1131.89)" xlink:href="#radial-gradient"/><radialGradient id="radial-gradient-53" cx="46.42" cy="610.3" r="87.53" gradientTransform="matrix(-0.81, 0.06, -0.06, -0.72, 406.19, 1131.89)" xlink:href="#radial-gradient"/><radialGradient id="radial-gradient-54" cx="47.19" cy="598.28" r="41.43" gradientTransform="matrix(-0.81, 0.06, -0.06, -0.72, 406.19, 1131.89)" xlink:href="#radial-gradient"/><radialGradient id="radial-gradient-55" cx="26.25" cy="537.86" r="63.3" gradientTransform="matrix(-0.81, 0.06, -0.06, -0.72, 406.19, 1131.89)" xlink:href="#radial-gradient"/><radialGradient id="radial-gradient-56" cx="16.73" cy="573.55" r="51.39" gradientTransform="matrix(-0.81, 0.06, -0.06, -0.72, 406.19, 1131.89)" xlink:href="#radial-gradient"/><radialGradient id="radial-gradient-57" cx="-14.33" cy="590.61" r="74.08" gradientTransform="matrix(-0.81, 0.06, -0.06, -0.72, 406.19, 1131.89)" xlink:href="#radial-gradient"/><radialGradient id="radial-gradient-58" cx="-47.3" cy="546.75" r="43.66" gradientTransform="matrix(-0.81, 0.06, -0.06, -0.72, 406.19, 1131.89)" xlink:href="#radial-gradient"/><radialGradient id="radial-gradient-59" cx="-65.58" cy="588.6" r="83.69" gradientTransform="matrix(-0.81, 0.06, -0.06, -0.72, 406.19, 1131.89)" xlink:href="#radial-gradient"/><radialGradient id="radial-gradient-60" cx="1900.98" cy="728.02" r="40.49" gradientTransform="translate(-814.19) scale(1.48 1)" xlink:href="#radial-gradient"/><radialGradient id="radial-gradient-61" cx="1874.4" cy="710.43" r="40.46" gradientTransform="translate(-814.19) scale(1.48 1)" xlink:href="#radial-gradient"/><radialGradient id="radial-gradient-62" cx="1852.31" cy="721.85" r="53.01" gradientTransform="translate(-814.19) scale(1.48 1)" xlink:href="#radial-gradient"/><radialGradient id="radial-gradient-63" cx="1829.68" cy="705.59" r="32.17" gradientTransform="translate(-814.19) scale(1.48 1)" xlink:href="#radial-gradient"/><radialGradient id="radial-gradient-64" cx="1819.17" cy="735.3" r="32.51" gradientTransform="translate(-814.19) scale(1.48 1)" xlink:href="#radial-gradient"/><radialGradient id="radial-gradient-65" cx="1804.91" cy="718.65" r="30.01" gradientTransform="translate(-814.19) scale(1.48 1)" xlink:href="#radial-gradient"/><radialGradient id="radial-gradient-66" cx="1797.52" cy="708.55" r="63.37" gradientTransform="translate(-814.19) scale(1.48 1)" xlink:href="#radial-gradient"/><radialGradient id="radial-gradient-67" cx="1776.73" cy="743.15" r="56.81" gradientTransform="translate(-814.19) scale(1.48 1)" xlink:href="#radial-gradient"/><radialGradient id="radial-gradient-68" cx="1780.14" cy="703.16" r="31.65" gradientTransform="translate(-814.19) scale(1.48 1)" xlink:href="#radial-gradient"/><radialGradient id="radial-gradient-69" cx="1752.27" cy="708.76" r="37.74" gradientTransform="translate(-814.19) scale(1.48 1)" xlink:href="#radial-gradient"/><radialGradient id="radial-gradient-70" cx="1747.13" cy="720.23" r="68.46" gradientTransform="translate(-814.19) scale(1.48 1)" xlink:href="#radial-gradient"/><radialGradient id="radial-gradient-71" cx="1742.02" cy="736.63" r="67.96" gradientTransform="translate(-814.19) scale(1.48 1)" xlink:href="#radial-gradient"/><radialGradient id="radial-gradient-72" cx="1730.19" cy="741.66" r="59.98" gradientTransform="translate(-814.19) scale(1.48 1)" xlink:href="#radial-gradient"/><radialGradient id="radial-gradient-73" cx="1698.03" cy="729.08" r="27.78" gradientTransform="translate(-814.19) scale(1.48 1)" xlink:href="#radial-gradient"/><radialGradient id="radial-gradient-74" cx="1682.37" cy="729.08" r="47.57" gradientTransform="translate(-814.19) scale(1.48 1)" xlink:href="#radial-gradient"/><radialGradient id="radial-gradient-75" cx="1648.7" cy="726.03" r="41.34" gradientTransform="translate(-814.19) scale(1.48 1)" xlink:href="#radial-gradient"/><radialGradient id="radial-gradient-76" cx="2544.41" cy="131.22" r="64.55" gradientTransform="matrix(1, 0, 0, 1, 0, 0)" xlink:href="#radial-gradient"/><radialGradient id="radial-gradient-77" cx="2525.34" cy="157.39" r="80.32" gradientTransform="matrix(1, 0, 0, 1, 0, 0)" xlink:href="#radial-gradient"/><radialGradient id="radial-gradient-78" cx="2502.2" cy="103.28" r="64.5" gradientTransform="matrix(1, 0, 0, 1, 0, 0)" xlink:href="#radial-gradient"/><radialGradient id="radial-gradient-79" cx="2479.6" cy="94.56" r="71.5" gradientTransform="matrix(1, 0, 0, 1, 0, 0)" xlink:href="#radial-gradient"/><radialGradient id="radial-gradient-80" cx="2467.12" cy="121.42" r="84.5" gradientTransform="matrix(1, 0, 0, 1, 0, 0)" xlink:href="#radial-gradient"/><radialGradient id="radial-gradient-81" cx="2449.88" cy="156.59" r="105.32" gradientTransform="matrix(1, 0, 0, 1, 0, 0)" xlink:href="#radial-gradient"/><radialGradient id="radial-gradient-82" cx="2431.18" cy="95.61" r="51.29" gradientTransform="matrix(1, 0, 0, 1, 0, 0)" xlink:href="#radial-gradient"/><radialGradient id="radial-gradient-83" cx="2414.48" cy="142.79" r="51.83" gradientTransform="matrix(1, 0, 0, 1, 0, 0)" xlink:href="#radial-gradient"/><radialGradient id="radial-gradient-84" cx="2391.84" cy="116.33" r="47.84" gradientTransform="matrix(1, 0, 0, 1, 0, 0)" xlink:href="#radial-gradient"/><radialGradient id="radial-gradient-85" cx="2380.11" cy="100.3" r="101.02" gradientTransform="matrix(1, 0, 0, 1, 0, 0)" xlink:href="#radial-gradient"/><radialGradient id="radial-gradient-86" cx="2347.09" cy="155.25" r="90.56" gradientTransform="matrix(1, 0, 0, 1, 0, 0)" xlink:href="#radial-gradient"/><radialGradient id="radial-gradient-87" cx="2352.51" cy="91.74" r="50.46" gradientTransform="matrix(1, 0, 0, 1, 0, 0)" xlink:href="#radial-gradient"/><radialGradient id="radial-gradient-88" cx="2328.32" cy="102.8" r="98.59" gradientTransform="matrix(1, 0, 0, 1, 0, 0)" xlink:href="#radial-gradient"/><radialGradient id="radial-gradient-89" cx="2308.24" cy="100.64" r="60.16" gradientTransform="matrix(1, 0, 0, 1, 0, 0)" xlink:href="#radial-gradient"/><radialGradient id="radial-gradient-90" cx="2300.09" cy="118.86" r="109.13" gradientTransform="matrix(1, 0, 0, 1, 0, 0)" xlink:href="#radial-gradient"/><radialGradient id="radial-gradient-91" cx="2291.97" cy="144.89" r="108.33" gradientTransform="matrix(1, 0, 0, 1, 0, 0)" xlink:href="#radial-gradient"/><radialGradient id="radial-gradient-92" cx="2273.18" cy="152.88" r="95.61" gradientTransform="matrix(1, 0, 0, 1, 0, 0)" xlink:href="#radial-gradient"/><radialGradient id="radial-gradient-93" cx="2235.71" cy="112.46" r="88.12" gradientTransform="matrix(1, 0, 0, 1, 0, 0)" xlink:href="#radial-gradient"/><radialGradient id="radial-gradient-94" cx="2222.12" cy="132.9" r="44.29" gradientTransform="matrix(1, 0, 0, 1, 0, 0)" xlink:href="#radial-gradient"/><radialGradient id="radial-gradient-95" cx="2197.24" cy="132.9" r="75.84" gradientTransform="matrix(1, 0, 0, 1, 0, 0)" xlink:href="#radial-gradient"/><radialGradient id="radial-gradient-96" cx="2185.91" cy="170.57" r="106.95" gradientTransform="matrix(1, 0, 0, 1, 0, 0)" xlink:href="#radial-gradient"/><radialGradient id="radial-gradient-97" cx="2156.89" cy="180.54" r="106.58" gradientTransform="matrix(1, 0, 0, 1, 0, 0)" xlink:href="#radial-gradient"/><radialGradient id="radial-gradient-98" cx="2143.77" cy="128.07" r="65.89" gradientTransform="matrix(1, 0, 0, 1, 0, 0)" xlink:href="#radial-gradient"/><radialGradient id="radial-gradient-99" cx="2116.84" cy="148.02" r="107.8" gradientTransform="matrix(1, 0, 0, 1, 0, 0)" xlink:href="#radial-gradient"/><radialGradient id="radial-gradient-100" cx="2095.48" cy="173.58" r="69.9" gradientTransform="matrix(1, 0, 0, 1, 0, 0)" xlink:href="#radial-gradient"/><radialGradient id="radial-gradient-101" cx="2087.57" cy="106.1" r="92.19" gradientTransform="matrix(1, 0, 0, 1, 0, 0)" xlink:href="#radial-gradient"/><radialGradient id="radial-gradient-102" cx="2076.32" cy="108.11" r="73.98" gradientTransform="matrix(1, 0, 0, 1, 0, 0)" xlink:href="#radial-gradient"/><radialGradient id="radial-gradient-103" cx="2065.13" cy="99.3" r="74.68" gradientTransform="matrix(1, 0, 0, 1, 0, 0)" xlink:href="#radial-gradient"/><radialGradient id="radial-gradient-104" cx="2031.71" cy="125.09" r="53.12" gradientTransform="matrix(1, 0, 0, 1, 0, 0)" xlink:href="#radial-gradient"/><radialGradient id="radial-gradient-105" cx="2007.27" cy="141" r="68.83" gradientTransform="matrix(1, 0, 0, 1, 0, 0)" xlink:href="#radial-gradient"/><radialGradient id="radial-gradient-106" cx="947.29" cy="302.64" r="40.92" gradientTransform="matrix(-1.32, 0, 0, 1, 2193.96, 0)" xlink:href="#radial-gradient"/><radialGradient id="radial-gradient-107" cx="923.12" cy="272.73" r="38.3" gradientTransform="matrix(-1.32, 0, 0, 1, 2193.96, 0)" xlink:href="#radial-gradient"/><radialGradient id="radial-gradient-108" cx="902.19" cy="290.01" r="54.2" gradientTransform="matrix(-1.32, 0, 0, 1, 2193.96, 0)" xlink:href="#radial-gradient"/><radialGradient id="radial-gradient-109" cx="843.19" cy="271.2" r="72.66" gradientTransform="matrix(-1.32, 0, 0, 1, 2193.96, 0)" xlink:href="#radial-gradient"/><radialGradient id="radial-gradient-110" cx="878.09" cy="310.84" r="45.43" gradientTransform="matrix(-1.32, 0, 0, 1, 2193.96, 0)" xlink:href="#radial-gradient"/><radialGradient id="radial-gradient-111" cx="857.1" cy="304.12" r="47.73" gradientTransform="matrix(-1.32, 0, 0, 1, 2193.96, 0)" xlink:href="#radial-gradient"/><radialGradient id="radial-gradient-112" cx="844.47" cy="301.81" r="65.01" gradientTransform="matrix(-1.32, 0, 0, 1, 2193.96, 0)" xlink:href="#radial-gradient"/><radialGradient id="radial-gradient-113" cx="830.02" cy="285.3" r="68.56" gradientTransform="matrix(-1.32, 0, 0, 1, 2193.96, 0)" xlink:href="#radial-gradient"/><radialGradient id="radial-gradient-114" cx="803.1" cy="301.5" r="77.67" gradientTransform="matrix(-1.32, 0, 0, 1, 2193.96, 0)" xlink:href="#radial-gradient"/><radialGradient id="radial-gradient-115" cx="780.25" cy="306.69" r="35.12" gradientTransform="matrix(-1.32, 0, 0, 1, 2193.96, 0)" xlink:href="#radial-gradient"/><radialGradient id="radial-gradient-116" cx="792.22" cy="266.67" r="50.45" gradientTransform="matrix(-1.32, 0, 0, 1, 2193.96, 0)" xlink:href="#radial-gradient"/><radialGradient id="radial-gradient-117" cx="771.43" cy="261.6" r="46.53" gradientTransform="matrix(-1.32, 0, 0, 1, 2193.96, 0)" xlink:href="#radial-gradient"/><radialGradient id="radial-gradient-118" cx="747.84" cy="285.51" r="56.79" gradientTransform="matrix(-1.32, 0, 0, 1, 2193.96, 0)" xlink:href="#radial-gradient"/><radialGradient id="radial-gradient-119" cx="743.23" cy="238.05" r="55.02" gradientTransform="matrix(-1.32, 0, 0, 1, 2193.96, 0)" xlink:href="#radial-gradient"/><radialGradient id="radial-gradient-120" cx="714.99" cy="283.98" r="78.07" gradientTransform="matrix(-1.32, 0, 0, 1, 2193.96, 0)" xlink:href="#radial-gradient"/><radialGradient id="radial-gradient-121" cx="689.18" cy="271.94" r="36.84" gradientTransform="matrix(-1.32, 0, 0, 1, 2193.96, 0)" xlink:href="#radial-gradient"/><radialGradient id="radial-gradient-122" cx="673.61" cy="256.06" r="42.4" gradientTransform="matrix(-1.32, 0, 0, 1, 2193.96, 0)" xlink:href="#radial-gradient"/><radialGradient id="radial-gradient-123" cx="653.62" cy="287.59" r="42.65" gradientTransform="matrix(-1.32, 0, 0, 1, 2193.96, 0)" xlink:href="#radial-gradient"/><radialGradient id="radial-gradient-124" cx="626.68" cy="259.13" r="42.08" gradientTransform="matrix(-1.32, 0, 0, 1, 2193.96, 0)" xlink:href="#radial-gradient"/><radialGradient id="radial-gradient-125" cx="631.19" cy="306.14" r="42.37" gradientTransform="matrix(-1.32, 0, 0, 1, 2193.96, 0)" xlink:href="#radial-gradient"/><radialGradient id="radial-gradient-126" cx="606.1" cy="290.7" r="51.77" gradientTransform="matrix(-1.32, 0, 0, 1, 2193.96, 0)" xlink:href="#radial-gradient"/><radialGradient id="radial-gradient-127" cx="664.1" cy="321.47" r="46.52" gradientTransform="matrix(-1.32, 0, 0, 1, 2193.96, 0)" xlink:href="#radial-gradient"/><radialGradient id="radial-gradient-128" cx="676.41" cy="300.74" r="35.08" gradientTransform="matrix(-1.32, 0, 0, 1, 2193.96, 0)" xlink:href="#radial-gradient"/><radialGradient id="radial-gradient-129" cx="685.99" cy="290.4" r="64.64" gradientTransform="matrix(-1.32, 0, 0, 1, 2193.96, 0)" xlink:href="#radial-gradient"/><radialGradient id="radial-gradient-130" cx="686.55" cy="281.51" r="30.6" gradientTransform="matrix(-1.32, 0, 0, 1, 2193.96, 0)" xlink:href="#radial-gradient"/><radialGradient id="radial-gradient-131" cx="671.08" cy="236.87" r="46.75" gradientTransform="matrix(-1.32, 0, 0, 1, 2193.96, 0)" xlink:href="#radial-gradient"/><radialGradient id="radial-gradient-132" cx="664.05" cy="263.24" r="37.95" gradientTransform="matrix(-1.32, 0, 0, 1, 2193.96, 0)" xlink:href="#radial-gradient"/><radialGradient id="radial-gradient-133" cx="641.1" cy="275.84" r="54.71" gradientTransform="matrix(-1.32, 0, 0, 1, 2193.96, 0)" xlink:href="#radial-gradient"/><radialGradient id="radial-gradient-134" cx="616.74" cy="243.44" r="32.25" gradientTransform="matrix(-1.32, 0, 0, 1, 2193.96, 0)" xlink:href="#radial-gradient"/><radialGradient id="radial-gradient-135" cx="603.23" cy="274.36" r="61.81" gradientTransform="matrix(-1.32, 0, 0, 1, 2193.96, 0)" xlink:href="#radial-gradient"/><radialGradient id="radial-gradient-136" cx="3231.2" cy="261.85" r="64.55" gradientTransform="translate(583.73 100.98) scale(0.78 0.79)" xlink:href="#radial-gradient"/><radialGradient id="radial-gradient-137" cx="3188.99" cy="233.91" r="64.5" gradientTransform="translate(583.73 100.98) scale(0.78 0.79)" xlink:href="#radial-gradient"/><radialGradient id="radial-gradient-138" cx="3153.91" cy="252.05" r="84.5" gradientTransform="translate(583.73 100.98) scale(0.78 0.79)" xlink:href="#radial-gradient"/><radialGradient id="radial-gradient-139" cx="3117.97" cy="226.24" r="51.29" gradientTransform="translate(583.73 100.98) scale(0.78 0.79)" xlink:href="#radial-gradient"/><radialGradient id="radial-gradient-140" cx="3101.27" cy="273.42" r="51.83" gradientTransform="translate(583.73 100.98) scale(0.78 0.79)" xlink:href="#radial-gradient"/><radialGradient id="radial-gradient-141" cx="3078.62" cy="246.97" r="47.84" gradientTransform="translate(583.73 100.98) scale(0.78 0.79)" xlink:href="#radial-gradient"/><radialGradient id="radial-gradient-142" cx="3066.9" cy="230.93" r="101.03" gradientTransform="translate(583.73 100.98) scale(0.78 0.79)" xlink:href="#radial-gradient"/><radialGradient id="radial-gradient-143" cx="3033.88" cy="285.88" r="90.56" gradientTransform="translate(583.73 100.98) scale(0.78 0.79)" xlink:href="#radial-gradient"/><radialGradient id="radial-gradient-144" cx="3039.3" cy="222.37" r="50.46" gradientTransform="translate(583.73 100.98) scale(0.78 0.79)" xlink:href="#radial-gradient"/><radialGradient id="radial-gradient-145" cx="2995.03" cy="231.27" r="60.17" gradientTransform="translate(583.73 100.98) scale(0.78 0.79)" xlink:href="#radial-gradient"/><radialGradient id="radial-gradient-146" cx="2986.88" cy="249.49" r="109.14" gradientTransform="translate(583.73 100.98) scale(0.78 0.79)" xlink:href="#radial-gradient"/><radialGradient id="radial-gradient-147" cx="2978.76" cy="275.53" r="108.34" gradientTransform="translate(583.73 100.98) scale(0.78 0.79)" xlink:href="#radial-gradient"/><radialGradient id="radial-gradient-148" cx="2959.97" cy="283.51" r="95.61" gradientTransform="translate(583.73 100.98) scale(0.78 0.79)" xlink:href="#radial-gradient"/><radialGradient id="radial-gradient-149" cx="2908.9" cy="263.53" r="44.29" gradientTransform="translate(583.73 100.98) scale(0.78 0.79)" xlink:href="#radial-gradient"/><radialGradient id="radial-gradient-150" cx="2884.03" cy="263.53" r="75.84" gradientTransform="translate(583.73 100.98) scale(0.78 0.79)" xlink:href="#radial-gradient"/><radialGradient id="radial-gradient-151" cx="2830.55" cy="258.7" r="65.9" gradientTransform="translate(583.73 100.98) scale(0.78 0.79)" xlink:href="#radial-gradient"/></defs><g style="isolation:isolate"><g id="Layer_2" data-name="Layer 2"><g id="Clouds_Middle" data-name="Clouds Middle"><g style="opacity:0.71"><path d="M1128.38,685.85c-.08,29.1-54.28,29.1-54.35,0S1128.31,656.74,1128.38,685.85Z" style="mix-blend-mode:screen;fill:url(#radial-gradient)"/><path d="M1125,695.8c-.11,41.2-76.83,41.19-76.92,0C1048.15,654.6,1124.87,654.61,1125,695.8Z" style="mix-blend-mode:screen;fill:url(#radial-gradient-2)"/><path d="M1096.63,685c-.14,55.22-103,55.22-103.11,0C993.66,629.75,1096.5,629.75,1096.63,685Z" style="mix-blend-mode:screen;fill:url(#radial-gradient-3)"/><path d="M1101.81,707.79c-.09,34.53-64.38,34.53-64.46,0C1037.43,673.27,1101.73,673.27,1101.81,707.79Z" style="mix-blend-mode:screen;fill:url(#radial-gradient-4)"/><path d="M1088.71,703.92c-.09,36.28-67.65,36.28-67.74,0C1021.06,667.64,1088.63,667.65,1088.71,703.92Z" style="mix-blend-mode:screen;fill:url(#radial-gradient-5)"/><path d="M1092.11,702.59c-.13,49.41-92.14,49.41-92.26,0C1000,653.18,1092,653.19,1092.11,702.59Z" style="mix-blend-mode:screen;fill:url(#radial-gradient-6)"/><path d="M1084.48,693.09c-.13,52.11-97.18,52.11-97.3,0C987.31,641,1084.36,641,1084.48,693.09Z" style="mix-blend-mode:screen;fill:url(#radial-gradient-7)"/><path d="M1072,702.42c-.15,59-110.09,59-110.23,0C962,643.38,1071.9,643.39,1072,702.42Z" style="mix-blend-mode:screen;fill:url(#radial-gradient-8)"/><path d="M1025.8,705.4c-.07,26.69-49.77,26.69-49.84,0S1025.74,678.71,1025.8,705.4Z" style="mix-blend-mode:screen;fill:url(#radial-gradient-9)"/><path d="M1045.08,682.36c-.1,38.34-71.5,38.34-71.6,0C973.58,644,1045,644,1045.08,682.36Z" style="mix-blend-mode:screen;fill:url(#radial-gradient-10)"/><path d="M1027.71,679.44c-.1,35.37-66,35.36-66,0C961.76,644.07,1027.62,644.07,1027.71,679.44Z" style="mix-blend-mode:screen;fill:url(#radial-gradient-11)"/><path d="M1018.42,693.21c-.11,43.16-80.5,43.16-80.6,0C937.93,650.05,1018.31,650.05,1018.42,693.21Z" style="mix-blend-mode:screen;fill:url(#radial-gradient-12)"/><path d="M1013.92,665.88c-.1,41.82-78,41.81-78.07,0C936,624.07,1013.82,624.07,1013.92,665.88Z" style="mix-blend-mode:screen;fill:url(#radial-gradient-13)"/><path d="M1010.45,692.33c-.15,59.33-110.65,59.33-110.79,0C899.81,633,1010.31,633,1010.45,692.33Z" style="mix-blend-mode:screen;fill:url(#radial-gradient-14)"/><path d="M963.07,685.39c-.07,28-52.22,28-52.29,0C910.86,657.39,963,657.4,963.07,685.39Z" style="mix-blend-mode:screen;fill:url(#radial-gradient-15)"/><path d="M956.09,676.25c-.09,32.23-60.1,32.23-60.18,0C896,644,956,644,956.09,676.25Z" style="mix-blend-mode:screen;fill:url(#radial-gradient-16)"/><path d="M942.22,694.4c-.08,32.42-60.45,32.42-60.52,0S942.14,662,942.22,694.4Z" style="mix-blend-mode:screen;fill:url(#radial-gradient-17)"/><path d="M922.9,678c-.08,32-59.64,32-59.71,0S922.83,646,922.9,678Z" style="mix-blend-mode:screen;fill:url(#radial-gradient-18)"/><path d="M926.28,705.09c-.08,32.2-60.06,32.2-60.14,0C866.23,672.88,926.2,672.88,926.28,705.09Z" style="mix-blend-mode:screen;fill:url(#radial-gradient-19)"/><path d="M915.33,696.2c-.1,39.34-73.38,39.34-73.47,0C842,656.85,915.23,656.85,915.33,696.2Z" style="mix-blend-mode:screen;fill:url(#radial-gradient-20)"/><path d="M952.32,713.92c-.09,35.35-65.93,35.35-66,0C886.4,678.56,952.24,678.56,952.32,713.92Z" style="mix-blend-mode:screen;fill:url(#radial-gradient-21)"/><path d="M952.85,702c-.06,26.66-49.72,26.66-49.78,0S952.79,675.32,952.85,702Z" style="mix-blend-mode:screen;fill:url(#radial-gradient-22)"/><path d="M980.56,696c-.13,49.13-91.62,49.13-91.74,0C889,646.89,980.44,646.9,980.56,696Z" style="mix-blend-mode:screen;fill:url(#radial-gradient-23)"/><path d="M956.8,690.91c-.06,23.25-43.37,23.25-43.43,0S956.74,667.65,956.8,690.91Z" style="mix-blend-mode:screen;fill:url(#radial-gradient-24)"/><path d="M957.39,665.2c-.09,35.53-66.26,35.53-66.34,0C891.14,629.67,957.31,629.67,957.39,665.2Z" style="mix-blend-mode:screen;fill:url(#radial-gradient-25)"/><path d="M946.21,680.38c-.07,28.85-53.79,28.84-53.85,0S946.14,651.54,946.21,680.38Z" style="mix-blend-mode:screen;fill:url(#radial-gradient-26)"/><path d="M942,687.64c-.11,41.58-77.54,41.58-77.64,0C864.45,646.06,941.89,646.06,942,687.64Z" style="mix-blend-mode:screen;fill:url(#radial-gradient-27)"/><path d="M908.94,669c-.06,24.51-45.7,24.51-45.76,0S908.88,644.48,908.94,669Z" style="mix-blend-mode:screen;fill:url(#radial-gradient-28)"/><path d="M920.43,686.79c-.12,47-87.6,47-87.71,0C832.84,639.81,920.32,639.82,920.43,686.79Z" style="mix-blend-mode:screen;fill:url(#radial-gradient-29)"/></g><g style="opacity:0.78"><path d="M.13,708.36c-4-52.85,86.53-60,90.89-7.18C95,754,4.48,761.17.13,708.36Z" style="mix-blend-mode:screen;fill:url(#radial-gradient-30)"/><path d="M31.91,735.27c-3.73-49.45,81-56.14,85.05-6.72C120.69,778,36,784.69,31.91,735.27Z" style="mix-blend-mode:screen;fill:url(#radial-gradient-31)"/><path d="M35.91,718c-5.28-70,114.61-79.46,120.38-9.51C161.57,778.43,41.68,787.9,35.91,718Z" style="mix-blend-mode:screen;fill:url(#radial-gradient-32)"/><path d="M81.7,732.84C74.63,639,235.34,626.31,243.07,720.08,250.15,813.91,89.44,826.6,81.7,732.84Z" style="mix-blend-mode:screen;fill:url(#radial-gradient-33)"/><path d="M70.54,694.73c-4.43-58.66,96.05-66.6,100.89-8C175.85,745.42,75.37,753.35,70.54,694.73Z" style="mix-blend-mode:screen;fill:url(#radial-gradient-34)"/><path d="M91.56,699.68c-4.65-61.64,100.93-70,106-8.38C202.22,752.94,96.64,761.28,91.56,699.68Z" style="mix-blend-mode:screen;fill:url(#radial-gradient-35)"/><path d="M86.43,702.35c-6.34-84,137.45-95.3,144.37-11.4C237.14,774.89,93.35,786.25,86.43,702.35Z" style="mix-blend-mode:screen;fill:url(#radial-gradient-36)"/><path d="M99.63,717.54C93,629,244.61,617,251.9,705.51,258.58,794.05,106.93,806,99.63,717.54Z" style="mix-blend-mode:screen;fill:url(#radial-gradient-37)"/><path d="M117.85,700.17c-7.56-100.3,164.24-113.87,172.5-13.63C297.92,786.84,126.12,800.41,117.85,700.17Z" style="mix-blend-mode:screen;fill:url(#radial-gradient-38)"/><path d="M189.81,689.39c-3.42-45.35,74.25-51.49,78-6.17C271.22,728.57,193.55,734.7,189.81,689.39Z" style="mix-blend-mode:screen;fill:url(#radial-gradient-39)"/><path d="M162.74,730.89c-4.92-65.15,106.67-74,112-8.85C279.69,787.18,168.11,796,162.74,730.89Z" style="mix-blend-mode:screen;fill:url(#radial-gradient-40)"/><path d="M190.32,733.7c-4.54-60.1,98.39-68.23,103.34-8.17C298.2,785.62,195.27,793.75,190.32,733.7Z" style="mix-blend-mode:screen;fill:url(#radial-gradient-41)"/><path d="M203,709.17c-5.53-73.34,120.08-83.26,126.13-10C334.66,772.54,209.05,782.46,203,709.17Z" style="mix-blend-mode:screen;fill:url(#radial-gradient-42)"/><path d="M213.7,755c-5.36-71,116.33-80.66,122.18-9.66C341.24,816.4,219.56,826,213.7,755Z" style="mix-blend-mode:screen;fill:url(#radial-gradient-43)"/><path d="M215.59,709.68C208,608.87,380.66,595.23,389,696,396.57,796.79,223.9,810.43,215.59,709.68Z" style="mix-blend-mode:screen;fill:url(#radial-gradient-44)"/><path d="M290.67,715.59c-3.59-47.57,77.9-54,81.82-6.46C376.08,756.7,294.59,763.14,290.67,715.59Z" style="mix-blend-mode:screen;fill:url(#radial-gradient-45)"/><path d="M302.82,730.25c-4.13-54.76,89.66-62.17,94.18-7.44C401.13,777.56,307.34,785,302.82,730.25Z" style="mix-blend-mode:screen;fill:url(#radial-gradient-46)"/><path d="M322.08,697.72c-4.15-55.08,90.18-62.53,94.72-7.49C421,745.31,326.62,752.76,322.08,697.72Z" style="mix-blend-mode:screen;fill:url(#radial-gradient-47)"/><path d="M354.52,723.14c-4.1-54.33,89-61.69,93.44-7.38C452.06,770.09,359,777.45,354.52,723.14Z" style="mix-blend-mode:screen;fill:url(#radial-gradient-48)"/><path d="M345.6,677.61c-4.13-54.72,89.6-62.12,94.11-7.44C443.83,724.89,350.11,732.3,345.6,677.61Z" style="mix-blend-mode:screen;fill:url(#radial-gradient-49)"/><path d="M363.93,691.35c-5-66.86,109.47-75.9,115-9.09C484,749.11,369.44,758.16,363.93,691.35Z" style="mix-blend-mode:screen;fill:url(#radial-gradient-50)"/><path d="M303.65,665.84c-4.53-60.07,98.36-68.2,103.32-8.16C411.5,717.75,308.61,725.87,303.65,665.84Z" style="mix-blend-mode:screen;fill:url(#radial-gradient-51)"/><path d="M304.43,686.18C301,640.87,378.6,634.74,382.34,680,385.76,725.32,308.16,731.45,304.43,686.18Z" style="mix-blend-mode:screen;fill:url(#radial-gradient-52)"/><path d="M261.87,699.71c-6.29-83.47,136.68-94.77,143.57-11.34C411.73,771.84,268.76,783.13,261.87,699.71Z" style="mix-blend-mode:screen;fill:url(#radial-gradient-53)"/><path d="M299.74,705.46c-3-39.52,64.7-44.86,68-5.37C370.68,739.6,303,745,299.74,705.46Z" style="mix-blend-mode:screen;fill:url(#radial-gradient-54)"/><path d="M302.26,749.17c-4.55-60.37,98.85-68.54,103.83-8.2C410.64,801.34,307.24,809.51,302.26,749.17Z" style="mix-blend-mode:screen;fill:url(#radial-gradient-55)"/><path d="M317.72,722C314,673,398,666.37,402,715.35,405.7,764.36,321.76,771,317.72,722Z" style="mix-blend-mode:screen;fill:url(#radial-gradient-56)"/><path d="M323.35,709.17C318,638.52,439,629,444.86,699.57,450.19,770.21,329.18,779.77,323.35,709.17Z" style="mix-blend-mode:screen;fill:url(#radial-gradient-57)"/><path d="M377.58,736.76c-3.15-41.64,68.18-47.28,71.61-5.66C452.33,772.74,381,778.38,377.58,736.76Z" style="mix-blend-mode:screen;fill:url(#radial-gradient-58)"/><path d="M357.21,708c-6-79.81,130.68-90.61,137.26-10.84C500.49,776.92,363.79,787.71,357.21,708Z" style="mix-blend-mode:screen;fill:url(#radial-gradient-59)"/></g><g style="opacity:0.68"><path d="M2067.61,728c.08,53.4-121.59,53.39-121.5,0C1946,674.63,2067.7,674.63,2067.61,728Z" style="mix-blend-mode:screen;fill:url(#radial-gradient-60)"/><path d="M2028.12,710.43c.08,53.35-121.5,53.34-121.41,0C1906.63,657.07,2028.21,657.08,2028.12,710.43Z" style="mix-blend-mode:screen;fill:url(#radial-gradient-61)"/><path d="M2014.16,721.85c.1,69.9-159.17,69.89-159.05,0C1855,652,2014.28,652,2014.16,721.85Z" style="mix-blend-mode:screen;fill:url(#radial-gradient-62)"/><path d="M1949.32,705.59c.06,42.43-96.61,42.42-96.54,0S1949.39,663.17,1949.32,705.59Z" style="mix-blend-mode:screen;fill:url(#radial-gradient-63)"/><path d="M1934.23,735.3c.06,42.88-97.63,42.87-97.56,0S1934.3,692.44,1934.23,735.3Z" style="mix-blend-mode:screen;fill:url(#radial-gradient-64)"/><path d="M1909.31,718.65c.06,39.57-90.12,39.56-90,0S1909.38,679.08,1909.31,718.65Z" style="mix-blend-mode:screen;fill:url(#radial-gradient-65)"/><path d="M1948.41,708.55c.12,83.56-190.29,83.55-190.15,0C1758.14,625,1948.55,625,1948.41,708.55Z" style="mix-blend-mode:screen;fill:url(#radial-gradient-66)"/><path d="M1907.7,743.15c.11,74.91-170.58,74.9-170.45,0C1737.14,668.24,1907.83,668.25,1907.7,743.15Z" style="mix-blend-mode:screen;fill:url(#radial-gradient-67)"/><path d="M1875,703.16c.06,41.74-95,41.73-95,0S1875.09,661.42,1875,703.16Z" style="mix-blend-mode:screen;fill:url(#radial-gradient-68)"/><path d="M1842.79,708.76c.08,49.77-113.33,49.76-113.24,0C1729.48,659,1842.88,659,1842.79,708.76Z" style="mix-blend-mode:screen;fill:url(#radial-gradient-69)"/><path d="M1881.26,720.24c.13,90.27-205.57,90.26-205.42,0C1675.71,630,1881.41,630,1881.26,720.24Z" style="mix-blend-mode:screen;fill:url(#radial-gradient-70)"/><path d="M1872.92,736.63c.13,89.61-204.06,89.6-203.91,0C1668.88,647,1873.07,647,1872.92,736.63Z" style="mix-blend-mode:screen;fill:url(#radial-gradient-71)"/><path d="M1843.39,741.66c.12,79.09-180.1,79.08-180,0C1663.31,662.57,1843.53,662.58,1843.39,741.66Z" style="mix-blend-mode:screen;fill:url(#radial-gradient-72)"/><path d="M1747.37,729.08c.05,36.63-83.42,36.63-83.36,0S1747.43,692.45,1747.37,729.08Z" style="mix-blend-mode:screen;fill:url(#radial-gradient-73)"/><path d="M1753.82,729.08c.09,62.73-142.86,62.72-142.75,0C1611,666.34,1753.93,666.35,1753.82,729.08Z" style="mix-blend-mode:screen;fill:url(#radial-gradient-74)"/><path d="M1694.49,726c.08,54.51-124.12,54.51-124,0C1570.38,671.53,1694.58,671.53,1694.49,726Z" style="mix-blend-mode:screen;fill:url(#radial-gradient-75)"/></g><g style="opacity:0.79"><path d="M2609.42,131.22c-1.46,85.46-128.58,85.45-130,0C2480.86,45.77,2608,45.78,2609.42,131.22Z" style="mix-blend-mode:screen;fill:url(#radial-gradient-76)"/><path d="M2606.23,157.39c-1.81,106.34-160,106.32-161.78,0C2446.26,51.06,2604.43,51.07,2606.23,157.39Z" style="mix-blend-mode:screen;fill:url(#radial-gradient-77)"/><path d="M2567.16,103.28c-1.46,85.39-128.48,85.38-129.92,0C2438.7,17.89,2565.71,17.9,2567.16,103.28Z" style="mix-blend-mode:screen;fill:url(#radial-gradient-78)"/><path d="M2551.61,94.56c-1.61,94.66-142.41,94.64-144,0C2409.21-.1,2550-.08,2551.61,94.56Z" style="mix-blend-mode:screen;fill:url(#radial-gradient-79)"/><path d="M2552.22,121.42c-1.91,111.87-168.31,111.85-170.2,0C2383.93,9.56,2550.32,9.58,2552.22,121.42Z" style="mix-blend-mode:screen;fill:url(#radial-gradient-80)"/><path d="M2556,156.59c-2.38,139.43-209.79,139.41-212.15,0C2346.18,17.16,2553.59,17.18,2556,156.59Z" style="mix-blend-mode:screen;fill:url(#radial-gradient-81)"/><path d="M2482.83,95.61c-1.16,67.9-102.16,67.88-103.3,0C2380.68,27.71,2481.68,27.72,2482.83,95.61Z" style="mix-blend-mode:screen;fill:url(#radial-gradient-82)"/><path d="M2466.68,142.79c-1.17,68.62-103.23,68.61-104.4,0C2363.46,74.17,2465.52,74.18,2466.68,142.79Z" style="mix-blend-mode:screen;fill:url(#radial-gradient-83)"/><path d="M2440,116.33c-1.08,63.34-95.29,63.33-96.36,0C2344.74,53,2438.94,53,2440,116.33Z" style="mix-blend-mode:screen;fill:url(#radial-gradient-84)"/><path d="M2481.86,100.3c-2.29,133.74-201.22,133.72-203.49,0C2280.66-33.44,2479.59-33.42,2481.86,100.3Z" style="mix-blend-mode:screen;fill:url(#radial-gradient-85)"/><path d="M2438.3,155.25c-2.05,119.89-180.38,119.87-182.41,0C2257.94,35.36,2436.27,35.38,2438.3,155.25Z" style="mix-blend-mode:screen;fill:url(#radial-gradient-86)"/><path d="M2403.33,91.74c-1.14,66.8-100.51,66.79-101.64,0C2302.83,24.94,2402.2,25,2403.33,91.74Z" style="mix-blend-mode:screen;fill:url(#radial-gradient-87)"/><path d="M2427.61,102.8c-2.23,130.52-196.38,130.5-198.59,0C2231.25-27.72,2425.4-27.7,2427.61,102.8Z" style="mix-blend-mode:screen;fill:url(#radial-gradient-88)"/><path d="M2368.84,100.64c-1.36,79.65-119.84,79.63-121.19,0C2249,21,2367.49,21,2368.84,100.64Z" style="mix-blend-mode:screen;fill:url(#radial-gradient-89)"/><path d="M2410,118.86c-2.47,144.48-217.38,144.45-219.82,0C2192.64-25.62,2407.55-25.6,2410,118.86Z" style="mix-blend-mode:screen;fill:url(#radial-gradient-90)"/><path d="M2401.07,144.89c-2.45,143.42-215.78,143.4-218.2,0C2185.31,1.48,2398.64,1.5,2401.07,144.89Z" style="mix-blend-mode:screen;fill:url(#radial-gradient-91)"/><path d="M2369.48,152.88c-2.17,126.57-190.44,126.55-192.59,0C2179.06,26.31,2367.33,26.32,2369.48,152.88Z" style="mix-blend-mode:screen;fill:url(#radial-gradient-92)"/><path d="M2324.45,112.46c-2,116.66-175.51,116.64-177.49,0C2149-4.19,2322.47-4.17,2324.45,112.46Z" style="mix-blend-mode:screen;fill:url(#radial-gradient-93)"/><path d="M2266.72,132.9c-1,58.63-88.21,58.62-89.21,0C2178.51,74.27,2265.73,74.28,2266.72,132.9Z" style="mix-blend-mode:screen;fill:url(#radial-gradient-94)"/><path d="M2273.62,132.9c-1.71,100.4-151.06,100.39-152.76,0C2122.58,32.5,2271.92,32.52,2273.62,132.9Z" style="mix-blend-mode:screen;fill:url(#radial-gradient-95)"/><path d="M2293.63,170.57c-2.42,141.6-213,141.57-215.43,0C2080.62,29,2291.23,29,2293.63,170.57Z" style="mix-blend-mode:screen;fill:url(#radial-gradient-96)"/><path d="M2264.22,180.54c-2.41,141.09-212.28,141.07-214.67,0C2052,39.44,2261.83,39.47,2264.22,180.54Z" style="mix-blend-mode:screen;fill:url(#radial-gradient-97)"/><path d="M2210.13,128.07c-1.49,87.23-131.25,87.22-132.73,0C2078.89,40.83,2208.65,40.85,2210.13,128.07Z" style="mix-blend-mode:screen;fill:url(#radial-gradient-98)"/><path d="M2225.42,148c-2.44,142.72-214.73,142.7-217.15,0C2010.71,5.31,2223,5.33,2225.42,148Z" style="mix-blend-mode:screen;fill:url(#radial-gradient-99)"/><path d="M2165.88,173.58c-1.59,92.54-139.24,92.53-140.8,0C2026.66,81,2164.31,81.06,2165.88,173.58Z" style="mix-blend-mode:screen;fill:url(#radial-gradient-100)"/><path d="M2180.41,106.11c-2.08,122-183.62,122-185.69,0C1996.81-15.94,2178.35-15.92,2180.41,106.11Z" style="mix-blend-mode:screen;fill:url(#radial-gradient-101)"/><path d="M2150.82,108.11c-1.67,97.94-147.35,97.92-149,0C2003.49,10.18,2149.16,10.19,2150.82,108.11Z" style="mix-blend-mode:screen;fill:url(#radial-gradient-102)"/><path d="M2140.34,99.3c-1.69,98.87-148.75,98.85-150.42,0C1991.6.44,2138.66.46,2140.34,99.3Z" style="mix-blend-mode:screen;fill:url(#radial-gradient-103)"/><path d="M2085.2,125.09c-1.2,70.32-105.8,70.31-107,0C1979.41,54.77,2084,54.78,2085.2,125.09Z" style="mix-blend-mode:screen;fill:url(#radial-gradient-104)"/><path d="M2076.59,141c-1.55,91.12-137.1,91.11-138.64,0C1939.51,49.87,2075.05,49.89,2076.59,141Z" style="mix-blend-mode:screen;fill:url(#radial-gradient-105)"/></g><g style="opacity:0.66"><path d="M885.2,302.64c.06,54,109.44,54,109.49,0S885.25,248.66,885.2,302.64Z" style="mix-blend-mode:screen;fill:url(#radial-gradient-106)"/><path d="M920.71,272.73c0,50.52,102.4,50.51,102.45,0S920.75,222.21,920.71,272.73Z" style="mix-blend-mode:screen;fill:url(#radial-gradient-107)"/><path d="M927.14,290c.08,71.51,144.94,71.5,145,0C1072.06,218.51,927.2,218.51,927.14,290Z" style="mix-blend-mode:screen;fill:url(#radial-gradient-108)"/><path d="M980.55,271.2c.11,95.86,194.3,95.84,194.39,0C1174.83,175.35,980.64,175.36,980.55,271.2Z" style="mix-blend-mode:screen;fill:url(#radial-gradient-109)"/><path d="M970.78,310.84c.08,59.93,121.48,59.92,121.54,0S970.84,250.92,970.78,310.84Z" style="mix-blend-mode:screen;fill:url(#radial-gradient-110)"/><path d="M995.48,304.12c.08,63,127.65,63,127.71,0S995.54,241.15,995.48,304.12Z" style="mix-blend-mode:screen;fill:url(#radial-gradient-111)"/><path d="M989.09,301.81c.1,85.76,173.84,85.75,173.92,0C1162.91,216.05,989.17,216.06,989.09,301.81Z" style="mix-blend-mode:screen;fill:url(#radial-gradient-112)"/><path d="M1003.46,285.31c.1,90.45,183.35,90.44,183.43,0C1186.79,194.85,1003.55,194.86,1003.46,285.31Z" style="mix-blend-mode:screen;fill:url(#radial-gradient-113)"/><path d="M1026.92,301.5c.12,102.47,207.7,102.46,207.8,0C1234.6,199,1027,199.05,1026.92,301.5Z" style="mix-blend-mode:screen;fill:url(#radial-gradient-114)"/><path d="M1114.09,306.69c.05,46.32,93.9,46.32,94,0S1114.13,260.36,1114.09,306.69Z" style="mix-blend-mode:screen;fill:url(#radial-gradient-115)"/><path d="M1077.74,266.67c.08,66.55,134.91,66.54,135,0S1077.81,200.12,1077.74,266.67Z" style="mix-blend-mode:screen;fill:url(#radial-gradient-116)"/><path d="M1110.49,261.6c.08,61.39,124.44,61.38,124.5,0S1110.55,200.21,1110.49,261.6Z" style="mix-blend-mode:screen;fill:url(#radial-gradient-117)"/><path d="M1128,285.51c.09,74.93,151.87,74.92,152,0C1279.86,210.59,1128.08,210.6,1128,285.51Z" style="mix-blend-mode:screen;fill:url(#radial-gradient-118)"/><path d="M1136.47,238.05c.09,72.58,147.12,72.57,147.19,0C1283.58,165.47,1136.54,165.48,1136.47,238.05Z" style="mix-blend-mode:screen;fill:url(#radial-gradient-119)"/><path d="M1143,284c.12,103,208.76,103,208.86,0C1351.77,181,1143.13,181,1143,284Z" style="mix-blend-mode:screen;fill:url(#radial-gradient-120)"/><path d="M1232.35,271.94c.06,48.6,98.52,48.59,98.56,0S1232.4,223.34,1232.35,271.94Z" style="mix-blend-mode:screen;fill:url(#radial-gradient-121)"/><path d="M1245.51,256.06c.07,55.94,113.39,55.94,113.45,0S1245.57,200.13,1245.51,256.06Z" style="mix-blend-mode:screen;fill:url(#radial-gradient-122)"/><path d="M1271.65,287.59c.07,56.26,114,56.25,114.1,0S1271.7,231.33,1271.65,287.59Z" style="mix-blend-mode:screen;fill:url(#radial-gradient-123)"/><path d="M1308.07,259.13c.07,55.51,112.52,55.51,112.58,0S1308.12,203.63,1308.07,259.13Z" style="mix-blend-mode:screen;fill:url(#radial-gradient-124)"/><path d="M1301.71,306.14c.06,55.9,113.31,55.89,113.36,0S1301.76,250.24,1301.71,306.14Z" style="mix-blend-mode:screen;fill:url(#radial-gradient-125)"/><path d="M1322.35,290.7c.08,68.3,138.44,68.29,138.51,0S1322.42,222.41,1322.35,290.7Z" style="mix-blend-mode:screen;fill:url(#radial-gradient-126)"/><path d="M1252.6,321.48c.08,61.37,124.4,61.36,124.46,0S1252.66,260.11,1252.6,321.48Z" style="mix-blend-mode:screen;fill:url(#radial-gradient-127)"/><path d="M1251.6,300.74c.06,46.28,93.82,46.28,93.86,0S1251.65,254.46,1251.6,300.74Z" style="mix-blend-mode:screen;fill:url(#radial-gradient-128)"/><path d="M1199.38,290.4c.1,85.28,172.86,85.27,172.94,0C1372.22,205.12,1199.46,205.13,1199.38,290.4Z" style="mix-blend-mode:screen;fill:url(#radial-gradient-129)"/><path d="M1244.17,281.51c0,40.37,81.83,40.37,81.87,0S1244.21,241.15,1244.17,281.51Z" style="mix-blend-mode:screen;fill:url(#radial-gradient-130)"/><path d="M1243.05,236.87c.07,61.67,125,61.66,125.07,0S1243.11,175.2,1243.05,236.87Z" style="mix-blend-mode:screen;fill:url(#radial-gradient-131)"/><path d="M1264.13,263.24c.06,50.06,101.48,50.06,101.53,0S1264.18,213.18,1264.13,263.24Z" style="mix-blend-mode:screen;fill:url(#radial-gradient-132)"/><path d="M1272.09,275.84c.08,72.18,146.3,72.17,146.37,0C1418.37,203.67,1272.16,203.68,1272.09,275.84Z" style="mix-blend-mode:screen;fill:url(#radial-gradient-133)"/><path d="M1334.39,243.44c0,42.54,86.23,42.53,86.27,0S1334.43,200.9,1334.39,243.44Z" style="mix-blend-mode:screen;fill:url(#radial-gradient-134)"/><path d="M1312.73,274.36c.1,81.53,165.28,81.53,165.36,0C1478,192.82,1312.81,192.83,1312.73,274.36Z" style="mix-blend-mode:screen;fill:url(#radial-gradient-135)"/></g><g style="opacity:0.8"><path d="M3159.85,308.92c-1.15,67.87-100.47,67.86-101.62,0C3059.39,241.06,3158.71,241.07,3159.85,308.92Z" style="mix-blend-mode:screen;fill:url(#radial-gradient-136)"/><path d="M3126.82,286.73c-1.15,67.82-100.39,67.81-101.54,0C3026.44,218.92,3125.68,218.93,3126.82,286.73Z" style="mix-blend-mode:screen;fill:url(#radial-gradient-137)"/><path d="M3115.15,301.14c-1.51,88.84-131.52,88.82-133,0C2983.64,212.3,3113.65,212.32,3115.15,301.14Z" style="mix-blend-mode:screen;fill:url(#radial-gradient-138)"/><path d="M3060.92,280.64c-.92,53.92-79.83,53.91-80.74,0C2981.09,226.72,3060,226.72,3060.92,280.64Z" style="mix-blend-mode:screen;fill:url(#radial-gradient-139)"/><path d="M3048.3,318.11c-.93,54.49-80.68,54.48-81.6,0C2967.63,263.61,3047.38,263.62,3048.3,318.11Z" style="mix-blend-mode:screen;fill:url(#radial-gradient-140)"/><path d="M3027.46,297.1c-.86,50.29-74.47,50.29-75.32,0C2953,246.8,3026.61,246.81,3027.46,297.1Z" style="mix-blend-mode:screen;fill:url(#radial-gradient-141)"/><path d="M3060.16,284.36c-1.81,106.21-157.25,106.2-159,0C2902.93,178.15,3058.37,178.17,3060.16,284.36Z" style="mix-blend-mode:screen;fill:url(#radial-gradient-142)"/><path d="M3026.11,328c-1.62,95.21-141,95.2-142.56,0C2885.17,232.79,3024.51,232.81,3026.11,328Z" style="mix-blend-mode:screen;fill:url(#radial-gradient-143)"/><path d="M2998.78,277.57c-.9,53.05-78.54,53-79.43,0C2920.25,224.52,2997.89,224.53,2998.78,277.57Z" style="mix-blend-mode:screen;fill:url(#radial-gradient-144)"/><path d="M2971.83,284.63c-1.08,63.26-93.65,63.25-94.72,0C2878.19,221.38,2970.76,221.39,2971.83,284.63Z" style="mix-blend-mode:screen;fill:url(#radial-gradient-145)"/><path d="M3004,299.1c-1.94,114.74-169.86,114.72-171.79,0C2834.14,184.36,3002.06,184.38,3004,299.1Z" style="mix-blend-mode:screen;fill:url(#radial-gradient-146)"/><path d="M2997,319.78c-1.94,113.89-168.62,113.87-170.54,0C2828.42,205.88,2995.1,205.9,2997,319.78Z" style="mix-blend-mode:screen;fill:url(#radial-gradient-147)"/><path d="M2972.33,326.12c-1.71,100.52-148.82,100.5-150.52,0C2823.52,225.6,2970.63,225.61,2972.33,326.12Z" style="mix-blend-mode:screen;fill:url(#radial-gradient-148)"/><path d="M2892,310.25c-.8,46.57-68.94,46.56-69.72,0C2823.09,263.69,2891.23,263.7,2892,310.25Z" style="mix-blend-mode:screen;fill:url(#radial-gradient-149)"/><path d="M2897.41,310.25c-1.35,79.74-118,79.73-119.39,0C2779.38,230.52,2896.07,230.53,2897.41,310.25Z" style="mix-blend-mode:screen;fill:url(#radial-gradient-150)"/><path d="M2847.79,306.42c-1.18,69.27-102.57,69.26-103.73,0C2745.23,237.14,2846.62,237.15,2847.79,306.42Z" style="mix-blend-mode:screen;fill:url(#radial-gradient-151)"/></g></g></g></g></svg>