<svg xmlns="http://www.w3.org/2000/svg" xmlns:xlink="http://www.w3.org/1999/xlink" viewBox="0 0 2238.94 388.2"><defs><radialGradient id="radial-gradient" cx="2062.11" cy="57.88" r="28.47" gradientUnits="userSpaceOnUse"><stop offset="0" stop-color="#fff"/><stop offset="0.82" stop-color="#231f20"/></radialGradient><radialGradient id="radial-gradient-2" cx="2043.49" cy="45.56" r="28.45" xlink:href="#radial-gradient"/><radialGradient id="radial-gradient-3" cx="2028.02" cy="53.56" r="37.27" xlink:href="#radial-gradient"/><radialGradient id="radial-gradient-4" cx="2012.17" cy="42.17" r="22.62" xlink:href="#radial-gradient"/><radialGradient id="radial-gradient-5" cx="2004.8" cy="62.99" r="22.86" xlink:href="#radial-gradient"/><radialGradient id="radial-gradient-6" cx="1994.81" cy="51.32" r="21.1" xlink:href="#radial-gradient"/><radialGradient id="radial-gradient-7" cx="1989.64" cy="44.24" r="44.56" xlink:href="#radial-gradient"/><radialGradient id="radial-gradient-8" cx="1975.07" cy="68.48" r="39.95" xlink:href="#radial-gradient"/><radialGradient id="radial-gradient-9" cx="1977.46" cy="40.47" r="22.26" xlink:href="#radial-gradient"/><radialGradient id="radial-gradient-10" cx="1957.94" cy="44.39" r="26.54" xlink:href="#radial-gradient"/><radialGradient id="radial-gradient-11" cx="1954.34" cy="52.43" r="48.14" xlink:href="#radial-gradient"/><radialGradient id="radial-gradient-12" cx="1950.76" cy="63.92" r="47.79" xlink:href="#radial-gradient"/><radialGradient id="radial-gradient-13" cx="1942.47" cy="67.44" r="42.18" xlink:href="#radial-gradient"/><radialGradient id="radial-gradient-14" cx="1919.94" cy="58.63" r="19.54" xlink:href="#radial-gradient"/><radialGradient id="radial-gradient-15" cx="1908.97" cy="58.63" r="33.45" xlink:href="#radial-gradient"/><radialGradient id="radial-gradient-16" cx="1885.38" cy="56.49" r="29.07" xlink:href="#radial-gradient"/><radialGradient id="radial-gradient-17" cx="2045.73" cy="320.15" r="28.36" gradientTransform="translate(-987.77) scale(1.56 1)" xlink:href="#radial-gradient"/><radialGradient id="radial-gradient-18" cx="2037.32" cy="331.69" r="35.29" gradientTransform="translate(-987.77) scale(1.56 1)" xlink:href="#radial-gradient"/><radialGradient id="radial-gradient-19" cx="2027.11" cy="307.82" r="28.34" gradientTransform="translate(-987.77) scale(1.56 1)" xlink:href="#radial-gradient"/><radialGradient id="radial-gradient-20" cx="2017.14" cy="303.97" r="31.41" gradientTransform="translate(-987.77) scale(1.56 1)" xlink:href="#radial-gradient"/><radialGradient id="radial-gradient-21" cx="2011.63" cy="315.82" r="37.12" gradientTransform="translate(-987.77) scale(1.56 1)" xlink:href="#radial-gradient"/><radialGradient id="radial-gradient-22" cx="2004.03" cy="331.34" r="46.27" gradientTransform="translate(-987.77) scale(1.56 1)" xlink:href="#radial-gradient"/><radialGradient id="radial-gradient-23" cx="1995.78" cy="304.44" r="22.53" gradientTransform="translate(-987.77) scale(1.56 1)" xlink:href="#radial-gradient"/><radialGradient id="radial-gradient-24" cx="1988.42" cy="325.25" r="22.77" gradientTransform="translate(-987.77) scale(1.56 1)" xlink:href="#radial-gradient"/><radialGradient id="radial-gradient-25" cx="1978.43" cy="313.58" r="21.02" gradientTransform="translate(-987.77) scale(1.56 1)" xlink:href="#radial-gradient"/><radialGradient id="radial-gradient-26" cx="1973.26" cy="306.51" r="44.39" gradientTransform="translate(-987.77) scale(1.56 1)" xlink:href="#radial-gradient"/><radialGradient id="radial-gradient-27" cx="1958.69" cy="330.75" r="39.79" gradientTransform="translate(-987.77) scale(1.56 1)" xlink:href="#radial-gradient"/><radialGradient id="radial-gradient-28" cx="1961.08" cy="302.73" r="22.17" gradientTransform="translate(-987.77) scale(1.56 1)" xlink:href="#radial-gradient"/><radialGradient id="radial-gradient-29" cx="1950.41" cy="307.61" r="43.32" gradientTransform="translate(-987.77) scale(1.56 1)" xlink:href="#radial-gradient"/><radialGradient id="radial-gradient-30" cx="1941.55" cy="306.66" r="26.43" gradientTransform="translate(-987.77) scale(1.56 1)" xlink:href="#radial-gradient"/><radialGradient id="radial-gradient-31" cx="1937.95" cy="314.69" r="47.95" gradientTransform="translate(-987.77) scale(1.56 1)" xlink:href="#radial-gradient"/><radialGradient id="radial-gradient-32" cx="1934.37" cy="326.18" r="47.6" gradientTransform="translate(-987.77) scale(1.56 1)" xlink:href="#radial-gradient"/><radialGradient id="radial-gradient-33" cx="1926.09" cy="329.7" r="42.01" gradientTransform="translate(-987.77) scale(1.56 1)" xlink:href="#radial-gradient"/><radialGradient id="radial-gradient-34" cx="1909.55" cy="311.87" r="38.71" gradientTransform="translate(-987.77) scale(1.56 1)" xlink:href="#radial-gradient"/><radialGradient id="radial-gradient-35" cx="1903.56" cy="320.89" r="19.46" gradientTransform="translate(-987.77) scale(1.56 1)" xlink:href="#radial-gradient"/><radialGradient id="radial-gradient-36" cx="1892.59" cy="320.89" r="33.32" gradientTransform="translate(-987.77) scale(1.56 1)" xlink:href="#radial-gradient"/><radialGradient id="radial-gradient-37" cx="1887.59" cy="337.51" r="46.99" gradientTransform="translate(-987.77) scale(1.56 1)" xlink:href="#radial-gradient"/><radialGradient id="radial-gradient-38" cx="1874.79" cy="341.9" r="46.83" gradientTransform="translate(-987.77) scale(1.56 1)" xlink:href="#radial-gradient"/><radialGradient id="radial-gradient-39" cx="1869" cy="318.76" r="28.95" gradientTransform="translate(-987.77) scale(1.56 1)" xlink:href="#radial-gradient"/><radialGradient id="radial-gradient-40" cx="1857.12" cy="327.56" r="47.37" gradientTransform="translate(-987.77) scale(1.56 1)" xlink:href="#radial-gradient"/><radialGradient id="radial-gradient-41" cx="1847.7" cy="338.83" r="30.71" gradientTransform="translate(-987.77) scale(1.56 1)" xlink:href="#radial-gradient"/><radialGradient id="radial-gradient-42" cx="1844.21" cy="309.07" r="40.5" gradientTransform="translate(-987.77) scale(1.56 1)" xlink:href="#radial-gradient"/><radialGradient id="radial-gradient-43" cx="1839.24" cy="309.95" r="32.5" gradientTransform="translate(-987.77) scale(1.56 1)" xlink:href="#radial-gradient"/><radialGradient id="radial-gradient-44" cx="1834.31" cy="306.07" r="32.81" gradientTransform="translate(-987.77) scale(1.56 1)" xlink:href="#radial-gradient"/><radialGradient id="radial-gradient-45" cx="1819.57" cy="317.44" r="23.34" gradientTransform="translate(-987.77) scale(1.56 1)" xlink:href="#radial-gradient"/><radialGradient id="radial-gradient-46" cx="1808.79" cy="324.46" r="30.24" gradientTransform="translate(-987.77) scale(1.56 1)" xlink:href="#radial-gradient"/><radialGradient id="radial-gradient-47" cx="685.62" cy="78.5" r="17.84" gradientTransform="translate(-588.92) scale(1.85 1)" xlink:href="#radial-gradient"/><radialGradient id="radial-gradient-48" cx="673.89" cy="70.74" r="17.83" gradientTransform="translate(-588.92) scale(1.85 1)" xlink:href="#radial-gradient"/><radialGradient id="radial-gradient-49" cx="664.15" cy="75.78" r="23.36" gradientTransform="translate(-588.92) scale(1.85 1)" xlink:href="#radial-gradient"/><radialGradient id="radial-gradient-50" cx="654.17" cy="68.61" r="14.18" gradientTransform="translate(-588.92) scale(1.85 1)" xlink:href="#radial-gradient"/><radialGradient id="radial-gradient-51" cx="649.53" cy="81.71" r="14.33" gradientTransform="translate(-588.92) scale(1.85 1)" xlink:href="#radial-gradient"/><radialGradient id="radial-gradient-52" cx="643.24" cy="74.36" r="13.23" gradientTransform="translate(-588.92) scale(1.85 1)" xlink:href="#radial-gradient"/><radialGradient id="radial-gradient-53" cx="639.98" cy="69.91" r="27.93" gradientTransform="translate(-588.92) scale(1.85 1)" xlink:href="#radial-gradient"/><radialGradient id="radial-gradient-54" cx="630.81" cy="85.17" r="25.03" gradientTransform="translate(-588.92) scale(1.85 1)" xlink:href="#radial-gradient"/><radialGradient id="radial-gradient-55" cx="632.31" cy="67.53" r="13.95" gradientTransform="translate(-588.92) scale(1.85 1)" xlink:href="#radial-gradient"/><radialGradient id="radial-gradient-56" cx="620.02" cy="70" r="16.63" gradientTransform="translate(-588.92) scale(1.85 1)" xlink:href="#radial-gradient"/><radialGradient id="radial-gradient-57" cx="617.75" cy="75.07" r="30.17" gradientTransform="translate(-588.92) scale(1.85 1)" xlink:href="#radial-gradient"/><radialGradient id="radial-gradient-58" cx="615.5" cy="82.3" r="29.95" gradientTransform="translate(-588.92) scale(1.85 1)" xlink:href="#radial-gradient"/><radialGradient id="radial-gradient-59" cx="610.28" cy="84.52" r="26.43" gradientTransform="translate(-588.92) scale(1.85 1)" xlink:href="#radial-gradient"/><radialGradient id="radial-gradient-60" cx="596.1" cy="78.97" r="12.24" gradientTransform="translate(-588.92) scale(1.85 1)" xlink:href="#radial-gradient"/><radialGradient id="radial-gradient-61" cx="589.19" cy="78.97" r="20.97" gradientTransform="translate(-588.92) scale(1.85 1)" xlink:href="#radial-gradient"/><radialGradient id="radial-gradient-62" cx="574.33" cy="77.62" r="18.22" gradientTransform="translate(-588.92) scale(1.85 1)" xlink:href="#radial-gradient"/><radialGradient id="radial-gradient-63" cx="1039.72" cy="266.32" r="24.43" gradientTransform="matrix(-1.29, 0, 0, 1, 1372.08, 0)" xlink:href="#radial-gradient"/><radialGradient id="radial-gradient-64" cx="1025.29" cy="248.46" r="22.86" gradientTransform="matrix(-1.29, 0, 0, 1, 1372.08, 0)" xlink:href="#radial-gradient"/><radialGradient id="radial-gradient-65" cx="1012.8" cy="258.78" r="32.36" gradientTransform="matrix(-1.29, 0, 0, 1, 1372.08, 0)" xlink:href="#radial-gradient"/><radialGradient id="radial-gradient-66" cx="977.58" cy="247.55" r="43.38" gradientTransform="matrix(-1.29, 0, 0, 1, 1372.08, 0)" xlink:href="#radial-gradient"/><radialGradient id="radial-gradient-67" cx="998.41" cy="271.22" r="27.12" gradientTransform="matrix(-1.29, 0, 0, 1, 1372.08, 0)" xlink:href="#radial-gradient"/><radialGradient id="radial-gradient-68" cx="985.88" cy="267.2" r="28.5" gradientTransform="matrix(-1.29, 0, 0, 1, 1372.08, 0)" xlink:href="#radial-gradient"/><radialGradient id="radial-gradient-69" cx="978.34" cy="265.83" r="38.81" gradientTransform="matrix(-1.29, 0, 0, 1, 1372.08, 0)" xlink:href="#radial-gradient"/><radialGradient id="radial-gradient-70" cx="969.72" cy="255.97" r="40.93" gradientTransform="matrix(-1.29, 0, 0, 1, 1372.08, 0)" xlink:href="#radial-gradient"/><radialGradient id="radial-gradient-71" cx="953.64" cy="265.64" r="46.37" gradientTransform="matrix(-1.29, 0, 0, 1, 1372.08, 0)" xlink:href="#radial-gradient"/><radialGradient id="radial-gradient-72" cx="940.01" cy="268.74" r="20.97" gradientTransform="matrix(-1.29, 0, 0, 1, 1372.08, 0)" xlink:href="#radial-gradient"/><radialGradient id="radial-gradient-73" cx="947.15" cy="244.85" r="30.12" gradientTransform="matrix(-1.29, 0, 0, 1, 1372.08, 0)" xlink:href="#radial-gradient"/><radialGradient id="radial-gradient-74" cx="934.74" cy="241.82" r="27.78" gradientTransform="matrix(-1.29, 0, 0, 1, 1372.08, 0)" xlink:href="#radial-gradient"/><radialGradient id="radial-gradient-75" cx="920.65" cy="256.1" r="33.91" gradientTransform="matrix(-1.29, 0, 0, 1, 1372.08, 0)" xlink:href="#radial-gradient"/><radialGradient id="radial-gradient-76" cx="917.91" cy="227.76" r="32.85" gradientTransform="matrix(-1.29, 0, 0, 1, 1372.08, 0)" xlink:href="#radial-gradient"/><radialGradient id="radial-gradient-77" cx="901.04" cy="255.18" r="46.61" gradientTransform="matrix(-1.29, 0, 0, 1, 1372.08, 0)" xlink:href="#radial-gradient"/><radialGradient id="radial-gradient-78" cx="885.63" cy="247.99" r="22" gradientTransform="matrix(-1.29, 0, 0, 1, 1372.08, 0)" xlink:href="#radial-gradient"/><radialGradient id="radial-gradient-79" cx="876.34" cy="238.52" r="25.32" gradientTransform="matrix(-1.29, 0, 0, 1, 1372.08, 0)" xlink:href="#radial-gradient"/><radialGradient id="radial-gradient-80" cx="864.41" cy="257.34" r="25.46" gradientTransform="matrix(-1.29, 0, 0, 1, 1372.08, 0)" xlink:href="#radial-gradient"/><radialGradient id="radial-gradient-81" cx="848.33" cy="240.35" r="25.12" gradientTransform="matrix(-1.29, 0, 0, 1, 1372.08, 0)" xlink:href="#radial-gradient"/><radialGradient id="radial-gradient-82" cx="851.02" cy="268.41" r="25.3" gradientTransform="matrix(-1.29, 0, 0, 1, 1372.08, 0)" xlink:href="#radial-gradient"/><radialGradient id="radial-gradient-83" cx="836.04" cy="259.19" r="30.91" gradientTransform="matrix(-1.29, 0, 0, 1, 1372.08, 0)" xlink:href="#radial-gradient"/><radialGradient id="radial-gradient-84" cx="870.66" cy="277.57" r="27.77" gradientTransform="matrix(-1.29, 0, 0, 1, 1372.08, 0)" xlink:href="#radial-gradient"/><radialGradient id="radial-gradient-85" cx="878.01" cy="265.19" r="20.94" gradientTransform="matrix(-1.29, 0, 0, 1, 1372.08, 0)" xlink:href="#radial-gradient"/><radialGradient id="radial-gradient-86" cx="883.73" cy="259.01" r="38.59" gradientTransform="matrix(-1.29, 0, 0, 1, 1372.08, 0)" xlink:href="#radial-gradient"/><radialGradient id="radial-gradient-87" cx="884.07" cy="253.71" r="18.27" gradientTransform="matrix(-1.29, 0, 0, 1, 1372.08, 0)" xlink:href="#radial-gradient"/><radialGradient id="radial-gradient-88" cx="874.83" cy="227.06" r="27.91" gradientTransform="matrix(-1.29, 0, 0, 1, 1372.08, 0)" xlink:href="#radial-gradient"/><radialGradient id="radial-gradient-89" cx="870.63" cy="242.8" r="22.66" gradientTransform="matrix(-1.29, 0, 0, 1, 1372.08, 0)" xlink:href="#radial-gradient"/><radialGradient id="radial-gradient-90" cx="856.93" cy="250.32" r="32.66" gradientTransform="matrix(-1.29, 0, 0, 1, 1372.08, 0)" xlink:href="#radial-gradient"/><radialGradient id="radial-gradient-91" cx="842.39" cy="230.98" r="19.25" gradientTransform="matrix(-1.29, 0, 0, 1, 1372.08, 0)" xlink:href="#radial-gradient"/><radialGradient id="radial-gradient-92" cx="834.32" cy="249.44" r="36.9" gradientTransform="matrix(-1.29, 0, 0, 1, 1372.08, 0)" xlink:href="#radial-gradient"/><radialGradient id="radial-gradient-93" cx="-955.16" cy="-662.93" r="24.44" gradientTransform="matrix(-0.81, 0.06, -0.06, -0.72, -115.91, -210.94)" xlink:href="#radial-gradient"/><radialGradient id="radial-gradient-94" cx="-969.59" cy="-680.79" r="22.87" gradientTransform="matrix(-0.81, 0.06, -0.06, -0.72, -115.91, -210.94)" xlink:href="#radial-gradient"/><radialGradient id="radial-gradient-95" cx="-982.09" cy="-670.47" r="32.37" gradientTransform="matrix(-0.81, 0.06, -0.06, -0.72, -115.91, -210.94)" xlink:href="#radial-gradient"/><radialGradient id="radial-gradient-96" cx="-1017.31" cy="-681.7" r="43.4" gradientTransform="matrix(-0.81, 0.06, -0.06, -0.72, -115.91, -210.94)" xlink:href="#radial-gradient"/><radialGradient id="radial-gradient-97" cx="-996.48" cy="-658.04" r="27.13" gradientTransform="matrix(-0.81, 0.06, -0.06, -0.72, -115.91, -210.94)" xlink:href="#radial-gradient"/><radialGradient id="radial-gradient-98" cx="-1009.01" cy="-662.05" r="28.51" gradientTransform="matrix(-0.81, 0.06, -0.06, -0.72, -115.91, -210.94)" xlink:href="#radial-gradient"/><radialGradient id="radial-gradient-99" cx="-1016.54" cy="-663.43" r="38.83" gradientTransform="matrix(-0.81, 0.06, -0.06, -0.72, -115.91, -210.94)" xlink:href="#radial-gradient"/><radialGradient id="radial-gradient-100" cx="-1025.17" cy="-673.28" r="40.95" gradientTransform="matrix(-0.81, 0.06, -0.06, -0.72, -115.91, -210.94)" xlink:href="#radial-gradient"/><radialGradient id="radial-gradient-101" cx="-1041.24" cy="-663.61" r="46.39" gradientTransform="matrix(-0.81, 0.06, -0.06, -0.72, -115.91, -210.94)" xlink:href="#radial-gradient"/><radialGradient id="radial-gradient-102" cx="-1054.88" cy="-660.52" r="20.97" gradientTransform="matrix(-0.81, 0.06, -0.06, -0.72, -115.91, -210.94)" xlink:href="#radial-gradient"/><radialGradient id="radial-gradient-103" cx="-1047.74" cy="-684.41" r="30.13" gradientTransform="matrix(-0.81, 0.06, -0.06, -0.72, -115.91, -210.94)" xlink:href="#radial-gradient"/><radialGradient id="radial-gradient-104" cx="-1060.15" cy="-687.43" r="27.8" gradientTransform="matrix(-0.81, 0.06, -0.06, -0.72, -115.91, -210.94)" xlink:href="#radial-gradient"/><radialGradient id="radial-gradient-105" cx="-1074.23" cy="-673.16" r="33.92" gradientTransform="matrix(-0.81, 0.06, -0.06, -0.72, -115.91, -210.94)" xlink:href="#radial-gradient"/><radialGradient id="radial-gradient-106" cx="-1076.98" cy="-701.49" r="32.86" gradientTransform="matrix(-0.81, 0.06, -0.06, -0.72, -115.91, -210.94)" xlink:href="#radial-gradient"/><radialGradient id="radial-gradient-107" cx="-1093.84" cy="-674.07" r="46.63" gradientTransform="matrix(-0.81, 0.06, -0.06, -0.72, -115.91, -210.94)" xlink:href="#radial-gradient"/><radialGradient id="radial-gradient-108" cx="-1109.25" cy="-681.26" r="22" gradientTransform="matrix(-0.81, 0.06, -0.06, -0.72, -115.91, -210.94)" xlink:href="#radial-gradient"/><radialGradient id="radial-gradient-109" cx="-1118.54" cy="-690.74" r="25.33" gradientTransform="matrix(-0.81, 0.06, -0.06, -0.72, -115.91, -210.94)" xlink:href="#radial-gradient"/><radialGradient id="radial-gradient-110" cx="-1130.48" cy="-671.92" r="25.47" gradientTransform="matrix(-0.81, 0.06, -0.06, -0.72, -115.91, -210.94)" xlink:href="#radial-gradient"/><radialGradient id="radial-gradient-111" cx="-1146.56" cy="-688.9" r="25.13" gradientTransform="matrix(-0.81, 0.06, -0.06, -0.72, -115.91, -210.94)" xlink:href="#radial-gradient"/><radialGradient id="radial-gradient-112" cx="-1143.87" cy="-660.84" r="25.31" gradientTransform="matrix(-0.81, 0.06, -0.06, -0.72, -115.91, -210.94)" xlink:href="#radial-gradient"/><radialGradient id="radial-gradient-113" cx="-1158.84" cy="-670.06" r="30.92" gradientTransform="matrix(-0.81, 0.06, -0.06, -0.72, -115.91, -210.94)" xlink:href="#radial-gradient"/><radialGradient id="radial-gradient-114" cx="-1124.22" cy="-651.69" r="27.79" gradientTransform="matrix(-0.81, 0.06, -0.06, -0.72, -115.91, -210.94)" xlink:href="#radial-gradient"/><radialGradient id="radial-gradient-115" cx="-1116.87" cy="-664.07" r="20.95" gradientTransform="matrix(-0.81, 0.06, -0.06, -0.72, -115.91, -210.94)" xlink:href="#radial-gradient"/><radialGradient id="radial-gradient-116" cx="-1111.15" cy="-670.24" r="38.61" gradientTransform="matrix(-0.81, 0.06, -0.06, -0.72, -115.91, -210.94)" xlink:href="#radial-gradient"/><radialGradient id="radial-gradient-117" cx="-1110.82" cy="-675.54" r="18.28" gradientTransform="matrix(-0.81, 0.06, -0.06, -0.72, -115.91, -210.94)" xlink:href="#radial-gradient"/><radialGradient id="radial-gradient-118" cx="-1120.05" cy="-702.2" r="27.92" gradientTransform="matrix(-0.81, 0.06, -0.06, -0.72, -115.91, -210.94)" xlink:href="#radial-gradient"/><radialGradient id="radial-gradient-119" cx="-1124.25" cy="-686.45" r="22.67" gradientTransform="matrix(-0.81, 0.06, -0.06, -0.72, -115.91, -210.94)" xlink:href="#radial-gradient"/><radialGradient id="radial-gradient-120" cx="-1137.95" cy="-678.93" r="32.68" gradientTransform="matrix(-0.81, 0.06, -0.06, -0.72, -115.91, -210.94)" xlink:href="#radial-gradient"/><radialGradient id="radial-gradient-121" cx="-1152.5" cy="-698.27" r="19.26" gradientTransform="matrix(-0.81, 0.06, -0.06, -0.72, -115.91, -210.94)" xlink:href="#radial-gradient"/><radialGradient id="radial-gradient-122" cx="-1160.56" cy="-679.81" r="36.92" gradientTransform="matrix(-0.81, 0.06, -0.06, -0.72, -115.91, -210.94)" xlink:href="#radial-gradient"/><radialGradient id="radial-gradient-123" cx="659.55" cy="203.67" r="22.87" gradientTransform="translate(599.25 30.77) scale(0.88 0.72)" xlink:href="#radial-gradient"/><radialGradient id="radial-gradient-124" cx="647.06" cy="213.98" r="32.37" gradientTransform="translate(599.25 30.77) scale(0.88 0.72)" xlink:href="#radial-gradient"/><radialGradient id="radial-gradient-125" cx="611.84" cy="202.75" r="43.39" gradientTransform="translate(599.25 30.77) scale(0.88 0.72)" xlink:href="#radial-gradient"/><radialGradient id="radial-gradient-126" cx="632.67" cy="226.42" r="27.13" gradientTransform="translate(599.25 30.77) scale(0.88 0.72)" xlink:href="#radial-gradient"/><radialGradient id="radial-gradient-127" cx="620.14" cy="222.4" r="28.5" gradientTransform="translate(599.25 30.77) scale(0.88 0.72)" xlink:href="#radial-gradient"/><radialGradient id="radial-gradient-128" cx="612.6" cy="221.03" r="38.82" gradientTransform="translate(599.25 30.77) scale(0.88 0.72)" xlink:href="#radial-gradient"/><radialGradient id="radial-gradient-129" cx="603.98" cy="211.17" r="40.94" gradientTransform="translate(599.25 30.77) scale(0.88 0.72)" xlink:href="#radial-gradient"/><radialGradient id="radial-gradient-130" cx="587.9" cy="220.84" r="46.38" gradientTransform="translate(599.25 30.77) scale(0.88 0.72)" xlink:href="#radial-gradient"/><radialGradient id="radial-gradient-131" cx="574.27" cy="223.94" r="20.97" gradientTransform="translate(599.25 30.77) scale(0.88 0.72)" xlink:href="#radial-gradient"/><radialGradient id="radial-gradient-132" cx="581.41" cy="200.05" r="30.12" gradientTransform="translate(599.25 30.77) scale(0.88 0.72)" xlink:href="#radial-gradient"/><radialGradient id="radial-gradient-133" cx="569" cy="197.02" r="27.79" gradientTransform="translate(599.25 30.77) scale(0.88 0.72)" xlink:href="#radial-gradient"/><radialGradient id="radial-gradient-134" cx="554.91" cy="211.3" r="33.91" gradientTransform="translate(599.25 30.77) scale(0.88 0.72)" xlink:href="#radial-gradient"/><radialGradient id="radial-gradient-135" cx="552.17" cy="182.96" r="32.85" gradientTransform="translate(599.25 30.77) scale(0.88 0.72)" xlink:href="#radial-gradient"/><radialGradient id="radial-gradient-136" cx="535.3" cy="210.38" r="46.62" gradientTransform="translate(599.25 30.77) scale(0.88 0.72)" xlink:href="#radial-gradient"/><radialGradient id="radial-gradient-137" cx="519.89" cy="203.19" r="22" gradientTransform="translate(599.25 30.77) scale(0.88 0.72)" xlink:href="#radial-gradient"/><radialGradient id="radial-gradient-138" cx="510.6" cy="193.72" r="25.32" gradientTransform="translate(599.25 30.77) scale(0.88 0.72)" xlink:href="#radial-gradient"/><radialGradient id="radial-gradient-139" cx="498.67" cy="212.54" r="25.47" gradientTransform="translate(599.25 30.77) scale(0.88 0.72)" xlink:href="#radial-gradient"/><radialGradient id="radial-gradient-140" cx="482.59" cy="195.55" r="25.13" gradientTransform="translate(599.25 30.77) scale(0.88 0.72)" xlink:href="#radial-gradient"/><radialGradient id="radial-gradient-141" cx="485.28" cy="223.61" r="25.3" gradientTransform="translate(599.25 30.77) scale(0.88 0.72)" xlink:href="#radial-gradient"/><radialGradient id="radial-gradient-142" cx="470.3" cy="214.39" r="30.91" gradientTransform="translate(599.25 30.77) scale(0.88 0.72)" xlink:href="#radial-gradient"/><radialGradient id="radial-gradient-143" cx="504.92" cy="232.77" r="27.78" gradientTransform="translate(599.25 30.77) scale(0.88 0.72)" xlink:href="#radial-gradient"/><radialGradient id="radial-gradient-144" cx="512.27" cy="220.39" r="20.95" gradientTransform="translate(599.25 30.77) scale(0.88 0.72)" xlink:href="#radial-gradient"/><radialGradient id="radial-gradient-145" cx="517.99" cy="214.21" r="38.6" gradientTransform="translate(599.25 30.77) scale(0.88 0.72)" xlink:href="#radial-gradient"/><radialGradient id="radial-gradient-146" cx="518.33" cy="208.91" r="18.27" gradientTransform="translate(599.25 30.77) scale(0.88 0.72)" xlink:href="#radial-gradient"/><radialGradient id="radial-gradient-147" cx="509.09" cy="182.26" r="27.92" gradientTransform="translate(599.25 30.77) scale(0.88 0.72)" xlink:href="#radial-gradient"/><radialGradient id="radial-gradient-148" cx="504.89" cy="198" r="22.66" gradientTransform="translate(599.25 30.77) scale(0.88 0.72)" xlink:href="#radial-gradient"/><radialGradient id="radial-gradient-149" cx="491.19" cy="205.52" r="32.67" gradientTransform="translate(599.25 30.77) scale(0.88 0.72)" xlink:href="#radial-gradient"/><radialGradient id="radial-gradient-150" cx="476.65" cy="186.18" r="19.26" gradientTransform="translate(599.25 30.77) scale(0.88 0.72)" xlink:href="#radial-gradient"/><radialGradient id="radial-gradient-151" cx="468.58" cy="204.64" r="36.91" gradientTransform="translate(599.25 30.77) scale(0.88 0.72)" xlink:href="#radial-gradient"/></defs><g style="isolation:isolate"><g id="Layer_2" data-name="Layer 2"><g id="CloudsFar"><g style="opacity:0.89"><path d="M2090.79,57.89c-.64,37.69-56.72,37.69-57.35,0C2034.08,20.19,2090.15,20.19,2090.79,57.89Z" style="mix-blend-mode:screen;fill:url(#radial-gradient)"/><path d="M2072.15,45.56c-.64,37.67-56.67,37.66-57.31,0C2015.48,7.89,2071.51,7.9,2072.15,45.56Z" style="mix-blend-mode:screen;fill:url(#radial-gradient-2)"/><path d="M2065.56,53.56c-.84,49.35-74.24,49.34-75.08,0C1991.32,4.22,2064.72,4.23,2065.56,53.56Z" style="mix-blend-mode:screen;fill:url(#radial-gradient-3)"/><path d="M2035,42.17c-.51,30-45.06,30-45.57,0C1989.89,12.22,2034.44,12.23,2035,42.17Z" style="mix-blend-mode:screen;fill:url(#radial-gradient-4)"/><path d="M2027.83,63c-.52,30.27-45.54,30.26-46.06,0C1982.29,32.72,2027.31,32.72,2027.83,63Z" style="mix-blend-mode:screen;fill:url(#radial-gradient-5)"/><path d="M2016.06,51.32c-.47,27.94-42,27.93-42.5,0C1974,23.38,2015.59,23.38,2016.06,51.32Z" style="mix-blend-mode:screen;fill:url(#radial-gradient-6)"/><path d="M2034.52,44.24c-1,59-88.76,59-89.76,0C1945.77-14.75,2033.52-14.74,2034.52,44.24Z" style="mix-blend-mode:screen;fill:url(#radial-gradient-7)"/><path d="M2015.31,68.48c-.91,52.89-79.57,52.88-80.47,0C1935.74,15.6,2014.41,15.61,2015.31,68.48Z" style="mix-blend-mode:screen;fill:url(#radial-gradient-8)"/><path d="M1999.88,40.47c-.5,29.47-44.34,29.46-44.83,0C1955.55,11,1999.38,11,1999.88,40.47Z" style="mix-blend-mode:screen;fill:url(#radial-gradient-9)"/><path d="M1984.67,44.39c-.6,35.14-52.87,35.13-53.46,0C1931.81,9.26,1984.07,9.26,1984.67,44.39Z" style="mix-blend-mode:screen;fill:url(#radial-gradient-10)"/><path d="M2002.82,52.43c-1.09,63.73-95.89,63.72-97,0C1906.94-11.3,2001.74-11.29,2002.82,52.43Z" style="mix-blend-mode:screen;fill:url(#radial-gradient-11)"/><path d="M1998.89,63.92c-1.09,63.26-95.19,63.25-96.26,0C1903.71.65,1997.81.66,1998.89,63.92Z" style="mix-blend-mode:screen;fill:url(#radial-gradient-12)"/><path d="M1985,67.44c-1,55.83-84,55.82-85,0C1901,11.6,1984,11.61,1985,67.44Z" style="mix-blend-mode:screen;fill:url(#radial-gradient-13)"/><path d="M1939.62,58.63c-.44,25.86-38.91,25.85-39.35,0C1900.71,32.76,1939.18,32.77,1939.62,58.63Z" style="mix-blend-mode:screen;fill:url(#radial-gradient-14)"/><path d="M1942.66,58.63c-.75,44.28-66.63,44.28-67.38,0C1876,14.34,1941.91,14.34,1942.66,58.63Z" style="mix-blend-mode:screen;fill:url(#radial-gradient-15)"/><path d="M1914.66,56.49c-.66,38.48-57.9,38.48-58.55,0C1856.76,18,1914,18,1914.66,56.49Z" style="mix-blend-mode:screen;fill:url(#radial-gradient-16)"/></g><g style="opacity:0.51"><path d="M2238.94,320.15c.1,37.39-89.33,37.38-89.22,0C2149.62,282.76,2239.05,282.76,2238.94,320.15Z" style="mix-blend-mode:screen;fill:url(#radial-gradient-17)"/><path d="M2236.75,331.69c.13,46.53-111.15,46.52-111,0C2125.61,285.17,2236.9,285.17,2236.75,331.69Z" style="mix-blend-mode:screen;fill:url(#radial-gradient-18)"/><path d="M2209.94,307.82c.11,37.36-89.26,37.36-89.14,0C2120.69,270.46,2210.06,270.47,2209.94,307.82Z" style="mix-blend-mode:screen;fill:url(#radial-gradient-19)"/><path d="M2199.28,304c.11,41.42-99,41.42-98.82,0C2100.34,262.56,2199.4,262.56,2199.28,304Z" style="mix-blend-mode:screen;fill:url(#radial-gradient-20)"/><path d="M2199.69,315.82c.14,48.95-116.93,48.94-116.78,0C2082.77,266.88,2199.84,266.89,2199.69,315.82Z" style="mix-blend-mode:screen;fill:url(#radial-gradient-21)"/><path d="M2202.25,331.34c.17,61-145.75,61-145.56,0C2056.51,270.33,2202.44,270.34,2202.25,331.34Z" style="mix-blend-mode:screen;fill:url(#radial-gradient-22)"/><path d="M2152.08,304.44c.09,29.71-71,29.7-70.88,0C2081.11,274.73,2152.17,274.73,2152.08,304.44Z" style="mix-blend-mode:screen;fill:url(#radial-gradient-23)"/><path d="M2141,325.25c.09,30-71.73,30-71.63,0C2069.28,295.23,2141.09,295.23,2141,325.25Z" style="mix-blend-mode:screen;fill:url(#radial-gradient-24)"/><path d="M2122.7,313.58c.08,27.71-66.2,27.71-66.12,0S2122.79,285.87,2122.7,313.58Z" style="mix-blend-mode:screen;fill:url(#radial-gradient-25)"/><path d="M2151.41,306.51c.17,58.51-139.8,58.5-139.62,0C2011.63,248,2151.59,248,2151.41,306.51Z" style="mix-blend-mode:screen;fill:url(#radial-gradient-26)"/><path d="M2121.52,330.75c.15,52.45-125.32,52.45-125.16,0C1996.22,278.29,2121.69,278.3,2121.52,330.75Z" style="mix-blend-mode:screen;fill:url(#radial-gradient-27)"/><path d="M2097.53,302.73c.08,29.23-69.83,29.22-69.74,0C2027.71,273.5,2097.62,273.51,2097.53,302.73Z" style="mix-blend-mode:screen;fill:url(#radial-gradient-28)"/><path d="M2114.19,307.61c.16,57.11-136.44,57.1-136.26,0C1977.77,250.5,2114.37,250.51,2114.19,307.61Z" style="mix-blend-mode:screen;fill:url(#radial-gradient-29)"/><path d="M2073.86,306.66c.1,34.85-83.26,34.84-83.15,0C1990.61,271.81,2074,271.81,2073.86,306.66Z" style="mix-blend-mode:screen;fill:url(#radial-gradient-30)"/><path d="M2102.11,314.69c.18,63.22-151,63.21-150.83,0C1951.1,251.48,2102.3,251.49,2102.11,314.69Z" style="mix-blend-mode:screen;fill:url(#radial-gradient-31)"/><path d="M2096,326.18c.18,62.75-149.92,62.74-149.72,0C1946.08,263.43,2096.18,263.44,2096,326.18Z" style="mix-blend-mode:screen;fill:url(#radial-gradient-32)"/><path d="M2074.3,329.7c.16,55.38-132.31,55.38-132.14,0C1942,274.32,2074.47,274.33,2074.3,329.7Z" style="mix-blend-mode:screen;fill:url(#radial-gradient-33)"/><path d="M2043.41,311.87c.14,51-121.94,51-121.79,0C1921.48,260.83,2043.56,260.84,2043.41,311.87Z" style="mix-blend-mode:screen;fill:url(#radial-gradient-34)"/><path d="M2003.79,320.89c.08,25.65-61.28,25.65-61.2,0C1942.51,295.24,2003.87,295.24,2003.79,320.89Z" style="mix-blend-mode:screen;fill:url(#radial-gradient-35)"/><path d="M2008.53,320.89c.12,43.93-105,43.92-104.82,0C1903.59,277,2008.67,277,2008.53,320.89Z" style="mix-blend-mode:screen;fill:url(#radial-gradient-36)"/><path d="M2022.26,337.51c.17,61.95-148,61.94-147.82,0C1874.27,275.55,2022.45,275.56,2022.26,337.51Z" style="mix-blend-mode:screen;fill:url(#radial-gradient-37)"/><path d="M2002.08,341.9c.18,61.74-147.49,61.73-147.3,0C1854.61,280.17,2002.27,280.18,2002.08,341.9Z" style="mix-blend-mode:screen;fill:url(#radial-gradient-38)"/><path d="M1965,318.76c.1,38.17-91.19,38.16-91.08,0C1873.79,280.59,1965.08,280.59,1965,318.76Z" style="mix-blend-mode:screen;fill:url(#radial-gradient-39)"/><path d="M1975.45,327.56c.18,62.44-149.18,62.44-149,0C1826.28,265.11,1975.65,265.12,1975.45,327.56Z" style="mix-blend-mode:screen;fill:url(#radial-gradient-40)"/><path d="M1934.6,338.83c.11,40.49-96.73,40.49-96.61,0C1837.88,298.34,1934.73,298.35,1934.6,338.83Z" style="mix-blend-mode:screen;fill:url(#radial-gradient-41)"/><path d="M1944.58,309.07c.15,53.4-127.58,53.39-127.42,0C1817,255.67,1944.74,255.68,1944.58,309.07Z" style="mix-blend-mode:screen;fill:url(#radial-gradient-42)"/><path d="M1924.27,310c.12,42.85-102.37,42.85-102.24,0C1821.91,267.1,1924.4,267.11,1924.27,310Z" style="mix-blend-mode:screen;fill:url(#radial-gradient-43)"/><path d="M1917.08,306.07c.12,43.25-103.35,43.25-103.21,0C1813.74,262.81,1917.21,262.82,1917.08,306.07Z" style="mix-blend-mode:screen;fill:url(#radial-gradient-44)"/><path d="M1879.25,317.44c.08,30.77-73.51,30.77-73.41,0C1805.75,286.68,1879.34,286.68,1879.25,317.44Z" style="mix-blend-mode:screen;fill:url(#radial-gradient-45)"/><path d="M1873.34,324.46c.11,39.87-95.26,39.86-95.13,0C1778.1,284.59,1873.46,284.59,1873.34,324.46Z" style="mix-blend-mode:screen;fill:url(#radial-gradient-46)"/></g><g style="opacity:0.49"><path d="M712.82,78.5c.23,23.51-67,23.5-66.81,0C645.79,55,713.05,55,712.82,78.5Z" style="mix-blend-mode:screen;fill:url(#radial-gradient-47)"/><path d="M691.11,70.74c.22,23.49-67,23.48-66.76,0C624.13,47.25,691.34,47.25,691.11,70.74Z" style="mix-blend-mode:screen;fill:url(#radial-gradient-48)"/><path d="M683.43,75.78c.29,30.77-87.75,30.76-87.45,0C595.69,45,683.73,45,683.43,75.78Z" style="mix-blend-mode:screen;fill:url(#radial-gradient-49)"/><path d="M647.78,68.61c.17,18.67-53.27,18.67-53.09,0C594.52,49.93,648,49.93,647.78,68.61Z" style="mix-blend-mode:screen;fill:url(#radial-gradient-50)"/><path d="M639.48,81.71c.18,18.88-53.83,18.87-53.65,0C585.66,62.84,639.66,62.84,639.48,81.71Z" style="mix-blend-mode:screen;fill:url(#radial-gradient-51)"/><path d="M625.78,74.36c.16,17.43-49.69,17.42-49.52,0C576.1,56.94,626,57,625.78,74.36Z" style="mix-blend-mode:screen;fill:url(#radial-gradient-52)"/><path d="M647.28,69.91c.34,36.79-104.92,36.78-104.56,0C542.37,33.12,647.64,33.13,647.28,69.91Z" style="mix-blend-mode:screen;fill:url(#radial-gradient-53)"/><path d="M624.89,85.17c.31,33-94,33-93.73,0C530.85,52.2,625.22,52.2,624.89,85.17Z" style="mix-blend-mode:screen;fill:url(#radial-gradient-54)"/><path d="M606.92,67.53c.18,18.38-52.4,18.38-52.22,0C554.53,49.16,607.1,49.16,606.92,67.53Z" style="mix-blend-mode:screen;fill:url(#radial-gradient-55)"/><path d="M589.2,70c.21,21.91-62.48,21.91-62.27,0C526.72,48.09,589.42,48.1,589.2,70Z" style="mix-blend-mode:screen;fill:url(#radial-gradient-56)"/><path d="M610.35,75.07c.38,39.74-113.34,39.73-113,0C497,35.32,610.74,35.33,610.35,75.07Z" style="mix-blend-mode:screen;fill:url(#radial-gradient-57)"/><path d="M605.77,82.3c.37,39.45-112.51,39.44-112.13,0C493.27,42.85,606.15,42.85,605.77,82.3Z" style="mix-blend-mode:screen;fill:url(#radial-gradient-58)"/><path d="M589.53,84.52c.33,34.81-99.3,34.81-99,0C490.24,49.7,589.87,49.7,589.53,84.52Z" style="mix-blend-mode:screen;fill:url(#radial-gradient-59)"/><path d="M536.73,79c.15,16.12-46,16.12-45.84,0C490.74,62.84,536.89,62.84,536.73,79Z" style="mix-blend-mode:screen;fill:url(#radial-gradient-60)"/><path d="M540.28,79c.26,27.61-78.77,27.61-78.5,0C461.52,51.35,540.54,51.35,540.28,79Z" style="mix-blend-mode:screen;fill:url(#radial-gradient-61)"/><path d="M507.65,77.62c.23,24-68.44,24-68.2,0C439.22,53.63,507.88,53.63,507.65,77.62Z" style="mix-blend-mode:screen;fill:url(#radial-gradient-62)"/></g><g style="opacity:0.48"><path d="M0,266.32c.05,32.24,63.6,32.24,63.65,0S.05,234.09,0,266.32Z" style="mix-blend-mode:screen;fill:url(#radial-gradient-63)"/><path d="M20.64,248.47c.05,30.16,59.51,30.16,59.56,0S20.68,218.3,20.64,248.47Z" style="mix-blend-mode:screen;fill:url(#radial-gradient-64)"/><path d="M24.38,258.78c.07,42.7,84.23,42.69,84.29,0S24.44,216.09,24.38,258.78Z" style="mix-blend-mode:screen;fill:url(#radial-gradient-65)"/><path d="M55.43,247.55c.09,57.24,112.91,57.23,113,0C168.33,190.32,55.51,190.33,55.43,247.55Z" style="mix-blend-mode:screen;fill:url(#radial-gradient-66)"/><path d="M49.75,271.22c.06,35.78,70.6,35.78,70.65,0S49.8,235.44,49.75,271.22Z" style="mix-blend-mode:screen;fill:url(#radial-gradient-67)"/><path d="M64.11,267.2c.06,37.6,74.18,37.6,74.24,0S64.16,229.61,64.11,267.2Z" style="mix-blend-mode:screen;fill:url(#radial-gradient-68)"/><path d="M60.39,265.83c.09,51.2,101,51.2,101.1,0C161.41,214.62,60.47,214.63,60.39,265.83Z" style="mix-blend-mode:screen;fill:url(#radial-gradient-69)"/><path d="M68.74,256c.09,54,106.56,54,106.64,0C175.29,202,68.82,202,68.74,256Z" style="mix-blend-mode:screen;fill:url(#radial-gradient-70)"/><path d="M82.38,265.64c.1,61.19,120.71,61.18,120.8,0C203.08,204.46,82.47,204.47,82.38,265.64Z" style="mix-blend-mode:screen;fill:url(#radial-gradient-71)"/><path d="M133.05,268.74c0,27.66,54.58,27.66,54.62,0S133.09,241.08,133.05,268.74Z" style="mix-blend-mode:screen;fill:url(#radial-gradient-72)"/><path d="M111.93,244.85c.06,39.74,78.4,39.73,78.46,0S112,205.11,111.93,244.85Z" style="mix-blend-mode:screen;fill:url(#radial-gradient-73)"/><path d="M131,241.82c.06,36.66,72.31,36.65,72.37,0S131,205.17,131,241.82Z" style="mix-blend-mode:screen;fill:url(#radial-gradient-74)"/><path d="M141.14,256.1c.08,44.73,88.26,44.73,88.33,0C229.39,211.36,141.21,211.37,141.14,256.1Z" style="mix-blend-mode:screen;fill:url(#radial-gradient-75)"/><path d="M146.07,227.76c.07,43.34,85.5,43.34,85.56,0S146.13,184.43,146.07,227.76Z" style="mix-blend-mode:screen;fill:url(#radial-gradient-76)"/><path d="M149.88,255.18c.1,61.5,121.32,61.49,121.41,0C271.19,193.69,150,193.7,149.88,255.18Z" style="mix-blend-mode:screen;fill:url(#radial-gradient-77)"/><path d="M201.8,248c0,29,57.25,29,57.3,0S201.84,219,201.8,248Z" style="mix-blend-mode:screen;fill:url(#radial-gradient-78)"/><path d="M209.45,238.52c.06,33.4,65.9,33.4,65.95,0S209.5,205.12,209.45,238.52Z" style="mix-blend-mode:screen;fill:url(#radial-gradient-79)"/><path d="M224.65,257.34c0,33.59,66.28,33.59,66.33,0S224.7,223.74,224.65,257.34Z" style="mix-blend-mode:screen;fill:url(#radial-gradient-80)"/><path d="M245.82,240.35c.05,33.14,65.39,33.14,65.44,0S245.87,207.21,245.82,240.35Z" style="mix-blend-mode:screen;fill:url(#radial-gradient-81)"/><path d="M242.12,268.41c0,33.38,65.85,33.38,65.9,0S242.17,235,242.12,268.41Z" style="mix-blend-mode:screen;fill:url(#radial-gradient-82)"/><path d="M254.12,259.19c.07,40.78,80.46,40.78,80.52,0S254.18,218.42,254.12,259.19Z" style="mix-blend-mode:screen;fill:url(#radial-gradient-83)"/><path d="M213.57,277.57c.07,36.64,72.3,36.64,72.35,0S213.63,240.93,213.57,277.57Z" style="mix-blend-mode:screen;fill:url(#radial-gradient-84)"/><path d="M213,265.19c0,27.63,54.52,27.63,54.56,0S213,237.56,213,265.19Z" style="mix-blend-mode:screen;fill:url(#radial-gradient-85)"/><path d="M182.63,259c.09,50.92,100.46,50.92,100.54,0C283.08,208.09,182.71,208.1,182.63,259Z" style="mix-blend-mode:screen;fill:url(#radial-gradient-86)"/><path d="M208.67,253.71c0,24.1,47.56,24.1,47.59,0S208.71,229.61,208.67,253.71Z" style="mix-blend-mode:screen;fill:url(#radial-gradient-87)"/><path d="M208,227.06c.06,36.82,72.65,36.82,72.71,0S208.07,190.24,208,227.06Z" style="mix-blend-mode:screen;fill:url(#radial-gradient-88)"/><path d="M220.27,242.8c0,29.89,59,29.89,59,0S220.32,212.91,220.27,242.8Z" style="mix-blend-mode:screen;fill:url(#radial-gradient-89)"/><path d="M224.9,250.32c.07,43.1,85,43.09,85.09,0S225,207.23,224.9,250.32Z" style="mix-blend-mode:screen;fill:url(#radial-gradient-90)"/><path d="M261.12,231c0,25.4,50.11,25.4,50.15,0S261.16,205.58,261.12,231Z" style="mix-blend-mode:screen;fill:url(#radial-gradient-91)"/><path d="M248.53,249.44c.08,48.68,96,48.68,96.12,0S248.6,200.76,248.53,249.44Z" style="mix-blend-mode:screen;fill:url(#radial-gradient-92)"/></g><g style="opacity:0.78"><path d="M677.48,208.17c-1.76-23.31,38.17-26.46,40.09-3.16C719.33,228.32,679.4,231.47,677.48,208.17Z" style="mix-blend-mode:screen;fill:url(#radial-gradient-93)"/><path d="M691.5,220.05c-1.64-21.82,35.72-24.77,37.52-3S693.3,241.85,691.5,220.05Z" style="mix-blend-mode:screen;fill:url(#radial-gradient-94)"/><path d="M693.27,212.41c-2.33-30.88,50.55-35.06,53.1-4.2C748.7,239.09,695.81,243.26,693.27,212.41Z" style="mix-blend-mode:screen;fill:url(#radial-gradient-95)"/><path d="M713.47,219c-3.13-41.39,67.77-47,71.18-5.62C787.77,254.74,716.88,260.34,713.47,219Z" style="mix-blend-mode:screen;fill:url(#radial-gradient-96)"/><path d="M708.54,202.16c-1.95-25.88,42.37-29.38,44.5-3.51C755,224.52,710.67,228,708.54,202.16Z" style="mix-blend-mode:screen;fill:url(#radial-gradient-97)"/><path d="M717.81,204.35c-2-27.2,44.53-30.87,46.77-3.7C766.63,227.84,720.06,231.52,717.81,204.35Z" style="mix-blend-mode:screen;fill:url(#radial-gradient-98)"/><path d="M715.55,205.53c-2.79-37,60.63-42.05,63.69-5C782,237.52,718.6,242.53,715.55,205.53Z" style="mix-blend-mode:screen;fill:url(#radial-gradient-99)"/><path d="M721.38,212.23c-3-39.06,64-44.34,67.17-5.31C791.49,246,724.6,251.26,721.38,212.23Z" style="mix-blend-mode:screen;fill:url(#radial-gradient-100)"/><path d="M729.41,204.56c-3.33-44.24,72.45-50.23,76.1-6C808.84,242.79,733.06,248.78,729.41,204.56Z" style="mix-blend-mode:screen;fill:url(#radial-gradient-101)"/><path d="M761.16,199.81c-1.51-20,32.75-22.71,34.4-2.72S762.81,219.8,761.16,199.81Z" style="mix-blend-mode:screen;fill:url(#radial-gradient-102)"/><path d="M749.21,218.11c-2.17-28.73,47.06-32.62,49.42-3.9C800.8,242.94,751.58,246.83,749.21,218.11Z" style="mix-blend-mode:screen;fill:url(#radial-gradient-103)"/><path d="M761.38,219.35c-2-26.51,43.4-30.09,45.59-3.6C809,242.26,763.56,245.84,761.38,219.35Z" style="mix-blend-mode:screen;fill:url(#radial-gradient-104)"/><path d="M767,208.53c-2.44-32.35,53-36.73,55.64-4.39C825.05,236.49,769.64,240.86,767,208.53Z" style="mix-blend-mode:screen;fill:url(#radial-gradient-105)"/><path d="M771.69,228.75c-2.36-31.34,51.32-35.58,53.9-4.26C828,255.83,774.28,260.07,771.69,228.75Z" style="mix-blend-mode:screen;fill:url(#radial-gradient-106)"/><path d="M772.53,208.76c-3.36-44.47,72.81-50.49,76.48-6C852.36,247.18,776.19,253.2,772.53,208.76Z" style="mix-blend-mode:screen;fill:url(#radial-gradient-107)"/><path d="M805.65,211.37c-1.59-21,34.36-23.83,36.09-2.86S807.38,232.34,805.65,211.37Z" style="mix-blend-mode:screen;fill:url(#radial-gradient-108)"/><path d="M811,217.83c-1.83-24.15,39.55-27.42,41.54-3.28C854.37,238.7,813,242,811,217.83Z" style="mix-blend-mode:screen;fill:url(#radial-gradient-109)"/><path d="M819.5,203.48c-1.83-24.29,39.78-27.58,41.78-3.3C863.12,224.47,821.51,227.76,819.5,203.48Z" style="mix-blend-mode:screen;fill:url(#radial-gradient-110)"/><path d="M833.81,214.7c-1.81-24,39.25-27.22,41.22-3.26C876.84,235.41,835.79,238.65,833.81,214.7Z" style="mix-blend-mode:screen;fill:url(#radial-gradient-111)"/><path d="M829.88,194.61c-1.82-24.14,39.52-27.4,41.51-3.28C873.21,215.47,831.87,218.73,829.88,194.61Z" style="mix-blend-mode:screen;fill:url(#radial-gradient-112)"/><path d="M838,200.67c-2.22-29.49,48.29-33.48,50.72-4C890.91,226.15,840.39,230.14,838,200.67Z" style="mix-blend-mode:screen;fill:url(#radial-gradient-113)"/><path d="M811.37,189.42c-2-26.5,43.39-30.09,45.58-3.6C859,212.32,813.56,215.9,811.37,189.42Z" style="mix-blend-mode:screen;fill:url(#radial-gradient-114)"/><path d="M811.71,198.39c-1.5-20,32.73-22.69,34.37-2.72S813.36,218.36,811.71,198.39Z" style="mix-blend-mode:screen;fill:url(#radial-gradient-115)"/><path d="M792.94,204.36c-2.77-36.82,60.3-41.8,63.33-5C859.05,236.18,796,241.16,792.94,204.36Z" style="mix-blend-mode:screen;fill:url(#radial-gradient-116)"/><path d="M809.65,206.9c-1.32-17.44,28.54-19.79,30-2.37S811.08,224.32,809.65,206.9Z" style="mix-blend-mode:screen;fill:url(#radial-gradient-117)"/><path d="M810.76,226.18c-2-26.63,43.6-30.23,45.8-3.62C858.57,249.19,813,252.79,810.76,226.18Z" style="mix-blend-mode:screen;fill:url(#radial-gradient-118)"/><path d="M817.58,214.2c-1.63-21.62,35.39-24.54,37.18-2.94C856.39,232.88,819.36,235.8,817.58,214.2Z" style="mix-blend-mode:screen;fill:url(#radial-gradient-119)"/><path d="M820.06,208.53c-2.35-31.16,51-35.38,53.6-4.23C876,235.46,822.63,239.68,820.06,208.53Z" style="mix-blend-mode:screen;fill:url(#radial-gradient-120)"/><path d="M844,220.7c-1.38-18.37,30.08-20.85,31.59-2.49S845.5,239.06,844,220.7Z" style="mix-blend-mode:screen;fill:url(#radial-gradient-121)"/><path d="M835,208c-2.66-35.21,57.64-40,60.55-4.79C898.2,238.42,837.9,243.18,835,208Z" style="mix-blend-mode:screen;fill:url(#radial-gradient-122)"/></g><g style="opacity:0.71"><path d="M1198.53,177.37c-.06,21.72-40.51,21.72-40.56,0S1198.48,155.65,1198.53,177.37Z" style="mix-blend-mode:screen;fill:url(#radial-gradient-123)"/><path d="M1196,184.8c-.07,30.74-57.33,30.74-57.4,0C1138.66,154.05,1195.91,154.06,1196,184.8Z" style="mix-blend-mode:screen;fill:url(#radial-gradient-124)"/><path d="M1174.84,176.71c-.11,41.22-76.86,41.21-77,0C1098,135.5,1174.74,135.5,1174.84,176.71Z" style="mix-blend-mode:screen;fill:url(#radial-gradient-125)"/><path d="M1178.7,193.75c-.06,25.77-48,25.76-48.11,0S1178.64,168,1178.7,193.75Z" style="mix-blend-mode:screen;fill:url(#radial-gradient-126)"/><path d="M1168.93,190.86c-.07,27.08-50.5,27.07-50.56,0S1168.86,163.79,1168.93,190.86Z" style="mix-blend-mode:screen;fill:url(#radial-gradient-127)"/><path d="M1171.46,189.87c-.1,36.87-68.77,36.87-68.85,0C1102.7,153,1171.37,153,1171.46,189.87Z" style="mix-blend-mode:screen;fill:url(#radial-gradient-128)"/><path d="M1165.77,182.78c-.1,38.89-72.53,38.88-72.62,0C1093.25,143.88,1165.68,143.89,1165.77,182.78Z" style="mix-blend-mode:screen;fill:url(#radial-gradient-129)"/><path d="M1156.48,189.74c-.11,44-82.16,44-82.26,0C1074.33,145.68,1156.38,145.68,1156.48,189.74Z" style="mix-blend-mode:screen;fill:url(#radial-gradient-130)"/><path d="M1122,192c0,19.92-37.14,19.92-37.19,0S1121.93,172.05,1122,192Z" style="mix-blend-mode:screen;fill:url(#radial-gradient-131)"/><path d="M1136.36,174.77c-.07,28.61-53.36,28.61-53.43,0S1136.29,146.15,1136.36,174.77Z" style="mix-blend-mode:screen;fill:url(#radial-gradient-132)"/><path d="M1123.4,172.59c-.07,26.39-49.23,26.39-49.29,0S1123.33,146.19,1123.4,172.59Z" style="mix-blend-mode:screen;fill:url(#radial-gradient-133)"/><path d="M1116.46,182.86c-.08,32.22-60.07,32.22-60.15,0C1056.4,150.65,1116.39,150.65,1116.46,182.86Z" style="mix-blend-mode:screen;fill:url(#radial-gradient-134)"/><path d="M1113.11,162.47c-.08,31.21-58.19,31.2-58.27,0C1054.92,131.26,1113,131.27,1113.11,162.47Z" style="mix-blend-mode:screen;fill:url(#radial-gradient-135)"/><path d="M1110.52,182.21c-.12,44.28-82.58,44.27-82.69,0C1028,137.92,1110.41,137.93,1110.52,182.21Z" style="mix-blend-mode:screen;fill:url(#radial-gradient-136)"/><path d="M1075.16,177c-.06,20.9-39,20.9-39,0S1075.11,156.14,1075.16,177Z" style="mix-blend-mode:screen;fill:url(#radial-gradient-137)"/><path d="M1070,170.21c-.07,24-44.86,24-44.92,0S1069.89,146.16,1070,170.21Z" style="mix-blend-mode:screen;fill:url(#radial-gradient-138)"/><path d="M1059.6,183.76c-.06,24.19-45.12,24.19-45.17,0S1059.54,159.57,1059.6,183.76Z" style="mix-blend-mode:screen;fill:url(#radial-gradient-139)"/><path d="M1045.18,171.53c-.06,23.87-44.51,23.86-44.57,0S1045.12,147.66,1045.18,171.53Z" style="mix-blend-mode:screen;fill:url(#radial-gradient-140)"/><path d="M1047.7,191.73c-.06,24-44.82,24-44.88,0S1047.64,167.69,1047.7,191.73Z" style="mix-blend-mode:screen;fill:url(#radial-gradient-141)"/><path d="M1039.53,185.09c-.08,29.37-54.77,29.37-54.84,0S1039.46,155.73,1039.53,185.09Z" style="mix-blend-mode:screen;fill:url(#radial-gradient-142)"/><path d="M1067.14,198.32c-.07,26.39-49.21,26.38-49.27,0S1067.08,171.93,1067.14,198.32Z" style="mix-blend-mode:screen;fill:url(#radial-gradient-143)"/><path d="M1067.53,189.41c0,19.9-37.11,19.9-37.15,0S1067.49,169.51,1067.53,189.41Z" style="mix-blend-mode:screen;fill:url(#radial-gradient-144)"/><path d="M1088.21,185c-.1,36.67-68.38,36.67-68.47,0C1019.84,148.3,1088.12,148.3,1088.21,185Z" style="mix-blend-mode:screen;fill:url(#radial-gradient-145)"/><path d="M1070.48,181.15c0,17.35-32.37,17.35-32.41,0S1070.44,163.79,1070.48,181.15Z" style="mix-blend-mode:screen;fill:url(#radial-gradient-146)"/><path d="M1070.92,162c-.07,26.52-49.45,26.52-49.51,0S1070.86,135.44,1070.92,162Z" style="mix-blend-mode:screen;fill:url(#radial-gradient-147)"/><path d="M1062.58,173.29c-.06,21.53-40.15,21.53-40.2,0S1062.52,151.77,1062.58,173.29Z" style="mix-blend-mode:screen;fill:url(#radial-gradient-148)"/><path d="M1059.42,178.71c-.08,31-57.87,31-57.94,0S1059.35,147.68,1059.42,178.71Z" style="mix-blend-mode:screen;fill:url(#radial-gradient-149)"/><path d="M1034.76,164.78c0,18.29-34.11,18.29-34.15,0S1034.72,146.49,1034.76,164.78Z" style="mix-blend-mode:screen;fill:url(#radial-gradient-150)"/><path d="M1043.33,178.07c-.09,35.06-65.37,35.06-65.46,0C978,143,1043.25,143,1043.33,178.07Z" style="mix-blend-mode:screen;fill:url(#radial-gradient-151)"/></g></g></g></g></svg>