<svg xmlns="http://www.w3.org/2000/svg" viewBox="0 0 3666.28 971.62"><g id="Layer_2" data-name="Layer 2"><g id="FarBuildings"><path d="M383.22,423.83v23h-5.07v13.88h-8.8v78.11l-61.36.93V456.71H241.21v38.7H1.89L0,967.26l3666.28,4.36V694.76h-90.2V555.54h8.29l-49.71-26.82h-77.77l-44.64,24.51V391.35h-10.58V354.81h-35.9V309.48H3311v46.25h-28.53v35.16h-7.37v33.62h-39.58v38.1H3193.2V361.29H3043.63V692.91H2900.05V495.41H2875.2V303.81l-51.08-7.28-129.3,7.28V547.68h-9.68V425.1h-46.51v84.74h-38.17V14h-15.82V0H2467.75V13.23h-15.48v188h-23v11.11h-12.88V425.79h-15.19v21.84h-110v64.44h-53.38V204.49H2106.2l-61.58,8.79V522.7H1917.06V632.78h-34.67V409.85h-86.82v-37h-24.12l-18.25-33.46h-61.14l-27.65,39h-12v30.5h-5.19v15.27h-13.68v18h-5.52v4.16h-43.93v31.45h-45.81V635.09h-24.55V392.28l-71.43-8.34h-29.2v-7.38h-48.78v8.5h-54V619.83h-16.53v-413H1285V115.23h-8.2V97h-23.4V89.33H1224V76.51L1056,61.58v51.8h-23V384.21h-3.68v138H830.53v59.2h-7.36V446.85h7.36V394.59h-99.4V367.76H652.89v17.58H634.94v8.78H590.31v31.45H510.69V408.92H415.55l-.16,14.91Zm207.2,108.23H559.74V459.29H549.31v-9.87h-6.85V437.09h48Z" style="fill:#3c3c66"/></g></g></svg>