<svg xmlns="http://www.w3.org/2000/svg" xmlns:xlink="http://www.w3.org/1999/xlink" viewBox="0 0 4094.41 956.03"><defs><radialGradient id="radial-gradient" cx="4.35" cy="4.35" r="4.35" gradientUnits="userSpaceOnUse"><stop offset="0.21" stop-color="#be2026"/><stop offset="0.41" stop-color="#c33"/><stop offset="0.91" stop-color="#ef3b39" stop-opacity="0.1"/></radialGradient><symbol id="CityLightSM" data-name="CityLightSM" viewBox="0 0 13.41 15.53"><rect width="13.41" height="15.53" style="fill:#e5e5e5"/></symbol><symbol id="RedLight" data-name="RedLight" viewBox="0 0 8.69 8.69"><circle cx="4.35" cy="4.35" r="4.35" style="fill:url(#radial-gradient)"/></symbol><symbol id="CityLSMPurple" data-name="CityLSMPurple" viewBox="0 0 6.35 6.35"><rect width="6.35" height="6.35" style="fill:#d89ec7"/></symbol><symbol id="CityLightMdPurp" data-name="CityLightMdPurp" viewBox="0 0 7.81 7.81"><rect width="7.81" height="7.81" style="fill:#b861a6"/></symbol><symbol id="CityLightSM_2" data-name="CityLightSM 2" viewBox="0 0 13.41 15.53"><rect width="13.41" height="15.53" style="fill:#434343"/></symbol></defs><g id="Layer_2" data-name="Layer 2"><g id="LargeBuildings"><polygon points="0.18 8.25 49.69 8.25 49.69 43.32 104.2 43.32 104.2 356.74 193.63 363.09 193.63 888.79 397.37 888.79 397.37 953.85 0.18 953.85 0.18 8.25" style="fill:#111132"/><path d="M446.58,953.85V384.79l170-12.88,105.14,11.3V854.74h10.78V832.5h81v22.59h68V424.85c72.65-5.06,218.46-5.35,291.09-.53v31.24h149.54v19.76h96.69v19.33h27.31V655.06h84.71V855.18h29.53v98.67Z" style="fill:#111132"/><path d="M1653.64,954.36V943.83h138.65V354.93h-13.76v-26h349.26v26h-15.87V928.37h34.92V489.14h68.8V457.42h64.56V450.1h75.14v8.13H2404v27.66h22.22v418.9h166.16v15.45H2684v6.91h17.47V908h6.35V897.87h130.7V330.12l168.81,92.32V812.06H3147V738c91-3.5,290.17-7.11,379.42-.81v23.18h84.67V956Z" style="fill:#111132"/><polygon points="3935.48 953.85 3935.48 920.56 3963.53 920.56 3963.53 695.03 4004.8 695.03 4004.8 661.68 4063.54 661.68 4063.54 641.03 4094.41 641.03 4094.41 953.85 3935.48 953.85" style="fill:#111132"/><g id="LightsLarge"><use width="13.41" height="15.53" transform="translate(25.31 68.95)" xlink:href="#CityLightSM"/><use width="13.41" height="15.53" transform="translate(24.96 110.36)" xlink:href="#CityLightSM"/><use width="13.41" height="15.53" transform="translate(23.03 267.58)" xlink:href="#CityLightSM"/><use width="8.69" height="8.69" transform="translate(0 0.73)" xlink:href="#RedLight"/><use width="8.69" height="8.69" transform="translate(30.48)" xlink:href="#RedLight"/><use width="8.69" height="8.69" transform="translate(99.82 43.16)" xlink:href="#RedLight"/><use width="8.69" height="8.69" transform="translate(102.79 356.99)" xlink:href="#RedLight"/><use width="8.69" height="8.69" transform="translate(135.64 360.12)" xlink:href="#RedLight"/><use width="8.69" height="8.69" transform="translate(169.6 364.03)" xlink:href="#RedLight"/><use width="8.69" height="8.69" transform="translate(445.32 379.63)" xlink:href="#RedLight"/><use width="8.69" height="8.69" transform="translate(612.48 367.01)" xlink:href="#RedLight"/><use width="8.69" height="8.69" transform="translate(713.84 379.03)" xlink:href="#RedLight"/><use width="6.35" height="6.35" transform="translate(71.02 65.81)" xlink:href="#CityLSMPurple"/><use width="6.35" height="6.35" transform="translate(73.09 112.25)" xlink:href="#CityLSMPurple"/><use width="6.35" height="6.35" transform="translate(64.37 252.52)" xlink:href="#CityLSMPurple"/><use width="6.35" height="6.35" transform="translate(62.15 299.46)" xlink:href="#CityLSMPurple"/><use width="6.35" height="6.35" transform="translate(70.92 217.4)" xlink:href="#CityLSMPurple"/><use width="6.35" height="6.35" transform="translate(66.15 167.9)" xlink:href="#CityLSMPurple"/><use width="7.81" height="7.81" transform="translate(24.59 329.94)" xlink:href="#CityLightMdPurp"/><use width="7.81" height="7.81" transform="translate(23.28 393.1)" xlink:href="#CityLightMdPurp"/><use width="7.81" height="7.81" transform="translate(18.34 526.85)" xlink:href="#CityLightMdPurp"/><use width="7.81" height="7.81" transform="translate(54.18 353.66)" xlink:href="#CityLightMdPurp"/><use width="7.81" height="7.81" transform="translate(58.6 467.44)" xlink:href="#CityLightMdPurp"/><use width="7.81" height="7.81" transform="translate(50.23 502.93)" xlink:href="#CityLightMdPurp"/><use width="7.81" height="7.81" transform="translate(18.16 444.58)" xlink:href="#CityLightMdPurp"/><use width="7.81" height="7.81" transform="translate(98.45 446.9)" xlink:href="#CityLightMdPurp"/><use width="13.41" height="15.53" transform="translate(59.21 408.94)" xlink:href="#CityLightSM"/><use width="13.41" height="15.53" transform="translate(120.15 408.87)" xlink:href="#CityLightSM"/><use width="13.41" height="15.53" transform="translate(44.74 566.8)" xlink:href="#CityLightSM"/><use width="13.41" height="15.53" transform="translate(98.56 566.28)" xlink:href="#CityLightSM"/><use width="13.41" height="15.53" transform="translate(29.47 644.16)" xlink:href="#CityLightSM"/><use width="13.41" height="15.53" transform="translate(88.3 642.45)" xlink:href="#CityLightSM"/><use width="13.41" height="15.53" transform="translate(21.8 720.15)" xlink:href="#CityLightSM_2"/><use width="13.41" height="15.53" transform="translate(139.76 721.32)" xlink:href="#CityLightSM_2"/><use width="13.41" height="15.53" transform="translate(13.62 806.17)" xlink:href="#CityLightSM_2"/><use width="13.41" height="15.53" transform="translate(92.62 808.09)" xlink:href="#CityLightSM_2"/><use width="13.41" height="15.53" transform="translate(42.33 869.32)" xlink:href="#CityLightSM_2"/><use width="13.41" height="15.53" transform="translate(113.92 869.18)" xlink:href="#CityLightSM_2"/><use width="6.35" height="6.35" transform="translate(144.98 469.52)" xlink:href="#CityLSMPurple"/><use width="6.35" height="6.35" transform="translate(144.81 585.94)" xlink:href="#CityLSMPurple"/><use width="6.35" height="6.35" transform="translate(142.67 526.91)" xlink:href="#CityLSMPurple"/><use width="6.35" height="6.35" transform="translate(73.99 769.55)" xlink:href="#CityLSMPurple"/><use width="6.35" height="6.35" transform="translate(141.57 773.88)" xlink:href="#CityLSMPurple"/><use width="6.35" height="6.35" transform="translate(104.6 692.61)" xlink:href="#CityLSMPurple"/><use width="13.41" height="15.53" transform="translate(200.06 900.45)" xlink:href="#CityLightSM"/><use width="13.41" height="15.53" transform="translate(277.81 899.93)" xlink:href="#CityLightSM"/><use width="13.41" height="15.53" transform="translate(318.69 898.16)" xlink:href="#CityLightSM"/><use width="13.41" height="15.53" transform="translate(474.84 413.89)" xlink:href="#CityLightSM"/><use width="13.41" height="15.53" transform="translate(561.01 403.08)" xlink:href="#CityLightSM"/><use width="13.41" height="15.53" transform="translate(501.71 482.47)" xlink:href="#CityLightSM"/><use width="13.41" height="15.53" transform="translate(474.37 542.89)" xlink:href="#CityLightSM"/><use width="13.41" height="15.53" transform="translate(531.78 542.53)" xlink:href="#CityLightSM"/><use width="6.35" height="6.35" transform="translate(486.64 627.52)" xlink:href="#CityLSMPurple"/><use width="6.35" height="6.35" transform="translate(593.12 602.35)" xlink:href="#CityLSMPurple"/><use width="6.35" height="6.35" transform="translate(457.83 703.45)" xlink:href="#CityLSMPurple"/><use width="6.35" height="6.35" transform="translate(522.53 687.56)" xlink:href="#CityLSMPurple"/><use width="6.35" height="6.35" transform="translate(553.57 611.35)" xlink:href="#CityLSMPurple"/><use width="6.35" height="6.35" transform="translate(562.4 686.07)" xlink:href="#CityLSMPurple"/><use width="6.35" height="6.35" transform="translate(547.8 764.05)" xlink:href="#CityLSMPurple"/><use width="6.35" height="6.35" transform="translate(490.43 752.5)" xlink:href="#CityLSMPurple"/><use width="6.35" height="6.35" transform="translate(495.55 812.49)" xlink:href="#CityLSMPurple"/><use width="7.81" height="7.81" transform="translate(466.15 862.92)" xlink:href="#CityLightMdPurp"/><use width="7.81" height="7.81" transform="translate(525.7 856.82)" xlink:href="#CityLightMdPurp"/><use width="7.81" height="7.81" transform="translate(638.53 623.14)" xlink:href="#CityLightMdPurp"/><use width="7.81" height="7.81" transform="translate(623 719.84)" xlink:href="#CityLightMdPurp"/><use width="7.81" height="7.81" transform="translate(631.81 787.74)" xlink:href="#CityLightMdPurp"/><use width="13.41" height="15.53" transform="translate(674.7 433.14)" xlink:href="#CityLightSM"/><use width="13.41" height="15.53" transform="translate(658.31 541.06)" xlink:href="#CityLightSM"/><use width="13.41" height="15.53" transform="translate(919.61 467.01)" xlink:href="#CityLightSM"/><use width="13.41" height="15.53" transform="translate(1003.68 462.79)" xlink:href="#CityLightSM"/><use width="13.41" height="15.53" transform="translate(912.42 542.2)" xlink:href="#CityLightSM"/><use width="13.41" height="15.53" transform="translate(1007.66 541.27)" xlink:href="#CityLightSM"/><use width="13.41" height="15.53" transform="translate(1173.12 529.36)" xlink:href="#CityLightSM"/><use width="13.41" height="15.53" transform="translate(1257.12 525.81)" xlink:href="#CityLightSM"/><use width="13.41" height="15.53" transform="translate(1341.96 525.55)" xlink:href="#CityLightSM"/><use width="13.41" height="15.53" transform="translate(1178.06 617.78)" xlink:href="#CityLightSM"/><use width="13.41" height="15.53" transform="translate(1336.66 607.34)" xlink:href="#CityLightSM"/><use width="13.41" height="15.53" transform="translate(1237.32 740.57)" xlink:href="#CityLightSM"/><use width="13.41" height="15.53" transform="translate(1369.5 738.44)" xlink:href="#CityLightSM"/><use width="7.81" height="7.81" transform="translate(948.44 631.23)" xlink:href="#CityLightMdPurp"/><use width="7.81" height="7.81" transform="translate(1041.43 628.58)" xlink:href="#CityLightMdPurp"/><use width="7.81" height="7.81" transform="translate(902.86 704.04)" xlink:href="#CityLightMdPurp"/><use width="7.81" height="7.81" transform="translate(1026.04 714.99)" xlink:href="#CityLightMdPurp"/><use width="7.81" height="7.81" transform="translate(967.02 794.31)" xlink:href="#CityLightMdPurp"/><use width="7.81" height="7.81" transform="translate(1001.11 792.48)" xlink:href="#CityLightMdPurp"/><use width="7.81" height="7.81" transform="translate(1073.25 472.84)" xlink:href="#CityLightMdPurp"/><use width="7.81" height="7.81" transform="translate(1078.04 605.58)" xlink:href="#CityLightMdPurp"/><use width="7.81" height="7.81" transform="translate(1074.57 560.83)" xlink:href="#CityLightMdPurp"/><use width="7.81" height="7.81" transform="translate(1074.68 535.11)" xlink:href="#CityLightMdPurp"/><use width="6.35" height="6.35" transform="translate(928.02 749.46)" xlink:href="#CityLSMPurple"/><use width="6.35" height="6.35" transform="translate(1026.91 752.19)" xlink:href="#CityLSMPurple"/><use width="6.35" height="6.35" transform="translate(938.08 678.09)" xlink:href="#CityLSMPurple"/><use width="6.35" height="6.35" transform="translate(1057.93 678.59)" xlink:href="#CityLSMPurple"/><use width="6.35" height="6.35" transform="translate(985.44 608.95)" xlink:href="#CityLSMPurple"/><use width="6.35" height="6.35" transform="translate(982.09 699.53)" xlink:href="#CityLSMPurple"/><use width="6.35" height="6.35" transform="translate(914.67 858.22)" xlink:href="#CityLSMPurple"/><use width="6.35" height="6.35" transform="translate(1006.8 847.85)" xlink:href="#CityLSMPurple"/><use width="6.35" height="6.35" transform="translate(1192.8 674.27)" xlink:href="#CityLSMPurple"/><use width="6.35" height="6.35" transform="translate(1284.43 678.16)" xlink:href="#CityLSMPurple"/><use width="6.35" height="6.35" transform="translate(1338.08 673.2)" xlink:href="#CityLSMPurple"/><use width="6.35" height="6.35" transform="translate(1269.39 572.76)" xlink:href="#CityLSMPurple"/><use width="6.35" height="6.35" transform="translate(1255.51 598.57)" xlink:href="#CityLSMPurple"/><use width="6.35" height="6.35" transform="translate(1191.33 487.57)" xlink:href="#CityLSMPurple"/><use width="6.35" height="6.35" transform="translate(1266.07 482.49)" xlink:href="#CityLSMPurple"/><use width="6.35" height="6.35" transform="translate(1286.82 482.83)" xlink:href="#CityLSMPurple"/><use width="6.35" height="6.35" transform="translate(1185.34 809.88)" xlink:href="#CityLSMPurple"/><use width="6.35" height="6.35" transform="translate(1260.24 810.45)" xlink:href="#CityLSMPurple"/><use width="6.35" height="6.35" transform="translate(1375.63 808.98)" xlink:href="#CityLSMPurple"/><use width="6.35" height="6.35" transform="translate(1421.52 804.24)" xlink:href="#CityLSMPurple"/><use width="6.35" height="6.35" transform="translate(1468.02 798.91)" xlink:href="#CityLSMPurple"/><use width="6.35" height="6.35" transform="translate(1470.37 686.37)" xlink:href="#CityLSMPurple"/><use width="6.35" height="6.35" transform="translate(1470.59 743.58)" xlink:href="#CityLSMPurple"/><use width="6.35" height="6.35" transform="translate(1460.41 779.81)" xlink:href="#CityLSMPurple"/><use width="6.35" height="6.35" transform="translate(1400.06 672.21)" xlink:href="#CityLSMPurple"/><use width="6.35" height="6.35" transform="translate(1405.57 598.49)" xlink:href="#CityLSMPurple"/><use width="6.35" height="6.35" transform="translate(1405.44 540.42)" xlink:href="#CityLSMPurple"/><use width="13.41" height="15.53" transform="translate(1186.89 840.82)" xlink:href="#CityLightSM_2"/><use width="13.41" height="15.53" transform="translate(1269.25 851.82)" xlink:href="#CityLightSM_2"/><use width="13.41" height="15.53" transform="translate(1344.33 874.34)" xlink:href="#CityLightSM_2"/><use width="13.41" height="15.53" transform="translate(1400.77 874.05)" xlink:href="#CityLightSM_2"/><use width="13.41" height="15.53" transform="translate(942.85 887.89)" xlink:href="#CityLightSM_2"/><use width="13.41" height="15.53" transform="translate(1012.3 890.14)" xlink:href="#CityLightSM_2"/><use width="13.41" height="15.53" transform="translate(1048.47 805.53)" xlink:href="#CityLightSM_2"/><use width="13.41" height="15.53" transform="translate(581.99 857.94)" xlink:href="#CityLightSM_2"/><use width="13.41" height="15.53" transform="translate(617.58 857.92)" xlink:href="#CityLightSM_2"/><use width="13.41" height="15.53" transform="translate(1847.91 389.45)" xlink:href="#CityLightSM"/><use width="13.41" height="15.53" transform="translate(1990.46 388.66)" xlink:href="#CityLightSM"/><use width="13.41" height="15.53" transform="translate(1853.79 470.92)" xlink:href="#CityLightSM"/><use width="13.41" height="15.53" transform="translate(2022.74 463.63)" xlink:href="#CityLightSM"/><use width="13.41" height="15.53" transform="translate(1834.28 578.29)" xlink:href="#CityLightSM"/><use width="13.41" height="15.53" transform="translate(1957.55 574.31)" xlink:href="#CityLightSM"/><use width="13.41" height="15.53" transform="translate(1863.74 755.13)" xlink:href="#CityLightSM"/><use width="6.35" height="6.35" transform="translate(1915.43 536.72)" xlink:href="#CityLSMPurple"/><use width="6.35" height="6.35" transform="translate(2035.89 540.04)" xlink:href="#CityLSMPurple"/><use width="6.35" height="6.35" transform="translate(1911.86 661.35)" xlink:href="#CityLSMPurple"/><use width="6.35" height="6.35" transform="translate(2016.29 661.87)" xlink:href="#CityLSMPurple"/><use width="6.35" height="6.35" transform="translate(1928.91 744.05)" xlink:href="#CityLSMPurple"/><use width="6.35" height="6.35" transform="translate(2026.4 744.26)" xlink:href="#CityLSMPurple"/><use width="6.35" height="6.35" transform="translate(1855.87 872.46)" xlink:href="#CityLSMPurple"/><use width="6.35" height="6.35" transform="translate(2003.09 873.12)" xlink:href="#CityLSMPurple"/><use width="7.81" height="7.81" transform="translate(1934.76 457.94)" xlink:href="#CityLightMdPurp"/><use width="7.81" height="7.81" transform="translate(1849.82 673.63)" xlink:href="#CityLightMdPurp"/><use width="7.81" height="7.81" transform="translate(1983.15 795.41)" xlink:href="#CityLightMdPurp"/><use width="8.69" height="8.69" transform="translate(1780.94 325.96)" xlink:href="#RedLight"/><use width="8.69" height="8.69" transform="translate(2123.73 326.19)" xlink:href="#RedLight"/><use width="8.69" height="8.69" transform="translate(1973.21 320.11)" xlink:href="#RedLight"/><use width="8.69" height="8.69" transform="translate(2023.85 322.35)" xlink:href="#RedLight"/><use width="8.69" height="8.69" transform="translate(1849.36 320.62)" xlink:href="#RedLight"/><use width="8.69" height="8.69" transform="translate(1889.55 320.48)" xlink:href="#RedLight"/><use width="8.69" height="8.69" transform="translate(2146.04 488.32)" xlink:href="#RedLight"/><use width="8.69" height="8.69" transform="translate(2166.52 488.15)" xlink:href="#RedLight"/><use width="8.69" height="8.69" transform="translate(2208.81 487.87)" xlink:href="#RedLight"/><use width="8.69" height="8.69" transform="translate(2292.66 441.18)" xlink:href="#RedLight"/><use width="8.69" height="8.69" transform="translate(2333.07 441.22)" xlink:href="#RedLight"/><use width="8.69" height="8.69" transform="translate(2404.25 455.69)" xlink:href="#RedLight"/><use width="8.69" height="8.69" transform="translate(2840.17 332.32)" xlink:href="#RedLight"/><use width="8.69" height="8.69" transform="translate(3001.41 415.28)" xlink:href="#RedLight"/><use width="13.41" height="15.53" transform="translate(2330.15 534.22)" xlink:href="#CityLightSM"/><use width="13.41" height="15.53" transform="translate(2337.13 710.24)" xlink:href="#CityLightSM"/><use width="7.81" height="7.81" transform="translate(2195.02 797.77)" xlink:href="#CityLightMdPurp"/><use width="7.81" height="7.81" transform="translate(2298.02 809.85)" xlink:href="#CityLightMdPurp"/><use width="7.81" height="7.81" transform="translate(2361.2 807.74)" xlink:href="#CityLightMdPurp"/><use width="7.81" height="7.81" transform="translate(2199.45 852.18)" xlink:href="#CityLightMdPurp"/><use width="7.81" height="7.81" transform="translate(2304.38 864.74)" xlink:href="#CityLightMdPurp"/><use width="7.81" height="7.81" transform="translate(2280.01 673)" xlink:href="#CityLightMdPurp"/><use width="7.81" height="7.81" transform="translate(2375.87 676.05)" xlink:href="#CityLightMdPurp"/><use width="7.81" height="7.81" transform="translate(2263.11 588.5)" xlink:href="#CityLightMdPurp"/><use width="6.35" height="6.35" transform="translate(2295.26 490.21)" xlink:href="#CityLSMPurple"/><use width="6.35" height="6.35" transform="translate(2355.13 481.85)" xlink:href="#CityLSMPurple"/><use width="6.35" height="6.35" transform="translate(2289.02 553.88)" xlink:href="#CityLSMPurple"/><use width="6.35" height="6.35" transform="translate(2355.27 595.85)" xlink:href="#CityLSMPurple"/><use width="6.35" height="6.35" transform="translate(2209.18 758.96)" xlink:href="#CityLSMPurple"/><use width="6.35" height="6.35" transform="translate(2373.62 760.32)" xlink:href="#CityLSMPurple"/><use width="6.35" height="6.35" transform="translate(1950.88 624.85)" xlink:href="#CityLSMPurple"/><use width="6.35" height="6.35" transform="translate(2018.57 623.82)" xlink:href="#CityLSMPurple"/><use width="6.35" height="6.35" transform="translate(2062.13 606.42)" xlink:href="#CityLSMPurple"/><use width="6.35" height="6.35" transform="translate(2062.08 683.74)" xlink:href="#CityLSMPurple"/><use width="6.35" height="6.35" transform="translate(1944.79 700.94)" xlink:href="#CityLSMPurple"/><use width="6.35" height="6.35" transform="translate(1996.78 707.91)" xlink:href="#CityLSMPurple"/><use width="13.41" height="15.53" transform="translate(2873.42 421.36)" xlink:href="#CityLightSM"/><use width="13.41" height="15.53" transform="translate(2881.93 518.22)" xlink:href="#CityLightSM"/><use width="13.41" height="15.53" transform="translate(2888.41 594.08)" xlink:href="#CityLightSM"/><use width="13.41" height="15.53" transform="translate(2894.57 706.68)" xlink:href="#CityLightSM"/><use width="13.41" height="15.53" transform="translate(2955.44 485.71)" xlink:href="#CityLightSM"/><use width="13.41" height="15.53" transform="translate(2968.13 644.59)" xlink:href="#CityLightSM"/><use width="13.41" height="15.53" transform="translate(3071.03 871.13)" xlink:href="#CityLightSM"/><use width="13.41" height="15.53" transform="translate(3391.67 847.68)" xlink:href="#CityLightSM"/><use width="13.41" height="15.53" transform="translate(3521.65 850.44)" xlink:href="#CityLightSM"/><use width="13.41" height="15.53" transform="translate(3248.38 788.82)" xlink:href="#CityLightSM"/><use width="13.41" height="15.53" transform="translate(3376.49 780.51)" xlink:href="#CityLightSM"/><use width="6.35" height="6.35" transform="translate(3166.42 862.63)" xlink:href="#CityLSMPurple"/><use width="6.35" height="6.35" transform="translate(3306.05 852.44)" xlink:href="#CityLSMPurple"/><use width="6.35" height="6.35" transform="translate(2882.65 814.4)" xlink:href="#CityLSMPurple"/><use width="6.35" height="6.35" transform="translate(2925.8 814.78)" xlink:href="#CityLSMPurple"/><use width="6.35" height="6.35" transform="translate(2874.67 886.11)" xlink:href="#CityLSMPurple"/><use width="6.35" height="6.35" transform="translate(2951.14 883.07)" xlink:href="#CityLSMPurple"/><use width="6.35" height="6.35" transform="translate(2922.68 559.01)" xlink:href="#CityLSMPurple"/><use width="6.35" height="6.35" transform="translate(2959.85 559.08)" xlink:href="#CityLSMPurple"/><use width="6.35" height="6.35" transform="translate(3463.68 791.15)" xlink:href="#CityLSMPurple"/><use width="6.35" height="6.35" transform="translate(3556.43 791.92)" xlink:href="#CityLSMPurple"/><use width="7.81" height="7.81" transform="translate(3193.74 762.99)" xlink:href="#CityLightMdPurp"/><use width="7.81" height="7.81" transform="translate(3306.03 761.84)" xlink:href="#CityLightMdPurp"/><use width="7.81" height="7.81" transform="translate(3289 895.14)" xlink:href="#CityLightMdPurp"/><use width="7.81" height="7.81" transform="translate(3423.5 905.33)" xlink:href="#CityLightMdPurp"/><use width="13.41" height="15.53" transform="translate(3983.28 715.72)" xlink:href="#CityLightSM"/><use width="13.41" height="15.53" transform="translate(3982.87 781.09)" xlink:href="#CityLightSM"/><use width="13.41" height="15.53" transform="translate(3982.59 820.14)" xlink:href="#CityLightSM"/><use width="13.41" height="15.53" transform="translate(4037.3 680.05)" xlink:href="#CityLightSM"/><use width="13.41" height="15.53" transform="translate(4041.93 758.75)" xlink:href="#CityLightSM"/><use width="13.41" height="15.53" transform="translate(4029.06 819.29)" xlink:href="#CityLightSM_2"/><use width="13.41" height="15.53" transform="translate(4017.3 888.06)" xlink:href="#CityLightSM_2"/><use width="13.41" height="15.53" transform="translate(3463.06 857.28)" xlink:href="#CityLightSM_2"/><use width="13.41" height="15.53" transform="translate(2954.93 716.86)" xlink:href="#CityLightSM_2"/><use width="8.69" height="8.69" transform="translate(2436.52 905.26)" xlink:href="#RedLight"/><use width="8.69" height="8.69" transform="translate(2504.7 906.62)" xlink:href="#RedLight"/><use width="8.69" height="8.69" transform="translate(2711.47 900.46)" xlink:href="#RedLight"/><use width="8.69" height="8.69" transform="translate(2785.23 900.76)" xlink:href="#RedLight"/><use width="8.69" height="8.69" transform="translate(2585.96 908.24)" xlink:href="#RedLight"/><use width="8.69" height="8.69" transform="translate(2834.64 897.89)" xlink:href="#RedLight"/><use width="7.81" height="7.81" transform="translate(578.23 476.62)" xlink:href="#CityLightMdPurp"/><use width="7.81" height="7.81" transform="translate(619.52 476.52)" xlink:href="#CityLightMdPurp"/><use width="13.41" height="15.53" transform="translate(2207.61 595.33)" xlink:href="#CityLightSM"/><use width="13.41" height="15.53" transform="translate(2207.67 689.2)" xlink:href="#CityLightSM"/><use width="13.41" height="15.53" transform="translate(684.31 614.54)" xlink:href="#CityLightSM"/><use width="13.41" height="15.53" transform="translate(687.94 677.33)" xlink:href="#CityLightSM"/></g></g></g></svg>