<svg xmlns="http://www.w3.org/2000/svg" viewBox="0 0 4097 698.88"><g id="Layer_2" data-name="Layer 2"><g id="MtRange"><path d="M114.45,82l44.87,8.26,81.74-20.64,59.55-2.34,23.6-3.65,26.69,4.19,11.29-8.37,10.32-9.69,6.62-2.28,16.23-9,9.89-8.43,15-7.52,5.37,7.52,8.61,5.44h4.94l12,1.2s12-3,14.82-3,10.59-3.64,10.59-3.64l4.23-7.52h62.82l9.18,7.52,22.59-4.14s9.88-5.57,13.41-3.38,25.87,7.52,25.87,7.52l6.6,4.24,28.94,1.2,23.29-1.8,8.47-3.64h45.88l17.65,2.45,14.82,3,19.06,10.77,20.14,7.18,37,2.69L869,68.43,882.4,81.6l10.59-6,8.47,3S920.89,78,925.29,78s20.64-4.19,20.64-4.19l21.88-9,12.81-8.68L991,49.77h35.37s20.6-.11,24.77,0,10-5.28,10-5.28l13.18-6.58,4.93-4.79,12.71-3v-8l10.59-9.87,4.57-5.69,18.36-3.29h9.13l24.41,3.29L1182.31,17s12.08,6,15.61,6,30.35,15,30.35,15l62.82-2.39,27.53-8.38,16.94,2.94h17.52s5.07-6.53,11.42-6.53,19.76,9,19.76,9l23.29.59,7.77,9.29,13.41,4.33L1445,52.27l28.24,3.59s38.82-3.59,40.94-3,26.11,0,26.11,0l21.18-6.13,12.71-4.33,22.58-9.29,21.18-12,31.76-4.79L1668,17l10.59,3.59,14.12-4.79,16.94-3,16.23,4.79L1743.54,23l24,11.37L1781,41.8l15.53.15,7.06-3.44,3.53,8.23,19,5.53,12-.59v-15s16.94,4.18,17.65,5.08,7.06,4.94,7.06,4.94l20.47-4.33h21.17l24.89-6.89,23.82-5.44,3-11.62,38.31,1.8,30.79-.45,15.13-4,8.18-4,18.8-2.24,16.55-3,18.83-6L2130,4.1l18.53,2.39,12.59,3,21.82,6.28,10.59,2.69,18,8.08,19.06,3.54,30.57,1.85,4.16-6.73h16.09l8.39,2.69,28.14,5.38,30.17,2.25h91.06l27.52-2.69,9.53-2.75h24.88s9.89-6.23,11.83-6.23,16.76-3.14,16.76-3.14l18.53-1.35,10-6.3,18.15,2.71h20.58l15-2.69,8.8-6.59,24.88,3,10.58,3.29,12.36,5.08s23.64,4.49,24.7,4.49,14.47-1.79,14.47-1.79V15.17l4.94-1.49,8.83,1.79,2.26,4.19,11.15.6,13.41-1.5L2761.73,17l10.41-2.7,4.41-4.18,13.77-.9,10.23-.6L2817.67,11l3,5.69L2833,21.46s9.88.59,10.24,1.49,7,4.49,7,4.49l13.77-.3,12,1.2,13.41,6.58,10.59,2.39s23.29,4.84,24.35,4.52,17.11-2.27,17.11-2.27l7.59-3.44,26.12-4.49s15.18-.3,16.23,0,23.3,2.69,23.3,2.69l16.94,1.5,16.94,5.68,28.94.3,19.41,6,17.64,6,22.24.9,21.53-2.1,9.17,2.4,12.72,5.08,2.46,4.49s14.47,2.1,16.23,3,8.47-6.88,8.47-6.88l14.12-5.38,15.88,3.29h26.47l15.88,2.09,3.47,5.09,44.12,5.09,31.82,9,17.65,10.47,18.35,3.3h24.71l31.49-4.19s22.15-4.79,24.27-4.79,19.9,3.59,19.9,3.59l25.27-2.39V75.61l12-3h12.05c4.89,0,28.89,1.2,28.89,1.2l9.88,7.78,23.3,3.59s19.94,1.19,25.85,1.19,41.2-.59,41.2-.59l26.84-1.8,19.88,5.39,26-3,15.53-7.78L3769,68.43l15.29-4.79,15.44-6.58s19.77-5.38,22.59-5.38,30.1-4.64,30.1-4.64l49,7.63,26.11.6s24.71,7.78,26.82,7.78S4010,74.42,4010,74.42l23.29,6,14.82,13.17H4096l.55,604.81H.87L.5,76.81l114,5.2" style="fill:#1e1a4e;stroke:#000;stroke-miterlimit:10"/></g></g></svg>