<svg xmlns="http://www.w3.org/2000/svg" viewBox="0 0 4096 966.35"><g id="Layer_2" data-name="Layer 2"><g id="MtRainier"><path d="M0,566.12H86.1L159.45,582l89.29-41.29,76.53,20.64L398.62,511H529.36l118-40.18,105.24,12.71,118-38.12,82.91-47.65h51l57.4,15.89L1125.69,366h41.46L1215,327.88l28.7-28.59,35.08-28.58h63.78l28.7,34.94,41.45-9.53s47.84,12.7,60.59,6.35,280.63-184.23,280.63-184.23h38.26l89.29-79.42,70.16-31.76L1998.75,0h63.77l31.89,3.53L2122.76,0l19.13,9.18L2171,16.24,2222.68,24s30.47-.71,33.3.71,24.1,7.05,24.1,7.05V45.18l17.72,6.35,10.63,7.76,16.29,5.65,8.51,16.24v9.88l36.85,7.76,22,4.24,17.71,2.82,5,14.12c22.68,6.18,36,19.41,36,19.41L2481,152.65l20.2-5.3s-1.07,19.59,0,20.12,23.91,6.88,25,9,19.66-1.59,19.66-1.59l5.32,19.59s13.28-2.12,14.88-.53,8.5,14.3,9.57,15.88,26.57,17.47,26.57,17.47L2628.73,240s18.08,2.65,20.73,5.29,31.89,11.12,31.89,11.12L2693.58,267l19.66,2.12,8.5,21.88,28.71,6.71,14.88,18,29.76,5.29,23.92,9.53,28.7,8.47,43.58,18,36.14,1.06,56.34,3.7,36.14-12.17,27.1,9,21.26,5.29,19.67,2.12,18.6,21.18,34,6.88,45.17,2.65s38.8,14.82,40.4,15.88,52.61,11.65,52.61,11.65l39.33,12.17,51-.53L3427,449.12s47.83-11.12,49.43-11.65,43.58,5.82,43.58,5.82l54.21,18.53,53.15,15.36,48.36,1.58L3714,490.94l44.11,2.12L3798,511h63.77l55.28,10.65,93.54,10.59,85.22,19,.18,405.53L0,966.35Z" style="fill:#7b7c8e"/><path d="M1129.91,477.18h76.24L1242.68,447l54-6.35,11.12-15.89-42.89,11.12-3.17-11.12,69.88-25.41,44.47-25.41,79.26-37.82,57.24-41.23,35.87-20.83,58.42-13.49,20.47-38.92L1682.41,185l49.73-25.7,32.15-34.38,39.53.71L1897,43.59l27-7.94,42.15-12.36-26.27,25.06L1820.8,123l-98.47,122.29-42.89,11.12-36.53,38.12h-28.58l-42.89,38.12-28.58,23.82-46.06,7.94-46.06,30.18-55.59,30.17-7.94,28.59-42.88,4.77s-20.65,14.29-28.59,19.06-54,27-54,27l-41.3,20.64Z" style="fill:#5d6374"/><polygon points="2023.99 5.47 2014.46 15 2006.52 24.53 2015.26 24.53 2006.52 53.12 2023.99 35.65 2006.52 81.71 2045.35 43.59 2062.11 16.59 2072.46 8.54 2056.88 9.88 2048 5.47 2023.99 5.47" style="fill:#5d6374"/><path d="M2087.24,35.65l-31.06,34.94L2048,87.53s-45.47,14.82-45.47,18-16.94,28.59-16.94,28.59l-8.47,27.53,45.53-56.12-39.18,65.65-39.18,10.58-54,62.48L1849,307.76l-31.76,64.59h46.58s13.77-39.17,16.94-40.23,54-57.18,54-57.18L1957,240l27.53-26.47-32.29,13.76s2.64-19,10-23.29,42.36-38.12,42.36-38.12l18-24.35,25.53-23.29s20-27.53,23.17-28.59,23-54,23-54Z" style="fill:#5d6374"/><path d="M2125.35,111.88,2056.18,204l-22.94,40.24-15.89,21.17-52.94,9.53L1930.53,312l-44.47,60.35L1855.35,402l-62.47,27.53L1765.35,438h38.12l-23.29,8.47,1.06,19.06-15.89-13.77-14.82,13.77V443.29l-42.35,1.06-7.42-12.7-14.82,21.17-43.41,6.36-45.53-5.3-10.59,27.53,42.35,12.71h150.36l81.53-15.88,80.47-24.36s58.23-2.12,61.41-4.23,38.12-18,38.12-18L2029,423.18l-11.65-10.59-18,21.17-22.23,8.48-9.53-14.83s18-14.82,21.17-20.12,28.59-27.53,28.59-27.53l38.83-18,45.88-14.82,23.29-13.76-9.53-7.42-28.58,8.48s-20.12,10.58-25.42,12.7-44.47,10.59-44.47,10.59l-29.64,9.53-14.83,5.29,24.36-28.59s14.47-4.23,15.52-4.23,26.83-12.35,26.83-12.35l23.65-6.36,5.64-17.82-5.64-10.41,15.17-2.12,3.53-14.82-9.18-12,9.53-14.47s20.83-13.06,20.83-14.12,19.76-8.12,19.76-8.12l-20.12-3.88L2100.29,204l-6-10.59L2113,162.35,2138.41,120l-19.76,16.24Z" style="fill:#5d6374"/><path d="M2150.76,177.53l10.59-10.59V152.12l9.53-11.65,7.41,6.35,12.71-9,9.53-12.7v-23.3l4.76,3.71,7.95-3.71,10.05,6.36,6.89-6.36h11.11v10.06l-9,5.83L2218,120.35l23.29,3.18,6.36,9-10.59,3.71-9.53-6.89-16.41,5.83-1.59,10.58,11.12,10.59,9.53,18-1.06,11.12-18-3.18L2199.21,177l-5-11.65-7.94-5.29-2.12,7.94s7.41,12.71,10.06,14.82,17.47,10.06,17.47,10.06h14.82l10.06,14.83,15.35,8.47,7.41,15.35,7.42,11.65v-14.3l12.7,17.47,4.77,13.24s7.94,11.65,0,14.29-18,6.36-18,6.36l-15.89,3.17-2.64-8.47-12.18,13.77-13.23-4.24,1.58-11.65-6.88-5.82-2.65-11.65s1.42-4.23,4.95-4.23,16.23,4.23,16.23,4.23l6.88-5.82-18-15.35-11.64-9-18-9.53-5.3-5.83,4.24-10.58-4.77-4h-9.53l6.36,12.45-2.12,13.23,9.53,5.82h5.82l-9,6.89-5.82-2.65,2.64,11.12,14.3,2.64v5.83l-13.77,2.65,6.36,9,10.06,9-9.53,9-17.47-2.65-13.24-17.47.53-10.06,10.59-4.24-3.18-6.88L2159.76,231l-6.35-6.35-7.94,6.88-9.53,12.18-12.7,2.64V232.59l12.7-13.24,6.88-15.35,4.77-8.74Z" style="fill:#5d6374"/><polygon points="2312.76 73.23 2323.35 81.71 2323.35 73.23 2312.76 73.23" style="fill:#5d6374"/><polygon points="2327.06 90.18 2332.35 98.12 2336.06 94.15 2331.56 90.18 2327.06 90.18" style="fill:#5d6374"/><path d="M2299.53,105l7.94,10.06,5.29,19.06,5.3,7.41,9-1.59,9,7.41-4.5,12.71,12.44,9,13.76-2.65-1.05,7.94-13.24,8.47,4.77,18a62.18,62.18,0,0,1,9.52,3.18c3.18,1.59,13.77,0,13.77,0V191.29l-14.29-3.7,2.64-4.77,11.65,2.65s6.88,4.24,7.41,6.88,0,16.41,0,16.41l-15.35,2.65v7.94l.53,12.71s11.12,7.41,12.7,7.41,13.77-2.65,13.77-2.65l6.35-3.7,6.88,6.35L2393.24,249l-4.24,9,4.24,13.24,10.58,17.47,13.24,6.35,3.18,12.18-3.71,12.7,21.18-5.29,4.23-7.41.53-21.18s-7.41-3.18-9.53-3.18-21.7-16.94-21.7-16.94-7.42-7.94-2.65-7.94,13.76,3.18,13.76,3.18l15.89,15.35s6.88,2.12,15.88,9.53a190.86,190.86,0,0,0,20.64,14.29l14.83,2.65-6.35-22.76-15.36-10.06s9.53-2.65,11.65-2.65,6.35,7.41,6.35,7.41l10.59,1.59,4.24-8.47-6.89-13.77-8.47,4.77-12.7-4.77-20.12-12.17-10.59-8.47-4.23-1.06-9.53-4.24.53-5.82,11.11,1.59-6.35-11.65-18,3.18-12.18-7.94-10.58-18.53,4.23-5.83-19.06-14.29-20.64-18L2345.06,132l-18-23.29-21.18-10.59Z" style="fill:#5d6374"/><path d="M2451.82,163.06l10.59,9.88H2473l4.24,14.12,7.05,8.2-4.94,8.74,4.94,10.59-16.23,3.53a68.59,68.59,0,0,1-2.82-9.09c-.71-3.62,0-13.77,0-13.77l-1.42-9.61-12-5.65-4.94-10.59-3.53-6.35Z" style="fill:#5d6374"/><path d="M2416.53,132.71l10.59,12.7s-2.12,9.18,2.82,9.18h13.41l-2.82-10.94-7.06-10.94Z" style="fill:#5d6374"/><polygon points="2491.35 182.12 2504.06 195.26 2511.12 204 2518.88 193.06 2509.71 182.12 2491.35 178.59 2491.35 182.12" style="fill:#5d6374"/><path d="M2518.88,240.71l20.47,13.41,43.06,26.12h9.88l7.06,15.52-21.88-2.82-18.35-15.53L2544.29,276l-9.88-13.41-21.88-4.94v7.76l16.23,2.83,14.12,12,13.06,8.47L2571.82,303s15.53-.53,21.89,0,19.76,6.18,19.76,6.18l14.82,10.76,10.59,11.82,15.53,5.65V326.82s16.94,2.12,19.77,3.53,21.17,2.12,21.17,2.12l-9.17-12.53s-19.06-4.41-21.89-5.12S2647.35,303,2647.35,303l-16.94-13.94-7.76-8.82-14.83-2.83s-14.82-11.29-16.94-12-16.23-9.17-16.23-9.17l-11.3-11.3-15.53-4.23h-7.06l-1.41,3.53Z" style="fill:#5d6374"/><path d="M2726.24,319.94c2.11,4.77,16.94,17.47,16.94,17.47l19.58,4.24,2.65,15.35,11.65,13.24,16.41,14.29h23.82l-6.88-5.29-18.53-2.65-7.41-12.71-12.71-11.64-3.17-14.83-15.35-9-11.12-1.59Z" style="fill:#5d6374"/><path d="M2941.18,390.35l6.88,16.94,28.06,10.06,16.41,11.12s14.29,15.88,15.88,15.88,19.06,18,19.06,18,11.12,10.06,12.18,11.65,36.53,7.41,36.53,7.41l34.94,9h27L3154,501l-2.65,12.18,28.06,3.17-19.06-28.59s-2.11-8.47,3.71-8.47,19.59,12.18,21.7,13.77,12.71,10.06,13.24,12.18,5.29,10.58,7.41,11.11,24.35,5.83,26.47,5.83-1.06-18.53,0-20.12,1.59-11.65,3.71-11.65,14.82,4.24,18.53,5.3,5.29-7.95,5.29-7.95l-12.17-11.11-14.3,3.17,6.88-12.17s15.89,1.06,19.59,1.06,15.35-2.65,18,0,5.3,9.53,5.3,9.53l-10.59,14.82s12.17,2.65,17.47,2.65,9.53,1.05,13.23-3.18,2.65-12.18,2.65-12.18L3299.59,465l-9.53-13.24-34.41-2.11-48.18-2.12-14.82-11.65-46.59-13.23-10.59,11.11,23.82,4.77-17.47,6.88-7.94,4.24s-7.41-4.24-7.41-6.89.53-16.41.53-16.41l-11.65-7.94-7.94-6.35-3.7,6.35-13.24-5.29-9.53,7.41-7.94-3.18s-15.35-8.47-16.94-9.53-12.71-10.06-12.71-10.06l-15.88,4.77-25.41,5.29-15.88-2.64-18.53-14.83Z" style="fill:#5d6374"/><path d="M2304.29,381.35l2.41,3.18,10.83,14.29h25.94l36,18.53,20.65,12.18s42.53,11.65,43.23,13.23,9.71,10.59,12.36,11.65,14.29,9.53,15.88,9.53,19.76,4.24,19.76,4.24l3,15.88-34.41,2.65-14.29-4.77.53-7.94,6.88-6.35-18-2.65-23.3-1.59-6.35-6.88,14.83,1.06,4.23-8.47L2407,443.29,2385.29,434l-31.23-9.79-1.06-9.53-15.88-6.89-18-1.58-14.83-7.95-11.64-10.05Z" style="fill:#5d6374"/><path d="M2270.94,397.76h-37.59s3.71,9,5.3,9h13.5v7.95l-8.21,6.88,4.24,4.76L2245,434l19.59,3.44,9-3.44V422.65l10.06.53,15.88,3.17,11.12-6.35v-6.35l18,4V411l-18.53-2.65-10.59-2.11-4.24-8.48h-24.35Z" style="fill:#5d6374"/><path d="M2199.47,384l-13.23,9s0,9.53,2.64,9.53,10.59-9.27,10.59-9.27l6-5.55s9.35,2.11,14.12,2.64,15.88,2.91,15.88,2.91l-7.41,4.5h-17.21v6.89h-5.38l-10.23,5.29h-15.36l-7.41,7.68L2149.18,429h-59.83l-13.23,5h-25.41l-6.36-9.27L2056.18,409v-9.13l-8-7.41s7.12-3.71,8-3.71,16.76,1.59,16.76,1.59l16.41,2.65,10.59-1.59,11.12-4.23L2128,384l-4.76-8.47h-20.12l-8.81-3.18,4.57-7.41h43.41l-9,7.41,2.65,9,11.12-5.29,5.29-3.71,16.41-7.41-15.35-5.29-1.06-6.36,7.41-4.23-7.94-9-6.88-2.65,1.59,7.94-4.24,4.24-9-5.3-.53-10.05.53-14.3-4.23-7.94-7.41-9-7.41-5.82h-14.3l2.12-8.12h16.41l4.77,9.7,10.58,4.24,9,16.94s9,8.47,11.65,9.53,14.29,7.94,14.29,7.94l13.24,9,6.88,5.83v9.3l-9,7.11-2.64,7.41,1.58,5.29,10.59-5.82Z" style="fill:#5d6374"/><polygon points="1295.23 289.06 1320.12 289.06 1343.94 303 1367.77 312 1382.59 312 1398.47 307.76 1413.82 303 1432.88 312 1369.35 361.54 1356.65 342.18 1328.06 346.94 1289.94 372.35 1253.41 381.35 1283.59 381.35 1235.94 397.76 1164.47 417.62 1129.53 434.03 1107.29 424.76 1081.88 417.62 1093.53 407.29 1113.65 391.94 1137.47 372.88 1166.06 372.35 1194.65 361.54 1222.18 342.71 1237.17 323.1 1251.46 316.75 1255 299.29 1295.23 289.06" style="fill:#5d6374"/><path d="M1846.88,122.12V111.88l19.06-10.06h12.71l17.64-7.67H1909l9.88-12.44h18.36l18.53,12.44,18.88,4v17.64l-9.89,9.18-23.29,18.71-17.65,10.94-.7,15.53-12.36,25.14L1894.18,209l3.53-18.44-13.42,8.47-6.35,19.06v14.12l-15.53,16.23-19.06,8.47,4.94-21.18.71-17.64s7.76-6.88,8.47-9.09,2.12-18.44,2.12-18.44l9.17-4.24-15.52-4.94-9.89,19.77-7.06,21.17-9.88,19.06-18.35,7.06s2.12-16.23,2.82-18.35-2.82-9.18-2.82-9.18h-12l6.35-16.94,14.83-12.71,11.29-17.64s7.76-7.77,9.88-10.59,24-13.41,24-13.41l12.71-6L1873,132.71l-23.29,6.35h-15.53l9.17-6.35Z" style="fill:#5d6374"/></g></g></svg>