<svg xmlns="http://www.w3.org/2000/svg" xmlns:xlink="http://www.w3.org/1999/xlink" viewBox="0 0 4095.27 1151.49"><defs><radialGradient id="radial-gradient" cx="4.35" cy="4.35" r="4.35" gradientUnits="userSpaceOnUse"><stop offset="0.21" stop-color="#be2026"/><stop offset="0.41" stop-color="#c33"/><stop offset="0.91" stop-color="#ef3b39" stop-opacity="0.1"/></radialGradient><symbol id="RedLight" data-name="RedLight" viewBox="0 0 8.69 8.69"><circle cx="4.35" cy="4.35" r="4.35" style="fill:url(#radial-gradient)"/></symbol><symbol id="CityLightMdPurp" data-name="CityLightMdPurp" viewBox="0 0 7.81 7.81"><rect width="7.81" height="7.81" style="fill:#b861a6"/></symbol><symbol id="CityLSMPurple" data-name="CityLSMPurple" viewBox="0 0 6.35 6.35"><rect width="6.35" height="6.35" style="fill:#d89ec7"/></symbol><symbol id="CityLightSM_2" data-name="CityLightSM 2" viewBox="0 0 13.41 15.53"><rect width="13.41" height="15.53" style="fill:#434343"/></symbol><symbol id="CityLightSM_3" data-name="CityLightSM 3" viewBox="0 0 7.74 8.96"><rect width="7.73" height="8.96" style="fill:#e5e5e5"/></symbol></defs><g id="Layer_2" data-name="Layer 2"><g id="Seattle"><path d="M4095.27,883.44H4075V636.29h-6.92v-5H4062v-5h-6.55v-3.55l-31.23-5.55h-55L3938,622.68v3.55h-6.56v5h-6v5h-7v30.65h-15.92V658h-36.33v8.93h-17.82V879.39h-8.82V950h-4.23V748.24h-19.37v-17l-35.82-21v-4.48h-35.55v4.48l-35.81,21v17h-19.38v9.89h-63.42V500.31h-8.49V481.73h-39.37V451.28h-16.37v11.61H3543.5V451.28h-8.2v39.38H3509v-8.93h-6.29v43.59h-8.11V764.55h-22.92V490.07h-16.25V467.44h-57.12v22.63H3382.1v28.09h-20.63v226l-17.66-18.56h-20.28V876.29l-7.17,8.08V526.89H3310V494.21h-5.1V407.42h-2.78V393.27h-10.92v2.3h-17.34v-7.45H3272v-4.24l-34.49-30.39V338.17h-12.85v15.32l-34.46,30.39v4.24h-1.93v7.45h-17.34v-2.3H3160v14.15h-2.78v86.79h-5.13v32.68h-6.3V879h-40V465.62h-135V613.18h-30.42V786.4h-10.75V255.19H2916V238.86H2773.63v16.33h-8.34V879.48h-45l-2.64-21.64h3.52l11.14-17.94H2725v-6.34h7.33l-11.14-17.93h-8.65L2673.26,493l-1.39-88.45,25.47-204.19c17.82-1.82,33.08-4.65,44.22-8.15v-5.53a157.08,157.08,0,0,0-16-4l9.5-15.35c19.1-.88,30.81-2,30.81-3.32,0-1.12-8.89-2.16-23.8-3v-7.87a5.69,5.69,0,0,0,2.16-4.12c0-4.3-6.27-7.8-14.24-8.23l1.16-1.89h-15.64c-7.8-7.31-21.59-13.13-38.54-16.22v-8.87l8.75-5.41v-4.13h-7.49v-4.12h-3.59V95.33h-3.2l-4.55-6.55H2661v6.55h-4.52V84.14H2655l-5.71-71-5.71,71h-1.49V95.33h-7.62V90.58h-5.14v4.75H2624v4.82h-3.62v4.12h-7.49v4.13l8.79,5.41v8.86c-17,3.09-30.79,8.91-38.58,16.23h-15.64l1.16,1.89c-8,.43-14.24,3.93-14.24,8.23a5.69,5.69,0,0,0,2.16,4.12v8c-14.11.81-22.47,1.82-22.47,2.91,0,1.25,11.15,2.39,29.45,3.25l9.94,16c-4.78,1-9.13,2.17-13,3.38v5.53c9.18,2.89,21.19,5.31,35.12,7.1l25.56,205.24L2619.75,493l-39.29,322.64h-3l-11.11,17.93h7.3v6.34h-7.3l9.36,15.12-11.57,95h-5.57V861.81h-23.71V366.46h-11.23V357H2504.5v-3.27H2497V357h-20.32v-4.83h-25V357h-13.69v-4.32h-6.17V357h-17.21v9.42h-23.9v6.75h-30.71V748.7h-22.35v-259h-3.68v-54h-4.39V425.56h-10.36V397.43h-11.76l-22-24.56v-8.4h-2.52v7.82h-12.11V355.87h-2.55v16.42h-9.75v-7.82h-2.52v7.82h-12.11V355.87h-2.52V373l-21.92,24.42H2205.9v28.13h-10.37V435.7h-4.39v39.59h-41.46V480h7.84v7.22H2155V772.86h-10.36V577.6h-23.41v-8.69h-4.75v8.69h-2.84v-8.06h-3.81v-6.35h-1.91v-7.92h-6.65v-7.94H2087V522.61h-3.78v24.72h-6.68v-2.84h-8.21v2.84h-2.29V472H2071V461.59h-37.46V448.34h-54.41v13.25h-37.46V472h4.94V670.34h-9.85V329.41h-16.24V311h-2.16V232.49h-2.2V238c-8.76,2.19-11,15.53-18.7,17.54v15.35c7.32-.65,10.37-16.92,18.7-17.74V311h-8v-4.35h-34.88V296.44l-110.44-10.19v43.16h-8.14v239h-35v9.19h-11.86V745.06h-19.69V897.65h-12.37V720h-29.42V648.61h-9.2V643h-9.92V631.35H1585.6V643h-4.88v5.59h-6.07V805.72h-23.83V790.55H1540.1V477.89h8.75V434.81h-77.79v-6.65H1410v6.65h-49.89v43.08h8.75v204h-40V886.61H1315.7V615.42h-34.55V594.17h-131.5v21.25h-27.86V887.91h-15.54V712H1020v88H941.79V685.9H813.46V800H734v89H686.26V724.86H614.64V686.29H566.13v38.57H543V950H518.63v199H4095.27Zm-1366.87-740c7,0,12.61,3,12.61,6.66a3.87,3.87,0,0,1-.67,2H2723Zm-170.3,8.69a3.87,3.87,0,0,1-.67-2c0-3.67,5.68-6.67,12.69-6.67h.08l5.38,8.69ZM2634.51,950h-55.83l11.22-92.15h44.61Zm0-134.36H2595l14.39-118.26h25.08Zm0-132.75h-23.32l18.5-152h4.82Zm0-166.47h-3.05l2.69-22.16.07-.44v-.29l.29-18.69Zm0-121.64-6.19-49.57h6.19Zm0-64.06h-8L2610.3,200.88c7.69.67,15.8,1.16,24.21,1.43Zm29.61-128.29c6.34-.17,12.51-.46,18.47-.85l-18.47,147.94Zm0,335.33,3.49,28.63h-3.49Zm0,43.12h5.25l5.33,43.76h-10.58Zm0,233h16.66v-14.5h-16.66V755.61h18V741.12h-18V697.37h16.66V682.88h-16.66V639.12h12.34L2698,815.63h-33.83Zm25.38,65.61V950h-25.38v-27.9h16.66V907.61h-16.66V857.84h39l2.64,21.64Zm498.76-472.06h-17.34v-7.59h17.34Zm103,0h-17.34v-7.59h17.34Z" style="fill:#363266"/><polygon points="463.8 952.51 463.8 907.52 437.55 907.52 437.55 681.07 385.62 681.07 385.62 657.9 221.61 657.9 221.61 737.1 170.01 737.1 170.01 952.51 161.74 952.51 161.74 880.56 123.15 880.56 123.15 567.89 118.57 567.89 118.57 554.16 35.12 554.16 35.12 567.89 5.35 567.89 5.35 952.51 0 952.51 0 1151.49 518.63 1151.49 518.63 952.51 463.8 952.51" style="fill:#363266"/><use width="8.69" height="8.69" transform="translate(2645.61 6.71)" xlink:href="#RedLight"/><use width="8.69" height="8.69" transform="translate(2355.02 363.27)" xlink:href="#RedLight"/><use width="8.69" height="8.69" transform="translate(2528.34 357.99)" xlink:href="#RedLight"/><use width="8.69" height="8.69" transform="translate(1769.51 285.52)" xlink:href="#RedLight"/><use width="8.69" height="8.69" transform="translate(1921.21 330.5)" xlink:href="#RedLight"/><use width="8.69" height="8.69" transform="translate(1934.76 330.31)" xlink:href="#RedLight"/><use width="8.69" height="8.69" transform="translate(3226.1 335.55)" xlink:href="#RedLight"/><use width="8.69" height="8.69" transform="translate(3290.96 388.06)" xlink:href="#RedLight"/><use width="8.69" height="8.69" transform="translate(3155.08 394.45)" xlink:href="#RedLight"/><use width="7.81" height="7.81" transform="translate(1394.61 549.83)" xlink:href="#CityLightMdPurp"/><use width="7.81" height="7.81" transform="translate(1473.9 549.48)" xlink:href="#CityLightMdPurp"/><use width="7.81" height="7.81" transform="translate(1407.3 591.67)" xlink:href="#CityLightMdPurp"/><use width="7.81" height="7.81" transform="translate(1443.36 587.95)" xlink:href="#CityLightMdPurp"/><use width="7.81" height="7.81" transform="translate(1473.49 607.18)" xlink:href="#CityLightMdPurp"/><use width="7.81" height="7.81" transform="translate(1471.58 643.5)" xlink:href="#CityLightMdPurp"/><use width="7.81" height="7.81" transform="translate(1447.35 732.92)" xlink:href="#CityLightMdPurp"/><use width="7.81" height="7.81" transform="translate(1486.16 730.51)" xlink:href="#CityLightMdPurp"/><use width="7.81" height="7.81" transform="translate(1453.9 825.29)" xlink:href="#CityLightMdPurp"/><use width="7.81" height="7.81" transform="translate(1496.05 825.16)" xlink:href="#CityLightMdPurp"/><use width="7.81" height="7.81" transform="translate(1587.83 660.1)" xlink:href="#CityLightMdPurp"/><use width="7.81" height="7.81" transform="translate(1589.21 688.07)" xlink:href="#CityLightMdPurp"/><use width="7.81" height="7.81" transform="translate(1586.45 780.87)" xlink:href="#CityLightMdPurp"/><use width="7.81" height="7.81" transform="translate(1639.96 785.09)" xlink:href="#CityLightMdPurp"/><use width="7.81" height="7.81" transform="translate(1589.98 832.85)" xlink:href="#CityLightMdPurp"/><use width="7.81" height="7.81" transform="translate(1615.46 832.77)" xlink:href="#CityLightMdPurp"/><use width="6.35" height="6.35" transform="translate(1591.36 871.41)" xlink:href="#CityLSMPurple"/><use width="6.35" height="6.35" transform="translate(1640.15 872.58)" xlink:href="#CityLSMPurple"/><use width="6.35" height="6.35" transform="translate(1547.17 910.22)" xlink:href="#CityLSMPurple"/><use width="6.35" height="6.35" transform="translate(1599.96 916.81)" xlink:href="#CityLSMPurple"/><use width="6.35" height="6.35" transform="translate(1636.69 920.04)" xlink:href="#CityLSMPurple"/><use width="6.35" height="6.35" transform="translate(1543.85 994.12)" xlink:href="#CityLSMPurple"/><use width="6.35" height="6.35" transform="translate(1608.41 995.31)" xlink:href="#CityLSMPurple"/><use width="6.35" height="6.35" transform="translate(1653.45 997.41)" xlink:href="#CityLSMPurple"/><use width="6.35" height="6.35" transform="translate(1750.29 608.32)" xlink:href="#CityLSMPurple"/><use width="6.35" height="6.35" transform="translate(1751.19 676.91)" xlink:href="#CityLSMPurple"/><use width="6.35" height="6.35" transform="translate(1738.46 734.61)" xlink:href="#CityLSMPurple"/><use width="6.35" height="6.35" transform="translate(1729.53 768.81)" xlink:href="#CityLSMPurple"/><use width="6.35" height="6.35" transform="translate(1770.02 761.85)" xlink:href="#CityLSMPurple"/><use width="6.35" height="6.35" transform="translate(1767.15 820.65)" xlink:href="#CityLSMPurple"/><use width="6.35" height="6.35" transform="translate(1767.27 880.42)" xlink:href="#CityLSMPurple"/><use width="6.35" height="6.35" transform="translate(1762.9 910.07)" xlink:href="#CityLSMPurple"/><use width="6.35" height="6.35" transform="translate(1789.65 336.45)" xlink:href="#CityLSMPurple"/><use width="6.35" height="6.35" transform="translate(1835.27 336.07)" xlink:href="#CityLSMPurple"/><use width="6.35" height="6.35" transform="translate(1861.1 336.28)" xlink:href="#CityLSMPurple"/><use width="6.35" height="6.35" transform="translate(1829.27 382.54)" xlink:href="#CityLSMPurple"/><use width="6.35" height="6.35" transform="translate(1820.8 429.82)" xlink:href="#CityLSMPurple"/><use width="6.35" height="6.35" transform="translate(1812.63 472.92)" xlink:href="#CityLSMPurple"/><use width="6.35" height="6.35" transform="translate(1901.27 399.53)" xlink:href="#CityLSMPurple"/><use width="6.35" height="6.35" transform="translate(1896.98 445.91)" xlink:href="#CityLSMPurple"/><use width="6.35" height="6.35" transform="translate(1882.11 504.91)" xlink:href="#CityLSMPurple"/><use width="6.35" height="6.35" transform="translate(1775.41 501.69)" xlink:href="#CityLSMPurple"/><use width="6.35" height="6.35" transform="translate(1815.6 503.02)" xlink:href="#CityLSMPurple"/><use width="8.69" height="8.69" transform="translate(1352.36 430.51)" xlink:href="#RedLight"/><use width="8.69" height="8.69" transform="translate(1424.18 418.36)" xlink:href="#RedLight"/><use width="8.69" height="8.69" transform="translate(1538.46 433.72)" xlink:href="#RedLight"/><use width="13.41" height="15.53" transform="translate(1388.95 504.24)" xlink:href="#CityLightSM_2"/><use width="13.41" height="15.53" transform="translate(1421.86 504.2)" xlink:href="#CityLightSM_2"/><use width="13.41" height="15.53" transform="translate(1437.58 444.01)" xlink:href="#CityLightSM_2"/><use width="13.41" height="15.53" transform="translate(1462.9 443.67)" xlink:href="#CityLightSM_2"/><use width="13.41" height="15.53" transform="translate(1612.12 741.03)" xlink:href="#CityLightSM_2"/><use width="13.41" height="15.53" transform="translate(1651.99 963.31)" xlink:href="#CityLightSM_2"/><use width="13.41" height="15.53" transform="translate(1698.02 963.65)" xlink:href="#CityLightSM_2"/><use width="6.35" height="6.35" transform="translate(2183.68 497.37)" xlink:href="#CityLSMPurple"/><use width="6.35" height="6.35" transform="translate(2183.6 561.72)" xlink:href="#CityLSMPurple"/><use width="6.35" height="6.35" transform="translate(2298.42 514.66)" xlink:href="#CityLSMPurple"/><use width="6.35" height="6.35" transform="translate(2285.65 603.74)" xlink:href="#CityLSMPurple"/><use width="6.35" height="6.35" transform="translate(2272.46 639.57)" xlink:href="#CityLSMPurple"/><use width="6.35" height="6.35" transform="translate(2164.4 625.26)" xlink:href="#CityLSMPurple"/><use width="6.35" height="6.35" transform="translate(2239.04 632.76)" xlink:href="#CityLSMPurple"/><use width="6.35" height="6.35" transform="translate(2402.71 424.05)" xlink:href="#CityLSMPurple"/><use width="6.35" height="6.35" transform="translate(2408.13 580.47)" xlink:href="#CityLSMPurple"/><use width="6.35" height="6.35" transform="translate(2467.68 428.75)" xlink:href="#CityLSMPurple"/><use width="6.35" height="6.35" transform="translate(2479.97 643.7)" xlink:href="#CityLSMPurple"/><use width="6.35" height="6.35" transform="translate(2488.18 768.19)" xlink:href="#CityLSMPurple"/><use width="6.35" height="6.35" transform="translate(2390.82 497.47)" xlink:href="#CityLSMPurple"/><use width="6.35" height="6.35" transform="translate(2442.67 500.11)" xlink:href="#CityLSMPurple"/><use width="6.35" height="6.35" transform="translate(2439.67 757.46)" xlink:href="#CityLSMPurple"/><use width="6.35" height="6.35" transform="translate(2474.08 963.68)" xlink:href="#CityLSMPurple"/><use width="6.35" height="6.35" transform="translate(2441.48 855.06)" xlink:href="#CityLSMPurple"/><use width="7.81" height="7.81" transform="translate(2627.06 236.61)" xlink:href="#CityLightMdPurp"/><use width="7.81" height="7.81" transform="translate(2625.09 283.73)" xlink:href="#CityLightMdPurp"/><use width="7.81" height="7.81" transform="translate(2625.43 344.97)" xlink:href="#CityLightMdPurp"/><use width="7.81" height="7.81" transform="translate(2625.55 397.95)" xlink:href="#CityLightMdPurp"/><use width="7.81" height="7.81" transform="translate(2628.08 430.78)" xlink:href="#CityLightMdPurp"/><use width="7.81" height="7.81" transform="translate(2625.7 459.5)" xlink:href="#CityLightMdPurp"/><use width="7.81" height="7.81" transform="translate(2623.43 491.5)" xlink:href="#CityLightMdPurp"/><use width="7.81" height="7.81" transform="translate(2623.58 519.24)" xlink:href="#CityLightMdPurp"/><use width="7.81" height="7.81" transform="translate(2623.64 538.34)" xlink:href="#CityLightMdPurp"/><use width="7.81" height="7.81" transform="translate(2623.71 561.99)" xlink:href="#CityLightMdPurp"/><use width="7.81" height="7.81" transform="translate(2623.67 582.69)" xlink:href="#CityLightMdPurp"/><use width="6.35" height="6.35" transform="translate(2572.46 171.95)" xlink:href="#CityLSMPurple"/><use width="6.35" height="6.35" transform="translate(2630.18 177.32)" xlink:href="#CityLSMPurple"/><use width="6.35" height="6.35" transform="translate(2683.7 177.46)" xlink:href="#CityLSMPurple"/><use width="6.35" height="6.35" transform="translate(2697.73 174.73)" xlink:href="#CityLSMPurple"/><use width="6.35" height="6.35" transform="translate(2627.24 607.59)" xlink:href="#CityLSMPurple"/><use width="6.35" height="6.35" transform="translate(2625.22 629.44)" xlink:href="#CityLSMPurple"/><use width="6.35" height="6.35" transform="translate(2623.83 675.59)" xlink:href="#CityLSMPurple"/><use width="6.35" height="6.35" transform="translate(2623.95 705.07)" xlink:href="#CityLSMPurple"/><use width="6.35" height="6.35" transform="translate(2624.05 746.55)" xlink:href="#CityLSMPurple"/><use width="6.35" height="6.35" transform="translate(2624.21 761.43)" xlink:href="#CityLSMPurple"/><use width="6.35" height="6.35" transform="translate(2618.01 839.67)" xlink:href="#CityLSMPurple"/><use width="6.35" height="6.35" transform="translate(2657.77 839.25)" xlink:href="#CityLSMPurple"/><use width="6.35" height="6.35" transform="translate(2672.99 839.83)" xlink:href="#CityLSMPurple"/><use width="6.35" height="6.35" transform="translate(2687.72 840.8)" xlink:href="#CityLSMPurple"/><use width="6.35" height="6.35" transform="translate(2599.71 838.71)" xlink:href="#CityLSMPurple"/><use width="6.35" height="6.35" transform="translate(2576.08 839.02)" xlink:href="#CityLSMPurple"/><use width="8.69" height="8.69" transform="translate(2532.22 156.95)" xlink:href="#RedLight"/><use width="8.69" height="8.69" transform="translate(2759.82 159.21)" xlink:href="#RedLight"/><use width="8.69" height="8.69" transform="translate(2605.93 97.95)" xlink:href="#RedLight"/><use width="8.69" height="8.69" transform="translate(2673.2 91.26)" xlink:href="#RedLight"/><use width="13.41" height="15.53" transform="translate(2487.86 381.24)" xlink:href="#CityLightSM_2"/><use width="13.41" height="15.53" transform="translate(2398.88 378.17)" xlink:href="#CityLightSM_2"/><use width="13.41" height="15.53" transform="translate(2476.13 694)" xlink:href="#CityLightSM_2"/><use width="13.41" height="15.53" transform="translate(2472.39 890.68)" xlink:href="#CityLightSM_2"/><use width="13.41" height="15.53" transform="translate(2441.18 903.47)" xlink:href="#CityLightSM_2"/><use width="13.41" height="15.53" transform="translate(2505.19 906.35)" xlink:href="#CityLightSM_2"/><use width="13.41" height="15.53" transform="translate(2226.05 510.76)" xlink:href="#CityLightSM_2"/><use width="13.41" height="15.53" transform="translate(2287.12 476.86)" xlink:href="#CityLightSM_2"/><use width="13.41" height="15.53" transform="translate(2279.36 558.36)" xlink:href="#CityLightSM_2"/><use width="13.41" height="15.53" transform="translate(2198.4 600.38)" xlink:href="#CityLightSM_2"/><use width="6.35" height="6.35" transform="translate(2799.9 336.5)" xlink:href="#CityLSMPurple"/><use width="6.35" height="6.35" transform="translate(2880.96 339.02)" xlink:href="#CityLSMPurple"/><use width="6.35" height="6.35" transform="translate(2798.84 399.21)" xlink:href="#CityLSMPurple"/><use width="6.35" height="6.35" transform="translate(2855.46 404.06)" xlink:href="#CityLSMPurple"/><use width="6.35" height="6.35" transform="translate(2809.45 443.06)" xlink:href="#CityLSMPurple"/><use width="6.35" height="6.35" transform="translate(2817.65 484.36)" xlink:href="#CityLSMPurple"/><use width="6.35" height="6.35" transform="translate(2817.53 506.82)" xlink:href="#CityLSMPurple"/><use width="6.35" height="6.35" transform="translate(2812.93 626.51)" xlink:href="#CityLSMPurple"/><use width="6.35" height="6.35" transform="translate(2803.2 727.56)" xlink:href="#CityLSMPurple"/><use width="6.35" height="6.35" transform="translate(2795.51 842.65)" xlink:href="#CityLSMPurple"/><use width="6.35" height="6.35" transform="translate(2800.92 927.08)" xlink:href="#CityLSMPurple"/><use width="6.35" height="6.35" transform="translate(3010.03 499.03)" xlink:href="#CityLSMPurple"/><use width="6.35" height="6.35" transform="translate(3003.39 603.14)" xlink:href="#CityLSMPurple"/><use width="6.35" height="6.35" transform="translate(3058.03 549.81)" xlink:href="#CityLSMPurple"/><use width="6.35" height="6.35" transform="translate(3053.23 657.22)" xlink:href="#CityLSMPurple"/><use width="6.35" height="6.35" transform="translate(3038.78 783.94)" xlink:href="#CityLSMPurple"/><use width="6.35" height="6.35" transform="translate(3035.01 839.49)" xlink:href="#CityLSMPurple"/><use width="6.35" height="6.35" transform="translate(3038.28 864.81)" xlink:href="#CityLSMPurple"/><use width="6.35" height="6.35" transform="translate(3022.3 650.14)" xlink:href="#CityLSMPurple"/><use width="6.35" height="6.35" transform="translate(3028.41 721.42)" xlink:href="#CityLSMPurple"/><use width="6.35" height="6.35" transform="translate(3014.59 799.75)" xlink:href="#CityLSMPurple"/><use width="6.35" height="6.35" transform="translate(3068.93 710.43)" xlink:href="#CityLSMPurple"/><use width="6.35" height="6.35" transform="translate(3067.53 777.73)" xlink:href="#CityLSMPurple"/><use width="6.35" height="6.35" transform="translate(3061.7 854.65)" xlink:href="#CityLSMPurple"/><use width="6.35" height="6.35" transform="translate(3001.53 557.04)" xlink:href="#CityLSMPurple"/><use width="6.35" height="6.35" transform="translate(3033.33 570.15)" xlink:href="#CityLSMPurple"/><use width="8.69" height="8.69" transform="translate(2775.25 236.62)" xlink:href="#RedLight"/><use width="8.69" height="8.69" transform="translate(2831.86 233.56)" xlink:href="#RedLight"/><use width="8.69" height="8.69" transform="translate(2894.56 231.14)" xlink:href="#RedLight"/><use width="13.41" height="15.53" transform="translate(2882.23 377.86)" xlink:href="#CityLightSM_2"/><use width="13.41" height="15.53" transform="translate(2890.67 493.13)" xlink:href="#CityLightSM_2"/><use width="13.41" height="15.53" transform="translate(2873.26 493.8)" xlink:href="#CityLightSM_2"/><use width="13.41" height="15.53" transform="translate(2990.83 514.38)" xlink:href="#CityLightSM_2"/><use width="13.41" height="15.53" transform="translate(3064.79 515.69)" xlink:href="#CityLightSM_2"/><use width="13.41" height="15.53" transform="translate(1493.59 528.3)" xlink:href="#CityLightSM_2"/><use width="13.41" height="15.53" transform="translate(1500.05 587.99)" xlink:href="#CityLightSM_2"/><use width="13.41" height="15.53" transform="translate(1491.92 618.81)" xlink:href="#CityLightSM_2"/><use width="13.41" height="15.53" transform="translate(3221.64 666.34)" xlink:href="#CityLightSM_2"/><use width="13.41" height="15.53" transform="translate(3273.07 761.01)" xlink:href="#CityLightSM_2"/><use width="13.41" height="15.53" transform="translate(3190.6 637.69)" xlink:href="#CityLightSM_2"/><use width="13.41" height="15.53" transform="translate(3268.38 637.72)" xlink:href="#CityLightSM_2"/><use width="6.35" height="6.35" transform="translate(3202.35 542.84)" xlink:href="#CityLSMPurple"/><use width="6.35" height="6.35" transform="translate(3238.85 546.06)" xlink:href="#CityLSMPurple"/><use width="6.35" height="6.35" transform="translate(3228.7 617.36)" xlink:href="#CityLSMPurple"/><use width="6.35" height="6.35" transform="translate(3185.46 749.46)" xlink:href="#CityLSMPurple"/><use width="6.35" height="6.35" transform="translate(3236.81 749.09)" xlink:href="#CityLSMPurple"/><use width="6.35" height="6.35" transform="translate(3399.57 521.6)" xlink:href="#CityLSMPurple"/><use width="6.35" height="6.35" transform="translate(3427.31 521.01)" xlink:href="#CityLSMPurple"/><use width="6.35" height="6.35" transform="translate(3435.93 548.9)" xlink:href="#CityLSMPurple"/><use width="6.35" height="6.35" transform="translate(3435.34 596.36)" xlink:href="#CityLSMPurple"/><use width="6.35" height="6.35" transform="translate(3440.57 695.39)" xlink:href="#CityLSMPurple"/><use width="6.35" height="6.35" transform="translate(3441.89 744.88)" xlink:href="#CityLSMPurple"/><use width="6.35" height="6.35" transform="translate(3360.36 764.47)" xlink:href="#CityLSMPurple"/><use width="6.35" height="6.35" transform="translate(3378.14 855.07)" xlink:href="#CityLSMPurple"/><use width="6.35" height="6.35" transform="translate(3595.64 541.95)" xlink:href="#CityLSMPurple"/><use width="6.35" height="6.35" transform="translate(3592.99 672.62)" xlink:href="#CityLSMPurple"/><use width="6.35" height="6.35" transform="translate(3516.44 653)" xlink:href="#CityLSMPurple"/><use width="6.35" height="6.35" transform="translate(3549.81 653.07)" xlink:href="#CityLSMPurple"/><use width="6.35" height="6.35" transform="translate(3525.12 573.94)" xlink:href="#CityLSMPurple"/><use width="6.35" height="6.35" transform="translate(3457.49 839.16)" xlink:href="#CityLSMPurple"/><use width="6.35" height="6.35" transform="translate(3603.2 840.56)" xlink:href="#CityLSMPurple"/><use width="6.35" height="6.35" transform="translate(3683.45 832.82)" xlink:href="#CityLSMPurple"/><use width="6.35" height="6.35" transform="translate(3518.94 894.64)" xlink:href="#CityLSMPurple"/><use width="6.35" height="6.35" transform="translate(3657.56 892.61)" xlink:href="#CityLSMPurple"/><use width="6.35" height="6.35" transform="translate(3412.6 890.07)" xlink:href="#CityLSMPurple"/><use width="6.35" height="6.35" transform="translate(3537.5 873.57)" xlink:href="#CityLSMPurple"/><use width="6.35" height="6.35" transform="translate(3608.18 874.16)" xlink:href="#CityLSMPurple"/><use width="7.81" height="7.81" transform="translate(3510.64 832.94)" xlink:href="#CityLightMdPurp"/><use width="7.81" height="7.81" transform="translate(3589.39 826.67)" xlink:href="#CityLightMdPurp"/><use width="7.81" height="7.81" transform="translate(3390.69 671.45)" xlink:href="#CityLightMdPurp"/><use width="7.81" height="7.81" transform="translate(3430.65 670.6)" xlink:href="#CityLightMdPurp"/><use width="7.81" height="7.81" transform="translate(3581.38 590.46)" xlink:href="#CityLightMdPurp"/><use width="7.81" height="7.81" transform="translate(3583.52 568.1)" xlink:href="#CityLightMdPurp"/><use width="8.69" height="8.69" transform="translate(3495.78 477.82)" xlink:href="#RedLight"/><use width="8.69" height="8.69" transform="translate(3565.91 448.31)" xlink:href="#RedLight"/><use width="8.69" height="8.69" transform="translate(3551.01 447.94)" xlink:href="#RedLight"/><use width="8.69" height="8.69" transform="translate(3387.79 466.86)" xlink:href="#RedLight"/><use width="8.69" height="8.69" transform="translate(3447.93 467.15)" xlink:href="#RedLight"/><use width="8.69" height="8.69" transform="translate(3351.84 518.28)" xlink:href="#RedLight"/><use width="6.35" height="6.35" transform="translate(3962.82 654.35)" xlink:href="#CityLSMPurple"/><use width="6.35" height="6.35" transform="translate(4036.21 653.3)" xlink:href="#CityLSMPurple"/><use width="6.35" height="6.35" transform="translate(3967.56 685.74)" xlink:href="#CityLSMPurple"/><use width="6.35" height="6.35" transform="translate(4018.31 685.31)" xlink:href="#CityLSMPurple"/><use width="6.35" height="6.35" transform="translate(3947.79 731.06)" xlink:href="#CityLSMPurple"/><use width="6.35" height="6.35" transform="translate(4013 764.68)" xlink:href="#CityLSMPurple"/><use width="6.35" height="6.35" transform="translate(4012.3 831.11)" xlink:href="#CityLSMPurple"/><use width="8.69" height="8.69" transform="translate(3833.48 671.43)" xlink:href="#RedLight"/><use width="8.69" height="8.69" transform="translate(3906.9 633.8)" xlink:href="#RedLight"/><use width="8.69" height="8.69" transform="translate(3968.56 621.57)" xlink:href="#RedLight"/><use width="8.69" height="8.69" transform="translate(3991.58 621.85)" xlink:href="#RedLight"/><use width="7.73" height="8.96" transform="translate(2607.65 136.97)" xlink:href="#CityLightSM_3"/><use width="7.73" height="8.96" transform="translate(2646.27 138.74)" xlink:href="#CityLightSM_3"/><use width="7.73" height="8.96" transform="translate(2686.18 136.2)" xlink:href="#CityLightSM_3"/><use width="8.69" height="8.69" transform="translate(2571.22 817.5)" xlink:href="#RedLight"/><use width="8.69" height="8.69" transform="translate(2593.84 816.83)" xlink:href="#RedLight"/><use width="8.69" height="8.69" transform="translate(2719.39 814.71)" xlink:href="#RedLight"/><use width="8.69" height="8.69" transform="translate(2691.89 816.32)" xlink:href="#RedLight"/><use width="6.35" height="6.35" transform="translate(1143.11 737.5)" xlink:href="#CityLSMPurple"/><use width="6.35" height="6.35" transform="translate(1231.62 737.88)" xlink:href="#CityLSMPurple"/><use width="6.35" height="6.35" transform="translate(1271.71 736.23)" xlink:href="#CityLSMPurple"/><use width="6.35" height="6.35" transform="translate(1144.75 790.08)" xlink:href="#CityLSMPurple"/><use width="6.35" height="6.35" transform="translate(1184.81 785.68)" xlink:href="#CityLSMPurple"/><use width="6.35" height="6.35" transform="translate(1256.96 788.49)" xlink:href="#CityLSMPurple"/><use width="6.35" height="6.35" transform="translate(1147.89 870.93)" xlink:href="#CityLSMPurple"/><use width="6.35" height="6.35" transform="translate(1223.28 868.9)" xlink:href="#CityLSMPurple"/><use width="7.81" height="7.81" transform="translate(1151.15 831.9)" xlink:href="#CityLightMdPurp"/><use width="7.81" height="7.81" transform="translate(1220.51 827.1)" xlink:href="#CityLightMdPurp"/><use width="7.81" height="7.81" transform="translate(1117.05 916.12)" xlink:href="#CityLightMdPurp"/><use width="7.81" height="7.81" transform="translate(1226.96 918.32)" xlink:href="#CityLightMdPurp"/><use width="7.81" height="7.81" transform="translate(1282.57 919.82)" xlink:href="#CityLightMdPurp"/><use width="7.81" height="7.81" transform="translate(856.24 844.59)" xlink:href="#CityLightMdPurp"/><use width="7.81" height="7.81" transform="translate(937.99 841.2)" xlink:href="#CityLightMdPurp"/><use width="7.81" height="7.81" transform="translate(1030.54 844.39)" xlink:href="#CityLightMdPurp"/><use width="7.81" height="7.81" transform="translate(1066.38 844.36)" xlink:href="#CityLightMdPurp"/><use width="7.81" height="7.81" transform="translate(907.18 890.74)" xlink:href="#CityLightMdPurp"/><use width="7.81" height="7.81" transform="translate(1004.6 888.69)" xlink:href="#CityLightMdPurp"/><use width="7.81" height="7.81" transform="translate(1054.86 888.21)" xlink:href="#CityLightMdPurp"/><use width="7.81" height="7.81" transform="translate(902.28 950.52)" xlink:href="#CityLightMdPurp"/><use width="7.81" height="7.81" transform="translate(999.22 949.43)" xlink:href="#CityLightMdPurp"/><use width="7.81" height="7.81" transform="translate(1047.17 948.48)" xlink:href="#CityLightMdPurp"/><use width="6.35" height="6.35" transform="translate(1091.44 957.89)" xlink:href="#CityLSMPurple"/><use width="6.35" height="6.35" transform="translate(1249.49 958.79)" xlink:href="#CityLSMPurple"/><use width="6.35" height="6.35" transform="translate(1330.66 950.75)" xlink:href="#CityLSMPurple"/><use width="6.35" height="6.35" transform="translate(1138.69 964.04)" xlink:href="#CityLSMPurple"/><use width="6.35" height="6.35" transform="translate(1174.14 963.17)" xlink:href="#CityLSMPurple"/><use width="6.35" height="6.35" transform="translate(958.24 861.14)" xlink:href="#CityLSMPurple"/><use width="6.35" height="6.35" transform="translate(888.83 826.46)" xlink:href="#CityLSMPurple"/><use width="6.35" height="6.35" transform="translate(843.14 755.09)" xlink:href="#CityLSMPurple"/><use width="6.35" height="6.35" transform="translate(893.34 755.84)" xlink:href="#CityLSMPurple"/><use width="6.35" height="6.35" transform="translate(1044.92 763.98)" xlink:href="#CityLSMPurple"/><use width="6.35" height="6.35" transform="translate(1259.22 848.36)" xlink:href="#CityLSMPurple"/><use width="6.35" height="6.35" transform="translate(1269.51 848.32)" xlink:href="#CityLSMPurple"/><use width="6.35" height="6.35" transform="translate(1378.14 736.88)" xlink:href="#CityLSMPurple"/><use width="6.35" height="6.35" transform="translate(1378.15 766.4)" xlink:href="#CityLSMPurple"/><use width="6.35" height="6.35" transform="translate(1372.98 842.77)" xlink:href="#CityLSMPurple"/><use width="6.35" height="6.35" transform="translate(1394.64 791.3)" xlink:href="#CityLSMPurple"/><use width="6.35" height="6.35" transform="translate(1390.87 909.79)" xlink:href="#CityLSMPurple"/><use width="13.41" height="15.53" transform="translate(749.03 821.27)" xlink:href="#CityLightSM_2"/><use width="13.41" height="15.53" transform="translate(754.45 887.42)" xlink:href="#CityLightSM_2"/><use width="13.41" height="15.53" transform="translate(784.43 833.54)" xlink:href="#CityLightSM_2"/><use width="13.41" height="15.53" transform="translate(792.26 881.28)" xlink:href="#CityLightSM_2"/><use width="13.41" height="15.53" transform="translate(832.27 788.45)" xlink:href="#CityLightSM_2"/><use width="13.41" height="15.53" transform="translate(872.31 788.34)" xlink:href="#CityLightSM_2"/><use width="13.41" height="15.53" transform="translate(582.97 747.41)" xlink:href="#CityLightSM_2"/><use width="13.41" height="15.53" transform="translate(590.54 933.53)" xlink:href="#CityLightSM_2"/><use width="13.41" height="15.53" transform="translate(676.12 933.49)" xlink:href="#CityLightSM_2"/><use width="6.35" height="6.35" transform="translate(1867.05 679.88)" xlink:href="#CityLSMPurple"/><use width="6.35" height="6.35" transform="translate(1883.44 754.45)" xlink:href="#CityLSMPurple"/><use width="6.35" height="6.35" transform="translate(1877.03 831.85)" xlink:href="#CityLSMPurple"/><use width="6.35" height="6.35" transform="translate(1881.27 915.06)" xlink:href="#CityLSMPurple"/><use width="6.35" height="6.35" transform="translate(1942.4 823.52)" xlink:href="#CityLSMPurple"/><use width="6.35" height="6.35" transform="translate(1940.21 934.11)" xlink:href="#CityLSMPurple"/><use width="6.35" height="6.35" transform="translate(2015.75 868.03)" xlink:href="#CityLSMPurple"/><use width="6.35" height="6.35" transform="translate(2013.78 964.37)" xlink:href="#CityLSMPurple"/><use width="6.35" height="6.35" transform="translate(2004.99 1040.1)" xlink:href="#CityLSMPurple"/><use width="6.35" height="6.35" transform="translate(1891.84 979.96)" xlink:href="#CityLSMPurple"/><use width="6.35" height="6.35" transform="translate(1894.2 1061.8)" xlink:href="#CityLSMPurple"/><use width="6.35" height="6.35" transform="translate(1950.85 990.61)" xlink:href="#CityLSMPurple"/><use width="6.35" height="6.35" transform="translate(1950.67 1059.88)" xlink:href="#CityLSMPurple"/><use width="7.81" height="7.81" transform="translate(1945.26 753.44)" xlink:href="#CityLightMdPurp"/><use width="7.81" height="7.81" transform="translate(1979.43 753.58)" xlink:href="#CityLightMdPurp"/><use width="7.81" height="7.81" transform="translate(1981.33 618.47)" xlink:href="#CityLightMdPurp"/><use width="7.81" height="7.81" transform="translate(2029.52 623.25)" xlink:href="#CityLightMdPurp"/><use width="7.81" height="7.81" transform="translate(1801.6 635.44)" xlink:href="#CityLightMdPurp"/><use width="7.81" height="7.81" transform="translate(1862.26 639.06)" xlink:href="#CityLightMdPurp"/><use width="6.35" height="6.35" transform="translate(2878.24 580.68)" xlink:href="#CityLSMPurple"/><use width="6.35" height="6.35" transform="translate(2878.07 672.88)" xlink:href="#CityLSMPurple"/><use width="6.35" height="6.35" transform="translate(2873.4 802.76)" xlink:href="#CityLSMPurple"/><use width="6.35" height="6.35" transform="translate(2844.38 640.91)" xlink:href="#CityLSMPurple"/><use width="6.35" height="6.35" transform="translate(2837.3 780.22)" xlink:href="#CityLSMPurple"/><use width="6.35" height="6.35" transform="translate(2898.48 702.62)" xlink:href="#CityLSMPurple"/><use width="6.35" height="6.35" transform="translate(2891.89 813.45)" xlink:href="#CityLSMPurple"/><use width="6.35" height="6.35" transform="translate(2837.14 690.04)" xlink:href="#CityLSMPurple"/><use width="7.81" height="7.81" transform="translate(2876.85 734.79)" xlink:href="#CityLightMdPurp"/><use width="7.81" height="7.81" transform="translate(2827.17 569.78)" xlink:href="#CityLightMdPurp"/><use width="7.81" height="7.81" transform="translate(2873.79 536.89)" xlink:href="#CityLightMdPurp"/><use width="13.41" height="15.53" transform="translate(1050.65 1010.8)" xlink:href="#CityLightSM_2"/><use width="13.41" height="15.53" transform="translate(1174.6 1011.84)" xlink:href="#CityLightSM_2"/><use width="13.41" height="15.53" transform="translate(1265.6 1005.76)" xlink:href="#CityLightSM_2"/><use width="13.41" height="15.53" transform="translate(1106.28 1060.04)" xlink:href="#CityLightSM_2"/><use width="13.41" height="15.53" transform="translate(1237.59 1066.46)" xlink:href="#CityLightSM_2"/><use width="13.41" height="15.53" transform="translate(1392.71 1055.15)" xlink:href="#CityLightSM_2"/><use width="13.41" height="15.53" transform="translate(1327.14 1013.64)" xlink:href="#CityLightSM_2"/><use width="13.41" height="15.53" transform="translate(1375.73 1010.16)" xlink:href="#CityLightSM_2"/><use width="13.41" height="15.53" transform="translate(585.09 993.24)" xlink:href="#CityLightSM_2"/><use width="13.41" height="15.53" transform="translate(585.58 1034.77)" xlink:href="#CityLightSM_2"/><use width="13.41" height="15.53" transform="translate(216.06 808)" xlink:href="#CityLightSM_2"/><use width="13.41" height="15.53" transform="translate(367.59 818.4)" xlink:href="#CityLightSM_2"/><use width="13.41" height="15.53" transform="translate(349.2 774.96)" xlink:href="#CityLightSM_2"/><use width="6.35" height="6.35" transform="translate(58.55 638.16)" xlink:href="#CityLSMPurple"/><use width="6.35" height="6.35" transform="translate(57.19 744.14)" xlink:href="#CityLSMPurple"/><use width="6.35" height="6.35" transform="translate(74.65 683.46)" xlink:href="#CityLSMPurple"/><use width="6.35" height="6.35" transform="translate(70.99 768.19)" xlink:href="#CityLSMPurple"/><use width="6.35" height="6.35" transform="translate(24.32 861.04)" xlink:href="#CityLSMPurple"/><use width="6.35" height="6.35" transform="translate(55.05 861.04)" xlink:href="#CityLSMPurple"/><use width="6.35" height="6.35" transform="translate(37.86 948.26)" xlink:href="#CityLSMPurple"/><use width="6.35" height="6.35" transform="translate(115.57 951.09)" xlink:href="#CityLSMPurple"/><use width="6.35" height="6.35" transform="translate(9.47 1080.66)" xlink:href="#CityLSMPurple"/><use width="6.35" height="6.35" transform="translate(133.94 1076.63)" xlink:href="#CityLSMPurple"/><use width="7.81" height="7.81" transform="translate(68.72 1061.05)" xlink:href="#CityLightMdPurp"/><use width="7.81" height="7.81" transform="translate(99.34 1061.66)" xlink:href="#CityLightMdPurp"/><use width="7.81" height="7.81" transform="translate(131.85 1004.8)" xlink:href="#CityLightMdPurp"/><use width="7.81" height="7.81" transform="translate(136.14 1035.57)" xlink:href="#CityLightMdPurp"/><use width="7.81" height="7.81" transform="translate(190.35 777.29)" xlink:href="#CityLightMdPurp"/><use width="7.81" height="7.81" transform="translate(302.43 777.66)" xlink:href="#CityLightMdPurp"/><use width="7.81" height="7.81" transform="translate(216.62 834.39)" xlink:href="#CityLightMdPurp"/><use width="7.81" height="7.81" transform="translate(343.87 833.24)" xlink:href="#CityLightMdPurp"/><use width="7.81" height="7.81" transform="translate(197.84 903.65)" xlink:href="#CityLightMdPurp"/><use width="7.81" height="7.81" transform="translate(342.13 904.39)" xlink:href="#CityLightMdPurp"/><use width="7.81" height="7.81" transform="translate(275.04 920.61)" xlink:href="#CityLightMdPurp"/><use width="7.81" height="7.81" transform="translate(386.05 753.86)" xlink:href="#CityLightMdPurp"/><use width="7.81" height="7.81" transform="translate(378.74 920.97)" xlink:href="#CityLightMdPurp"/><use width="7.73" height="8.96" transform="translate(2794.12 276.57)" xlink:href="#CityLightSM_3"/><use width="7.73" height="8.96" transform="translate(2852.44 276.31)" xlink:href="#CityLightSM_3"/><use width="7.73" height="8.96" transform="translate(2889.49 276.37)" xlink:href="#CityLightSM_3"/><use width="7.73" height="8.96" transform="translate(2994.5 476.74)" xlink:href="#CityLightSM_3"/><use width="7.73" height="8.96" transform="translate(3040 476.61)" xlink:href="#CityLightSM_3"/><use width="7.73" height="8.96" transform="translate(3079.5 476.65)" xlink:href="#CityLightSM_3"/><use width="7.73" height="8.96" transform="translate(3207.25 397.14)" xlink:href="#CityLightSM_3"/><use width="7.73" height="8.96" transform="translate(3249.86 396.69)" xlink:href="#CityLightSM_3"/><use width="7.73" height="8.96" transform="translate(3176.38 446.19)" xlink:href="#CityLightSM_3"/><use width="7.73" height="8.96" transform="translate(3230.8 448.27)" xlink:href="#CityLightSM_3"/><use width="7.73" height="8.96" transform="translate(3254.24 448.05)" xlink:href="#CityLightSM_3"/><use width="7.73" height="8.96" transform="translate(3276.36 447.62)" xlink:href="#CityLightSM_3"/><use width="7.73" height="8.96" transform="translate(3392.98 559.35)" xlink:href="#CityLightSM_3"/><use width="7.73" height="8.96" transform="translate(3386.24 604.54)" xlink:href="#CityLightSM_3"/><use width="7.73" height="8.96" transform="translate(3244.07 570.63)" xlink:href="#CityLightSM_3"/><use width="7.73" height="8.96" transform="translate(3278.39 570.46)" xlink:href="#CityLightSM_3"/><use width="7.73" height="8.96" transform="translate(2484.57 474.95)" xlink:href="#CityLightSM_3"/><use width="7.73" height="8.96" transform="translate(2492.65 556.78)" xlink:href="#CityLightSM_3"/><use width="7.73" height="8.96" transform="translate(2492.67 594.06)" xlink:href="#CityLightSM_3"/><use width="7.73" height="8.96" transform="translate(1776.48 554.37)" xlink:href="#CityLightSM_3"/><use width="7.73" height="8.96" transform="translate(1824.99 554.51)" xlink:href="#CityLightSM_3"/><use width="7.73" height="8.96" transform="translate(1861.62 554.69)" xlink:href="#CityLightSM_3"/><use width="7.73" height="8.96" transform="translate(1961.54 487.92)" xlink:href="#CityLightSM_3"/><use width="7.73" height="8.96" transform="translate(1998.26 487.25)" xlink:href="#CityLightSM_3"/><use width="7.73" height="8.96" transform="translate(2018.44 487.4)" xlink:href="#CityLightSM_3"/><use width="7.73" height="8.96" transform="translate(1970.88 533.2)" xlink:href="#CityLightSM_3"/><use width="7.73" height="8.96" transform="translate(1999.03 533.34)" xlink:href="#CityLightSM_3"/><use width="7.73" height="8.96" transform="translate(2024.55 532.82)" xlink:href="#CityLightSM_3"/><use width="7.73" height="8.96" transform="translate(2072.33 646.68)" xlink:href="#CityLightSM_3"/><use width="7.73" height="8.96" transform="translate(2078.31 698.58)" xlink:href="#CityLightSM_3"/><use width="7.73" height="8.96" transform="translate(2077.92 744.58)" xlink:href="#CityLightSM_3"/><use width="7.73" height="8.96" transform="translate(2077.77 830.94)" xlink:href="#CityLightSM_3"/><use width="7.73" height="8.96" transform="translate(2084.32 930.12)" xlink:href="#CityLightSM_3"/><use width="7.73" height="8.96" transform="translate(2090.87 1020.03)" xlink:href="#CityLightSM_3"/><use width="7.73" height="8.96" transform="translate(2203.33 703.73)" xlink:href="#CityLightSM_3"/><use width="7.73" height="8.96" transform="translate(2219.18 859.8)" xlink:href="#CityLightSM_3"/><use width="7.73" height="8.96" transform="translate(2274.97 720.18)" xlink:href="#CityLightSM_3"/><use width="7.73" height="8.96" transform="translate(2273.96 917.3)" xlink:href="#CityLightSM_3"/><use width="7.73" height="8.96" transform="translate(2202.38 772.79)" xlink:href="#CityLightSM_3"/><use width="7.73" height="8.96" transform="translate(2239.83 772.81)" xlink:href="#CityLightSM_3"/><use width="7.73" height="8.96" transform="translate(2843.69 846.1)" xlink:href="#CityLightSM_3"/><use width="7.73" height="8.96" transform="translate(2857.14 955.38)" xlink:href="#CityLightSM_3"/><use width="7.73" height="8.96" transform="translate(2863.21 442.31)" xlink:href="#CityLightSM_3"/><use width="7.73" height="8.96" transform="translate(2828.28 346.59)" xlink:href="#CityLightSM_3"/><use width="7.73" height="8.96" transform="translate(2875.02 637.36)" xlink:href="#CityLightSM_3"/><use width="7.73" height="8.96" transform="translate(3061.28 608.94)" xlink:href="#CityLightSM_3"/><use width="7.73" height="8.96" transform="translate(2952.5 649.9)" xlink:href="#CityLightSM_3"/><use width="7.73" height="8.96" transform="translate(2955.67 711.5)" xlink:href="#CityLightSM_3"/><use width="7.73" height="8.96" transform="translate(2962.25 769.62)" xlink:href="#CityLightSM_3"/><use width="7.73" height="8.96" transform="translate(2962.3 837.33)" xlink:href="#CityLightSM_3"/><use width="7.73" height="8.96" transform="translate(3175.96 705.14)" xlink:href="#CityLightSM_3"/><use width="7.73" height="8.96" transform="translate(3269.44 705.22)" xlink:href="#CityLightSM_3"/><use width="7.73" height="8.96" transform="translate(3182.12 833.26)" xlink:href="#CityLightSM_3"/><use width="7.73" height="8.96" transform="translate(3259.78 836.26)" xlink:href="#CityLightSM_3"/><use width="7.73" height="8.96" transform="translate(3516.85 720.55)" xlink:href="#CityLightSM_3"/><use width="7.73" height="8.96" transform="translate(3565.82 720.12)" xlink:href="#CityLightSM_3"/><use width="7.73" height="8.96" transform="translate(3514.31 495.23)" xlink:href="#CityLightSM_3"/><use width="7.73" height="8.96" transform="translate(3555.33 495.61)" xlink:href="#CityLightSM_3"/><use width="7.73" height="8.96" transform="translate(3605.7 497.79)" xlink:href="#CityLightSM_3"/><use width="7.73" height="8.96" transform="translate(3654.49 787.88)" xlink:href="#CityLightSM_3"/><use width="7.73" height="8.96" transform="translate(3725.58 779.9)" xlink:href="#CityLightSM_3"/><use width="7.73" height="8.96" transform="translate(3751.67 777.21)" xlink:href="#CityLightSM_3"/><use width="7.73" height="8.96" transform="translate(3728.31 738.25)" xlink:href="#CityLightSM_3"/><use width="7.73" height="8.96" transform="translate(3797.55 739.79)" xlink:href="#CityLightSM_3"/><use width="7.73" height="8.96" transform="translate(3732.82 845.15)" xlink:href="#CityLightSM_3"/><use width="7.73" height="8.96" transform="translate(3785.51 843.03)" xlink:href="#CityLightSM_3"/><use width="7.73" height="8.96" transform="translate(3007.19 975.14)" xlink:href="#CityLightSM_3"/><use width="7.73" height="8.96" transform="translate(3154.18 975.82)" xlink:href="#CityLightSM_3"/><use width="7.73" height="8.96" transform="translate(3337.95 970.33)" xlink:href="#CityLightSM_3"/><use width="7.73" height="8.96" transform="translate(3446.19 962.62)" xlink:href="#CityLightSM_3"/><use width="7.73" height="8.96" transform="translate(3586.85 944.79)" xlink:href="#CityLightSM_3"/><use width="7.73" height="8.96" transform="translate(3124.26 939.54)" xlink:href="#CityLightSM_3"/><use width="7.73" height="8.96" transform="translate(3262.36 940.52)" xlink:href="#CityLightSM_3"/><use width="7.73" height="8.96" transform="translate(3336.54 936.39)" xlink:href="#CityLightSM_3"/><use width="7.73" height="8.96" transform="translate(3889.84 716.57)" xlink:href="#CityLightSM_3"/><use width="7.73" height="8.96" transform="translate(3889.54 775.52)" xlink:href="#CityLightSM_3"/><use width="7.73" height="8.96" transform="translate(3888.85 843.03)" xlink:href="#CityLightSM_3"/><use width="7.73" height="8.96" transform="translate(3954.52 803.24)" xlink:href="#CityLightSM_3"/><use width="7.73" height="8.96" transform="translate(3964.62 889.12)" xlink:href="#CityLightSM_3"/><use width="7.73" height="8.96" transform="translate(3959.62 930.06)" xlink:href="#CityLightSM_3"/><use width="7.73" height="8.96" transform="translate(3873.96 932.56)" xlink:href="#CityLightSM_3"/><use width="7.73" height="8.96" transform="translate(3905.87 930.11)" xlink:href="#CityLightSM_3"/><use width="7.73" height="8.96" transform="translate(4014.76 955.14)" xlink:href="#CityLightSM_3"/><use width="7.73" height="8.96" transform="translate(4052.43 958.98)" xlink:href="#CityLightSM_3"/><use width="7.73" height="8.96" transform="translate(841.93 1023.93)" xlink:href="#CityLightSM_3"/><use width="7.73" height="8.96" transform="translate(1006.99 1024.04)" xlink:href="#CityLightSM_3"/><use width="7.73" height="8.96" transform="translate(579.66 866.04)" xlink:href="#CityLightSM_3"/><use width="7.73" height="8.96" transform="translate(586.56 835.55)" xlink:href="#CityLightSM_3"/><use width="7.73" height="8.96" transform="translate(586.33 813)" xlink:href="#CityLightSM_3"/><use width="7.73" height="8.96" transform="translate(636.13 775.3)" xlink:href="#CityLightSM_3"/><use width="7.73" height="8.96" transform="translate(643.49 831.66)" xlink:href="#CityLightSM_3"/><use width="7.73" height="8.96" transform="translate(642.64 894.22)" xlink:href="#CityLightSM_3"/><use width="7.73" height="8.96" transform="translate(261.75 719.68)" xlink:href="#CityLightSM_3"/><use width="7.73" height="8.96" transform="translate(355.53 713.08)" xlink:href="#CityLightSM_3"/><use width="7.73" height="8.96" transform="translate(370.54 713.06)" xlink:href="#CityLightSM_3"/><use width="7.73" height="8.96" transform="translate(252.3 883.07)" xlink:href="#CityLightSM_3"/><use width="7.73" height="8.96" transform="translate(339.08 883.2)" xlink:href="#CityLightSM_3"/><use width="7.73" height="8.96" transform="translate(240.2 1061.94)" xlink:href="#CityLightSM_3"/><use width="7.73" height="8.96" transform="translate(402.82 1062.27)" xlink:href="#CityLightSM_3"/><use width="7.73" height="8.96" transform="translate(625.7 1062.65)" xlink:href="#CityLightSM_3"/><use width="7.73" height="8.96" transform="translate(1173 666.03)" xlink:href="#CityLightSM_3"/><use width="7.73" height="8.96" transform="translate(1271.48 663.79)" xlink:href="#CityLightSM_3"/><use width="7.73" height="8.96" transform="translate(1208.51 626.09)" xlink:href="#CityLightSM_3"/><use width="7.73" height="8.96" transform="translate(1248.09 639.41)" xlink:href="#CityLightSM_3"/><use width="7.73" height="8.96" transform="translate(1403.73 682.31)" xlink:href="#CityLightSM_3"/><use width="7.73" height="8.96" transform="translate(1499.43 682.31)" xlink:href="#CityLightSM_3"/><use width="7.73" height="8.96" transform="translate(1454.49 867.85)" xlink:href="#CityLightSM_3"/><use width="7.73" height="8.96" transform="translate(1467.13 961.09)" xlink:href="#CityLightSM_3"/><use width="7.73" height="8.96" transform="translate(1575.28 1044.23)" xlink:href="#CityLightSM_3"/><use width="7.73" height="8.96" transform="translate(1689.66 1031.54)" xlink:href="#CityLightSM_3"/><use width="7.73" height="8.96" transform="translate(1757.35 1028.61)" xlink:href="#CityLightSM_3"/><use width="7.73" height="8.96" transform="translate(2215.82 1016.75)" xlink:href="#CityLightSM_3"/><use width="7.73" height="8.96" transform="translate(2403.74 1019.13)" xlink:href="#CityLightSM_3"/><use width="7.73" height="8.96" transform="translate(2593.88 1015.61)" xlink:href="#CityLightSM_3"/><use width="7.73" height="8.96" transform="translate(2806.29 1035.55)" xlink:href="#CityLightSM_3"/><use width="7.73" height="8.96" transform="translate(3275.01 1036.77)" xlink:href="#CityLightSM_3"/><use width="7.73" height="8.96" transform="translate(3679.76 1026.23)" xlink:href="#CityLightSM_3"/><use width="7.73" height="8.96" transform="translate(2220.67 415.98)" xlink:href="#CityLightSM_3"/><use width="7.73" height="8.96" transform="translate(2251.15 408.83)" xlink:href="#CityLightSM_3"/><use width="7.73" height="8.96" transform="translate(2284.52 416.11)" xlink:href="#CityLightSM_3"/><use width="7.73" height="8.96" transform="translate(1813.18 711.62)" xlink:href="#CityLightSM_3"/><use width="7.73" height="8.96" transform="translate(1813.44 785.83)" xlink:href="#CityLightSM_3"/><use width="7.73" height="8.96" transform="translate(1814.14 935.67)" xlink:href="#CityLightSM_3"/><use width="7.73" height="8.96" transform="translate(1183.58 724.97)" xlink:href="#CityLightSM_3"/><use width="7.73" height="8.96" transform="translate(1181.21 903.19)" xlink:href="#CityLightSM_3"/><use width="7.73" height="8.96" transform="translate(1427.96 473.75)" xlink:href="#CityLightSM_3"/><use width="7.73" height="8.96" transform="translate(1468.06 473.8)" xlink:href="#CityLightSM_3"/><use width="7.73" height="8.96" transform="translate(1771.24 370.71)" xlink:href="#CityLightSM_3"/><use width="7.73" height="8.96" transform="translate(1861.52 369.62)" xlink:href="#CityLightSM_3"/><use width="7.73" height="8.96" transform="translate(1860.97 425.32)" xlink:href="#CityLightSM_3"/></g></g></svg>