<svg xmlns="http://www.w3.org/2000/svg" xmlns:xlink="http://www.w3.org/1999/xlink" viewBox="0 0 3981.28 1520.79"><defs><symbol id="StarRound5PX" data-name="StarRound5PX" viewBox="0 0 4.59 4.59"><circle cx="2.29" cy="2.29" r="2.29" style="fill:#fff"/></symbol><symbol id="Star4P" data-name="Star4P" viewBox="0 0 25.94 25.94"><path d="M25.94,13c-10,1.62-11.35,2.94-13,13-1.63-10-3-11.35-13-13,10-1.63,11.34-3,13-13C14.59,10,15.91,11.34,25.94,13Z" style="fill:#fff"/></symbol></defs><g id="Layer_2" data-name="Layer 2"><g id="Stars"><use width="4.59" height="4.59" transform="translate(198.94 273.79)" xlink:href="#StarRound5PX"/><use width="4.59" height="4.59" transform="translate(516.75 216.48)" xlink:href="#StarRound5PX"/><use width="4.59" height="4.59" transform="translate(659.9 324.63)" xlink:href="#StarRound5PX"/><use width="4.59" height="4.59" transform="translate(682.06 626.55)" xlink:href="#StarRound5PX"/><use width="4.59" height="4.59" transform="translate(767.82 915.78)" xlink:href="#StarRound5PX"/><use width="4.59" height="4.59" transform="translate(1244.34 906.17)" xlink:href="#StarRound5PX"/><use width="4.59" height="4.59" transform="translate(1644.57 674.19)" xlink:href="#StarRound5PX"/><use width="4.59" height="4.59" transform="translate(1736.69 311.87)" xlink:href="#StarRound5PX"/><use width="4.59" height="4.59" transform="translate(2254.5 248.29)" xlink:href="#StarRound5PX"/><use width="4.59" height="4.59" transform="translate(2546.84 407.13)" xlink:href="#StarRound5PX"/><use width="4.59" height="4.59" transform="translate(2778.71 702.77)" xlink:href="#StarRound5PX"/><use width="4.59" height="4.59" transform="translate(3099.59 848.96)" xlink:href="#StarRound5PX"/><use width="4.59" height="4.59" transform="translate(3461.62 963.4)" xlink:href="#StarRound5PX"/><use width="4.59" height="4.59" transform="translate(3690.43 890.33)" xlink:href="#StarRound5PX"/><use width="4.59" height="4.59" transform="translate(3788.76 712.38)" xlink:href="#StarRound5PX"/><use width="4.59" height="4.59" transform="translate(3852.53 534.57)" xlink:href="#StarRound5PX"/><use width="4.59" height="4.59" transform="translate(3862.37 498.5)" xlink:href="#StarRound5PX"/><use width="4.59" height="4.59" transform="translate(3849.83 686.8)" xlink:href="#StarRound5PX"/><use width="4.59" height="4.59" transform="translate(3894.21 931.71)" xlink:href="#StarRound5PX"/><use width="4.59" height="4.59" transform="translate(3849.66 1135.18)" xlink:href="#StarRound5PX"/><use width="4.59" height="4.59" transform="translate(3741.49 1259.29)" xlink:href="#StarRound5PX"/><use width="4.59" height="4.59" transform="translate(3601.39 1240.14)" xlink:href="#StarRound5PX"/><use width="4.59" height="4.59" transform="translate(3251.92 1135.21)" xlink:href="#StarRound5PX"/><use width="4.59" height="4.59" transform="translate(2902.51 880.92)" xlink:href="#StarRound5PX"/><use width="4.59" height="4.59" transform="translate(2540.38 652.03)" xlink:href="#StarRound5PX"/><use width="4.59" height="4.59" transform="translate(2203.67 737.85)" xlink:href="#StarRound5PX"/><use width="4.59" height="4.59" transform="translate(1886.1 979.39)" xlink:href="#StarRound5PX"/><use width="4.59" height="4.59" transform="translate(1625.58 1160.56)" xlink:href="#StarRound5PX"/><use width="4.59" height="4.59" transform="translate(1247.55 1246.36)" xlink:href="#StarRound5PX"/><use width="4.59" height="4.59" transform="translate(958.37 1281.33)" xlink:href="#StarRound5PX"/><use width="4.59" height="4.59" transform="translate(548.57 1182.87)" xlink:href="#StarRound5PX"/><use width="4.59" height="4.59" transform="translate(408.54 1106.49)" xlink:href="#StarRound5PX"/><use width="4.59" height="4.59" transform="translate(275.1 706.44)" xlink:href="#StarRound5PX"/><use width="4.59" height="4.59" transform="translate(284.77 648.48)" xlink:href="#StarRound5PX"/><use width="4.59" height="4.59" transform="translate(2898.04 281.05)" xlink:href="#StarRound5PX"/><use width="4.59" height="4.59" transform="translate(2773.97 176.02)" xlink:href="#StarRound5PX"/><use width="4.59" height="4.59" transform="translate(2418.27 166.61)" xlink:href="#StarRound5PX"/><use width="4.59" height="4.59" transform="translate(2097.27 258.91)" xlink:href="#StarRound5PX"/><use width="4.59" height="4.59" transform="translate(1836.73 392.36)" xlink:href="#StarRound5PX"/><use width="4.59" height="4.59" transform="translate(1572.97 408.18)" xlink:href="#StarRound5PX"/><use width="4.59" height="4.59" transform="translate(1134.59 319.09)" xlink:href="#StarRound5PX"/><use width="4.59" height="4.59" transform="translate(829.29 312.71)" xlink:href="#StarRound5PX"/><use width="4.59" height="4.59" transform="translate(842.03 191.62)" xlink:href="#StarRound5PX"/><use width="4.59" height="4.59" transform="translate(1131.34 124.97)" xlink:href="#StarRound5PX"/><use width="4.59" height="4.59" transform="translate(1496.7 112.38)" xlink:href="#StarRound5PX"/><use width="4.59" height="4.59" transform="translate(1858.83 77.45)" xlink:href="#StarRound5PX"/><use width="4.59" height="4.59" transform="translate(2128.7 32.99)" xlink:href="#StarRound5PX"/><use width="4.59" height="4.59" transform="translate(2189.77 23.36)" xlink:href="#StarRound5PX"/><use width="4.59" height="4.59" transform="translate(22.4 17.04)" xlink:href="#StarRound5PX"/><use width="4.59" height="4.59" transform="translate(6.44 153.95)" xlink:href="#StarRound5PX"/><use width="4.59" height="4.59" transform="translate(0 477.99)" xlink:href="#StarRound5PX"/><use width="4.59" height="4.59" transform="translate(63.4 754.46)" xlink:href="#StarRound5PX"/><use width="4.59" height="4.59" transform="translate(155.72 850)" xlink:href="#StarRound5PX"/><use width="4.59" height="4.59" transform="translate(422.64 757.65)" xlink:href="#StarRound5PX"/><use width="4.59" height="4.59" transform="translate(695.84 630.54)" xlink:href="#StarRound5PX"/><use width="4.59" height="4.59" transform="translate(918.4 551.04)" xlink:href="#StarRound5PX"/><use width="4.59" height="4.59" transform="translate(1001.22 672.02)" xlink:href="#StarRound5PX"/><use width="4.59" height="4.59" transform="translate(969.47 900.86)" xlink:href="#StarRound5PX"/><use width="4.59" height="4.59" transform="translate(861.34 1021.7)" xlink:href="#StarRound5PX"/><use width="4.59" height="4.59" transform="translate(683.68 1193.09)" xlink:href="#StarRound5PX"/><use width="4.59" height="4.59" transform="translate(629.36 1244.33)" xlink:href="#StarRound5PX"/><use width="4.59" height="4.59" transform="translate(496 1266.41)" xlink:href="#StarRound5PX"/><use width="4.59" height="4.59" transform="translate(413.43 1272.83)" xlink:href="#StarRound5PX"/><use width="4.59" height="4.59" transform="translate(380.38 1269.48)" xlink:href="#StarRound5PX"/><use width="4.59" height="4.59" transform="translate(1455.46 802.34)" xlink:href="#StarRound5PX"/><use width="4.59" height="4.59" transform="translate(1652.45 974.03)" xlink:href="#StarRound5PX"/><use width="4.59" height="4.59" transform="translate(1935.22 1043.92)" xlink:href="#StarRound5PX"/><use width="4.59" height="4.59" transform="translate(2316.38 929.43)" xlink:href="#StarRound5PX"/><use width="4.59" height="4.59" transform="translate(2624.5 868.94)" xlink:href="#StarRound5PX"/><use width="4.59" height="4.59" transform="translate(2837.37 926.06)" xlink:href="#StarRound5PX"/><use width="4.59" height="4.59" transform="translate(2999.41 1011.74)" xlink:href="#StarRound5PX"/><use width="4.59" height="4.59" transform="translate(3047.12 1101.09)" xlink:href="#StarRound5PX"/><use width="4.59" height="4.59" transform="translate(3187 1170.92)" xlink:href="#StarRound5PX"/><use width="4.59" height="4.59" transform="translate(3498.17 1186.55)" xlink:href="#StarRound5PX"/><use width="4.59" height="4.59" transform="translate(3679.12 1275.4)" xlink:href="#StarRound5PX"/><use width="4.59" height="4.59" transform="translate(3757.81 1335.9)" xlink:href="#StarRound5PX"/><use width="4.59" height="4.59" transform="translate(3776.04 1339.5)" xlink:href="#StarRound5PX"/><use width="4.59" height="4.59" transform="translate(3157.51 516.96) scale(1 0.98)" xlink:href="#StarRound5PX"/><use width="4.59" height="4.59" transform="translate(3361.03 557.5) scale(1 0.98)" xlink:href="#StarRound5PX"/><use width="4.59" height="4.59" transform="translate(3707.33 417.44) scale(1 0.98)" xlink:href="#StarRound5PX"/><use width="4.59" height="4.59" transform="translate(3821.82 221.25) scale(1 0.98)" xlink:href="#StarRound5PX"/><use width="4.59" height="4.59" transform="translate(3802.71 87.08) scale(1 0.98)" xlink:href="#StarRound5PX"/><use width="4.59" height="4.59" transform="translate(3545.24 18.66) scale(1 0.98)" xlink:href="#StarRound5PX"/><use width="4.59" height="4.59" transform="translate(3272.01) scale(1 0.98)" xlink:href="#StarRound5PX"/><use width="4.59" height="4.59" transform="translate(3036.87 3.13) scale(1 0.98)" xlink:href="#StarRound5PX"/><use width="4.59" height="4.59" transform="translate(2827.12 18.72) scale(1 0.98)" xlink:href="#StarRound5PX"/><use width="4.59" height="4.59" transform="translate(2604.66 28.07) scale(1 0.98)" xlink:href="#StarRound5PX"/><use width="4.59" height="4.59" transform="translate(345.96 18.7) scale(1 0.98)" xlink:href="#StarRound5PX"/><use width="4.59" height="4.59" transform="translate(577.98 24.92) scale(1 0.98)" xlink:href="#StarRound5PX"/><use width="4.59" height="4.59" transform="translate(806.8 31.14) scale(1 0.98)" xlink:href="#StarRound5PX"/><use width="4.59" height="4.59" transform="translate(1111.79 34.23) scale(1 0.98)" xlink:href="#StarRound5PX"/><use width="4.59" height="4.59" transform="translate(1442.27 9.3) scale(1 0.98)" xlink:href="#StarRound5PX"/><use width="4.59" height="4.59" transform="translate(212.54 1182.84) scale(1 0.98)" xlink:href="#StarRound5PX"/><use width="4.59" height="4.59" transform="translate(263.34 1351.16) scale(1 0.98)" xlink:href="#StarRound5PX"/><use width="4.59" height="4.59" transform="translate(444.56 1422.77) scale(1 0.98)" xlink:href="#StarRound5PX"/><use width="4.59" height="4.59" transform="translate(809.82 1297.94) scale(1 0.98)" xlink:href="#StarRound5PX"/><use width="4.59" height="4.59" transform="translate(959.19 1388.38) scale(1 0.98)" xlink:href="#StarRound5PX"/><use width="4.59" height="4.59" transform="translate(1064.18 1428.99) scale(1 0.98)" xlink:href="#StarRound5PX"/><use width="4.59" height="4.59" transform="translate(1156.64 1444.61) scale(1 0.98)" xlink:href="#StarRound5PX"/><use width="4.59" height="4.59" transform="translate(1496.15 1220.14) scale(1 0.98)" xlink:href="#StarRound5PX"/><use width="4.59" height="4.59" transform="translate(1604.39 1288.76) scale(1 0.98)" xlink:href="#StarRound5PX"/><use width="4.59" height="4.59" transform="translate(1674.38 1388.66) scale(1 0.98)" xlink:href="#StarRound5PX"/><use width="4.59" height="4.59" transform="translate(1413.64 345.62) scale(1 0.98)" xlink:href="#StarRound5PX"/><use width="4.59" height="4.59" transform="translate(2706.66 1363.65) scale(1 0.98)" xlink:href="#StarRound5PX"/><use width="4.59" height="4.59" transform="translate(2550.85 1232.77) scale(1 0.98)" xlink:href="#StarRound5PX"/><use width="4.59" height="4.59" transform="translate(762.18 1516.29) scale(1 0.98)" xlink:href="#StarRound5PX"/><use width="4.59" height="4.59" transform="translate(69.58 958.69) scale(1 0.98)" xlink:href="#StarRound5PX"/><use width="25.94" height="25.94" transform="translate(345.36 405.74)" xlink:href="#Star4P"/><use width="25.94" height="25.94" transform="translate(561.89 495.23)" xlink:href="#Star4P"/><use width="25.94" height="25.94" transform="translate(1031.84 255.35)" xlink:href="#Star4P"/><use width="25.94" height="25.94" transform="translate(1366.39 648.96)" xlink:href="#Star4P"/><use width="25.94" height="25.94" transform="translate(2215.26 520.97)" xlink:href="#Star4P"/><use width="25.94" height="25.94" transform="translate(676.08 1030.36)" xlink:href="#Star4P"/><use width="25.94" height="25.94" transform="translate(2849.22 527.18)" xlink:href="#Star4P"/><use width="25.94" height="25.94" transform="translate(3564.1 838.88)" xlink:href="#Star4P"/><use width="25.94" height="25.94" transform="translate(3471.34 1214.96)" xlink:href="#Star4P"/><use width="25.94" height="25.94" transform="translate(3926.24 303.91)" xlink:href="#Star4P"/><use width="25.94" height="25.94" transform="translate(1671.55 45.02)" xlink:href="#Star4P"/><use width="25.94" height="25.94" transform="translate(2183.68 989.96)" xlink:href="#Star4P"/><use width="25.94" height="25.94" transform="translate(24.41 361.49)" xlink:href="#Star4P"/><use width="25.94" height="25.94" transform="translate(3109.64 185.47)" xlink:href="#Star4P"/><use width="25.94" height="25.94" transform="translate(1248.5 424.22)" xlink:href="#Star4P"/><use width="25.94" height="25.94" transform="translate(1700.17 399.08)" xlink:href="#Star4P"/><use width="25.94" height="25.94" transform="translate(2094.25 325.11)" xlink:href="#Star4P"/><use width="25.94" height="25.94" transform="translate(2425.12 318.6)" xlink:href="#Star4P"/><use width="25.94" height="25.94" transform="translate(2607.31 415.51)" xlink:href="#Star4P"/><use width="4.59" height="4.59" transform="translate(3580.93 632.69)" xlink:href="#StarRound5PX"/><use width="4.59" height="4.59" transform="translate(3101.02 684.36)" xlink:href="#StarRound5PX"/><use width="4.59" height="4.59" transform="translate(2041.83 710.67)" xlink:href="#StarRound5PX"/><use width="4.59" height="4.59" transform="translate(1669.6 659.55)" xlink:href="#StarRound5PX"/><use width="4.59" height="4.59" transform="translate(1023.02 553.62)" xlink:href="#StarRound5PX"/><use width="4.59" height="4.59" transform="translate(839.15 524.91)" xlink:href="#StarRound5PX"/><use width="4.59" height="4.59" transform="translate(953.62 834.23)" xlink:href="#StarRound5PX"/><use width="4.59" height="4.59" transform="translate(1431.7 882.72)" xlink:href="#StarRound5PX"/><use width="4.59" height="4.59" transform="translate(1996.73 765.43)" xlink:href="#StarRound5PX"/><use width="4.59" height="4.59" transform="translate(2681.18 730.05)" xlink:href="#StarRound5PX"/><use width="4.59" height="4.59" transform="translate(3157.97 792.68)" xlink:href="#StarRound5PX"/><use width="4.59" height="4.59" transform="translate(3396.08 833.46)" xlink:href="#StarRound5PX"/><use width="4.59" height="4.59" transform="translate(2679.05 335.16)" xlink:href="#StarRound5PX"/><use width="4.59" height="4.59" transform="translate(2977.3 345.91)" xlink:href="#StarRound5PX"/><use width="4.59" height="4.59" transform="translate(3104.64 537.46)" xlink:href="#StarRound5PX"/><use width="4.59" height="4.59" transform="translate(3298.23 591.38)" xlink:href="#StarRound5PX"/><use width="4.59" height="4.59" transform="translate(3600.08 562.21)" xlink:href="#StarRound5PX"/><use width="4.59" height="4.59" transform="translate(3752.9 562.73)" xlink:href="#StarRound5PX"/><use width="4.59" height="4.59" transform="translate(3807.26 785.74)" xlink:href="#StarRound5PX"/><use width="4.59" height="4.59" transform="translate(3822.9 1018.29)" xlink:href="#StarRound5PX"/><use width="4.59" height="4.59" transform="translate(3863.96 1187)" xlink:href="#StarRound5PX"/><use width="4.59" height="4.59" transform="translate(3338.56 938.79)" xlink:href="#StarRound5PX"/><use width="4.59" height="4.59" transform="translate(2360.1 796.94)" xlink:href="#StarRound5PX"/><use width="4.59" height="4.59" transform="translate(1618.93 771.35)" xlink:href="#StarRound5PX"/><use width="4.59" height="4.59" transform="translate(1309.77 914.54)" xlink:href="#StarRound5PX"/><use width="4.59" height="4.59" transform="translate(1135.16 1019.2)" xlink:href="#StarRound5PX"/><use width="4.59" height="4.59" transform="translate(998.38 1031.87)" xlink:href="#StarRound5PX"/><use width="4.59" height="4.59" transform="translate(1214.75 1140.46)" xlink:href="#StarRound5PX"/><use width="4.59" height="4.59" transform="translate(1304.24 1118.15)" xlink:href="#StarRound5PX"/><use width="4.59" height="4.59" transform="translate(1373.93 905.13)" xlink:href="#StarRound5PX"/><use width="4.59" height="4.59" transform="translate(1112.43 713.64)" xlink:href="#StarRound5PX"/><use width="4.59" height="4.59" transform="translate(1086.84 620.88)" xlink:href="#StarRound5PX"/><use width="4.59" height="4.59" transform="translate(1209.75 477.95)" xlink:href="#StarRound5PX"/><use width="4.59" height="4.59" transform="translate(1455.34 432.18)" xlink:href="#StarRound5PX"/><use width="4.59" height="4.59" transform="translate(1470.75 428.32)" xlink:href="#StarRound5PX"/><use width="4.59" height="4.59" transform="translate(1357.47 593.98)" xlink:href="#StarRound5PX"/><use width="4.59" height="4.59" transform="translate(1736.39 579.68)" xlink:href="#StarRound5PX"/><use width="4.59" height="4.59" transform="translate(1885.38 633.89)" xlink:href="#StarRound5PX"/><use width="4.59" height="4.59" transform="translate(1977.48 691.35)" xlink:href="#StarRound5PX"/><use width="4.59" height="4.59" transform="translate(2003.07 560.31)" xlink:href="#StarRound5PX"/><use width="4.59" height="4.59" transform="translate(1986.92 451.42)" xlink:href="#StarRound5PX"/><use width="4.59" height="4.59" transform="translate(2368.51 435.22)" xlink:href="#StarRound5PX"/><use width="4.59" height="4.59" transform="translate(2385.86 452.65)" xlink:href="#StarRound5PX"/><use width="4.59" height="4.59" transform="translate(2366.76 615.29)" xlink:href="#StarRound5PX"/><use width="4.59" height="4.59" transform="translate(2254.88 647.66)" xlink:href="#StarRound5PX"/><use width="4.59" height="4.59" transform="translate(2519.13 742.76)" xlink:href="#StarRound5PX"/><use width="4.59" height="4.59" transform="translate(2519.91 339.13)" xlink:href="#StarRound5PX"/><use width="4.59" height="4.59" transform="translate(2522.86 267.54)" xlink:href="#StarRound5PX"/><use width="4.59" height="4.59" transform="translate(2767.71 431.82)" xlink:href="#StarRound5PX"/><use width="4.59" height="4.59" transform="translate(2798.69 631.53)" xlink:href="#StarRound5PX"/><use width="4.59" height="4.59" transform="translate(2932.14 866.57)" xlink:href="#StarRound5PX"/><use width="4.59" height="4.59" transform="translate(3170.27 923.52)" xlink:href="#StarRound5PX"/><use width="4.59" height="4.59" transform="translate(3361.22 980.96)" xlink:href="#StarRound5PX"/><use width="4.59" height="4.59" transform="translate(313.05 939.68)" xlink:href="#StarRound5PX"/><use width="4.59" height="4.59" transform="translate(533.82 887.2)" xlink:href="#StarRound5PX"/><use width="4.59" height="4.59" transform="translate(621.59 784.05)" xlink:href="#StarRound5PX"/><use width="4.59" height="4.59" transform="translate(623.16 735.55)" xlink:href="#StarRound5PX"/><use width="4.59" height="4.59" transform="translate(225.8 110.16)" xlink:href="#StarRound5PX"/><use width="4.59" height="4.59" transform="translate(487.92 129.11)" xlink:href="#StarRound5PX"/><use width="4.59" height="4.59" transform="translate(653.35 141.69)" xlink:href="#StarRound5PX"/><use width="4.59" height="4.59" transform="translate(720.02 291.26)" xlink:href="#StarRound5PX"/><use width="4.59" height="4.59" transform="translate(947.03 418.38)" xlink:href="#StarRound5PX"/><use width="4.59" height="4.59" transform="translate(1052.2 387.94)" xlink:href="#StarRound5PX"/><use width="4.59" height="4.59" transform="translate(1139.16 540.86)" xlink:href="#StarRound5PX"/><use width="4.59" height="4.59" transform="translate(1198.43 568.2)" xlink:href="#StarRound5PX"/><use width="4.59" height="4.59" transform="translate(1358.26 541.36)" xlink:href="#StarRound5PX"/><use width="4.59" height="4.59" transform="translate(1382.59 508.28)" xlink:href="#StarRound5PX"/><use width="4.59" height="4.59" transform="translate(1421.56 528.18)" xlink:href="#StarRound5PX"/><use width="4.59" height="4.59" transform="translate(1522.14 609.56)" xlink:href="#StarRound5PX"/><use width="4.59" height="4.59" transform="translate(1531.7 609.51)" xlink:href="#StarRound5PX"/><use width="4.59" height="4.59" transform="translate(230.37 1032.11)" xlink:href="#StarRound5PX"/><use width="4.59" height="4.59" transform="translate(516.4 968.92)" xlink:href="#StarRound5PX"/><use width="4.59" height="4.59" transform="translate(637.67 948.4)" xlink:href="#StarRound5PX"/><use width="4.59" height="4.59" transform="translate(668.24 896.87)" xlink:href="#StarRound5PX"/><use width="4.59" height="4.59" transform="translate(3426.53 1074.76)" xlink:href="#StarRound5PX"/><use width="4.59" height="4.59" transform="translate(3528.54 1074.75)" xlink:href="#StarRound5PX"/><use width="4.59" height="4.59" transform="translate(3665.29 1077.94)" xlink:href="#StarRound5PX"/><use width="4.59" height="4.59" transform="translate(2813.96 804.58)" xlink:href="#StarRound5PX"/><use width="4.59" height="4.59" transform="translate(2658.22 814.08)" xlink:href="#StarRound5PX"/><use width="4.59" height="4.59" transform="translate(2546.95 845.96)" xlink:href="#StarRound5PX"/><use width="4.59" height="4.59" transform="translate(2473.39 855.55)" xlink:href="#StarRound5PX"/><use width="4.59" height="4.59" transform="translate(1622.67 273.74)" xlink:href="#StarRound5PX"/><use width="4.59" height="4.59" transform="translate(1702.2 168.7)" xlink:href="#StarRound5PX"/><use width="4.59" height="4.59" transform="translate(3527.93 178.73)" xlink:href="#StarRound5PX"/><use width="4.59" height="4.59" transform="translate(3703.27 220.22)" xlink:href="#StarRound5PX"/><use width="4.59" height="4.59" transform="translate(3754.83 239.4)" xlink:href="#StarRound5PX"/><use width="4.59" height="4.59" transform="translate(3642.75 153.42)" xlink:href="#StarRound5PX"/><use width="4.59" height="4.59" transform="translate(3642.64 92.49)" xlink:href="#StarRound5PX"/><use width="4.59" height="4.59" transform="translate(3668.63 50.6)" xlink:href="#StarRound5PX"/><use width="4.59" height="4.59" transform="translate(3957.54 991.85)" xlink:href="#StarRound5PX"/><use width="4.59" height="4.59" transform="translate(3976.69 1084.48)" xlink:href="#StarRound5PX"/></g></g></svg>